<svg xmlns="http://www.w3.org/2000/svg" xmlns:xlink="http://www.w3.org/1999/xlink" width="1080" zoomAndPan="magnify" viewBox="0 0 810 1439.999935" height="1920" preserveAspectRatio="xMidYMid meet" version="1.0"><defs><g/><clipPath id="4a1151a3d0"><path d="M 53.1875 368.1875 L 756.6875 368.1875 L 756.6875 1071.6875 L 53.1875 1071.6875 Z M 53.1875 368.1875 " clip-rule="nonzero"/></clipPath><clipPath id="b28fefd39d"><path d="M 53.1875 367.894531 L 756.25 367.894531 L 756.25 1070.953125 L 53.1875 1070.953125 Z M 53.1875 367.894531 " clip-rule="nonzero"/></clipPath></defs><rect x="-81" width="972" fill="#ffffff" y="-143.999994" height="1727.999922" fill-opacity="1"/><rect x="-81" width="972" fill="#ffffff" y="-143.999994" height="1727.999922" fill-opacity="1"/><rect x="-81" width="972" fill="#1e3653" y="-143.999994" height="1727.999922" fill-opacity="1"/><g clip-path="url(#4a1151a3d0)"><path fill="#1e3653" d="M 404.9375 368.1875 C 210.671875 368.1875 53.1875 525.671875 53.1875 719.9375 C 53.1875 914.203125 210.671875 1071.6875 404.9375 1071.6875 C 599.203125 1071.6875 756.6875 914.203125 756.6875 719.9375 C 756.6875 525.671875 599.203125 368.1875 404.9375 368.1875 " fill-opacity="1" fill-rule="nonzero"/></g><g clip-path="url(#b28fefd39d)"><path fill="#ffffff" d="M 404.71875 1070.953125 C 310.863281 1070.953125 222.492188 1034.425781 156.175781 967.96875 C 89.71875 901.652344 53.1875 813.277344 53.1875 719.425781 C 53.1875 625.570312 89.71875 537.195312 156.175781 470.878906 C 222.492188 404.421875 310.863281 367.894531 404.71875 367.894531 C 498.574219 367.894531 586.945312 404.421875 653.261719 470.878906 C 719.71875 537.335938 756.25 625.570312 756.25 719.425781 C 756.25 813.277344 719.71875 901.652344 653.261719 967.96875 C 586.945312 1034.425781 498.574219 1070.953125 404.71875 1070.953125 Z M 404.71875 388.96875 C 316.484375 388.96875 233.449219 423.390625 171.066406 485.773438 C 108.6875 548.15625 74.261719 631.191406 74.261719 719.425781 C 74.261719 807.660156 108.6875 890.695312 171.066406 953.074219 C 233.449219 1015.457031 316.484375 1049.878906 404.71875 1049.878906 C 492.953125 1049.878906 575.988281 1015.457031 638.371094 953.074219 C 700.75 890.695312 735.175781 807.65625 735.175781 719.425781 C 735.175781 631.191406 700.75 548.15625 638.371094 485.773438 C 575.988281 423.390625 492.953125 388.96875 404.71875 388.96875 Z M 404.71875 388.96875 " fill-opacity="1" fill-rule="nonzero"/></g><g fill="#ffffff" fill-opacity="1"><g transform="translate(187.942155, 805.955526)"><g><path d="M 97.355469 -141.609375 C 97.355469 -161.898438 86.347656 -172.691406 66.054688 -172.691406 L 14.246094 -172.691406 C 12.089844 -172.691406 10.792969 -171.613281 10.792969 -169.238281 L 10.792969 -3.453125 C 10.792969 -1.296875 12.089844 0 14.246094 0 L 66.054688 0 C 86.347656 0 97.355469 -10.792969 97.355469 -31.085938 L 97.355469 -70.804688 C 97.355469 -78.789062 91.527344 -84.835938 83.753906 -86.128906 L 83.753906 -86.5625 C 91.527344 -87.855469 97.355469 -93.902344 97.355469 -101.886719 Z M 68.644531 -109.011719 C 68.644531 -103.613281 65.621094 -100.59375 60.011719 -100.59375 L 40.367188 -100.59375 L 40.367188 -144.199219 L 60.011719 -144.199219 C 65.839844 -144.199219 68.644531 -141.175781 68.644531 -135.5625 Z M 68.644531 -37.128906 C 68.644531 -31.300781 65.621094 -28.496094 60.011719 -28.496094 L 40.367188 -28.496094 L 40.367188 -72.097656 L 60.011719 -72.097656 C 65.839844 -72.097656 68.644531 -69.078125 68.644531 -63.464844 Z M 68.644531 -37.128906 "/></g></g></g><g fill="#ffffff" fill-opacity="1"><g transform="translate(296.090347, 805.955526)"><g><path d="M 40.152344 -28.496094 L 91.527344 -28.496094 C 93.902344 -28.496094 94.980469 -27.199219 94.980469 -25.039062 L 94.980469 -3.453125 C 94.980469 -1.078125 93.902344 0 91.527344 0 L 14.246094 0 C 12.089844 0 10.792969 -1.078125 10.792969 -3.453125 L 10.792969 -169.238281 C 10.792969 -171.398438 12.089844 -172.691406 14.246094 -172.691406 L 36.695312 -172.691406 C 39.070312 -172.691406 40.152344 -171.398438 40.152344 -169.238281 Z M 40.152344 -28.496094 "/></g></g></g><g fill="#ffffff" fill-opacity="1"><g transform="translate(401.863981, 805.955526)"><g><path d="M 10.792969 -31.085938 C 10.792969 -10.792969 21.585938 0 41.878906 0 L 66.054688 0 C 86.347656 0 97.140625 -10.792969 97.140625 -31.085938 L 97.140625 -141.609375 C 97.140625 -161.898438 86.347656 -172.691406 66.054688 -172.691406 L 41.878906 -172.691406 C 21.585938 -172.691406 10.792969 -161.898438 10.792969 -141.609375 Z M 48.136719 -27.847656 C 42.527344 -27.847656 39.503906 -30.652344 39.503906 -36.480469 L 39.503906 -136.210938 C 39.503906 -141.824219 42.527344 -144.84375 48.136719 -144.84375 L 60.65625 -144.84375 C 66.269531 -144.84375 69.292969 -141.824219 69.292969 -136.210938 L 69.292969 -36.480469 C 69.292969 -30.652344 66.269531 -27.847656 60.65625 -27.847656 Z M 48.136719 -27.847656 "/></g></g></g><g fill="#ffffff" fill-opacity="1"><g transform="translate(509.796268, 805.955526)"><g><path d="M 10.792969 -31.085938 C 10.792969 -10.792969 21.585938 0 41.878906 0 L 70.371094 0 C 90.449219 0 101.457031 -10.792969 101.457031 -31.085938 L 101.457031 -91.09375 C 101.457031 -93.46875 100.160156 -94.550781 98.003906 -94.550781 L 61.738281 -94.550781 C 59.363281 -94.550781 58.285156 -93.46875 58.285156 -91.09375 L 58.285156 -69.507812 C 58.285156 -67.351562 59.363281 -66.054688 61.738281 -66.054688 L 72.960938 -66.054688 L 72.960938 -37.128906 C 72.960938 -31.300781 69.941406 -28.496094 64.328125 -28.496094 L 48.785156 -28.496094 C 43.171875 -28.496094 40.152344 -31.300781 40.152344 -37.128906 L 40.152344 -135.5625 C 40.152344 -141.175781 42.957031 -144.199219 48.785156 -144.199219 L 64.328125 -144.199219 C 69.941406 -144.199219 72.960938 -141.175781 72.960938 -135.5625 L 72.960938 -119.15625 C 72.960938 -117 74.042969 -115.703125 76.417969 -115.703125 L 98.003906 -115.703125 C 100.160156 -115.703125 101.457031 -117 101.457031 -119.15625 L 101.457031 -141.609375 C 101.457031 -161.898438 90.449219 -172.691406 70.371094 -172.691406 L 41.878906 -172.691406 C 21.585938 -172.691406 10.792969 -161.898438 10.792969 -141.609375 Z M 10.792969 -31.085938 "/></g></g></g></svg>