<svg xmlns="http://www.w3.org/2000/svg" xmlns:xlink="http://www.w3.org/1999/xlink" zoomAndPan="magnify" viewBox="0 0 1552.5 766.499977" preserveAspectRatio="xMidYMid meet" version="1.0"><defs><g/><clipPath id="c226fa57bf"><path d="M 896 159 L 956.199219 159 L 956.199219 208 L 896 208 Z M 896 159 " clip-rule="nonzero"/></clipPath><clipPath id="e9da1357ff"><path d="M 596.59375 159 L 657 159 L 657 208 L 596.59375 208 Z M 596.59375 159 " clip-rule="nonzero"/></clipPath><clipPath id="03e2c7c7c0"><path d="M 643 277 L 910 277 L 910 415.546875 L 643 415.546875 Z M 643 277 " clip-rule="nonzero"/></clipPath><clipPath id="85b7002e1d"><path d="M 677 48.371094 L 875 48.371094 L 875 266 L 677 266 Z M 677 48.371094 " clip-rule="nonzero"/></clipPath><clipPath id="fac0ef8950"><path d="M 44 370.789062 L 592 370.789062 L 592 407.695312 L 44 407.695312 Z M 44 370.789062 " clip-rule="nonzero"/></clipPath><clipPath id="7a3bb8b6a3"><path d="M 961 370.789062 L 1509 370.789062 L 1509 407.695312 L 961 407.695312 Z M 961 370.789062 " clip-rule="nonzero"/></clipPath></defs><g fill="#ffffff" fill-opacity="1"><g transform="translate(37.509399, 595.038863)"><g><path d="M 79.085938 -135.1875 C 77.054688 -135.1875 75.875 -134.171875 75.367188 -132.144531 L 56.609375 -47.992188 L 37.851562 -132.144531 C 37.34375 -134.171875 36.164062 -135.1875 34.132812 -135.1875 L 11.828125 -135.1875 C 9.632812 -135.1875 8.449219 -134.003906 8.449219 -131.808594 L 8.449219 -3.378906 C 8.449219 -1.183594 9.632812 0 11.828125 0 L 27.375 0 C 29.570312 0 30.753906 -1.183594 30.753906 -3.378906 L 30.753906 -79.421875 L 31.9375 -79.421875 L 48.667969 -3.042969 C 49.175781 -1.015625 50.355469 0 52.386719 0 L 60.664062 0 C 62.691406 0 63.875 -1.015625 64.382812 -3.042969 L 81.113281 -79.421875 L 82.296875 -79.421875 L 82.296875 -3.378906 C 82.296875 -1.183594 83.476562 0 85.675781 0 L 101.390625 0 C 103.585938 0 104.769531 -1.183594 104.769531 -3.378906 L 104.769531 -131.808594 C 104.769531 -134.003906 103.585938 -135.1875 101.390625 -135.1875 Z M 79.085938 -135.1875 "/></g></g></g><g fill="#ffffff" fill-opacity="1"><g transform="translate(147.338052, 595.038863)"><g><path d="M 57.117188 -135.1875 C 55.257812 -135.1875 53.738281 -133.667969 53.738281 -131.808594 L 53.738281 -29.066406 C 53.738281 -24.503906 51.371094 -22.304688 46.976562 -22.304688 L 38.191406 -22.304688 C 33.796875 -22.304688 31.429688 -24.503906 31.429688 -29.066406 L 31.429688 -131.808594 C 31.429688 -133.667969 29.910156 -135.1875 28.050781 -135.1875 L 11.828125 -135.1875 C 9.96875 -135.1875 8.449219 -133.667969 8.449219 -131.808594 L 8.449219 -24.332031 C 8.449219 -8.449219 16.898438 0 32.78125 0 L 51.710938 0 C 67.59375 0 76.042969 -8.449219 76.042969 -24.332031 L 76.042969 -131.808594 C 76.042969 -133.667969 74.523438 -135.1875 72.664062 -135.1875 Z M 57.117188 -135.1875 "/></g></g></g><g fill="#ffffff" fill-opacity="1"><g transform="translate(228.442102, 595.038863)"><g><path d="M 60.328125 -135.1875 C 58.46875 -135.1875 57.625 -134.171875 57.625 -132.484375 L 57.625 -61.171875 L 56.609375 -61.171875 L 30.925781 -132.988281 C 30.417969 -134.511719 29.402344 -135.1875 27.882812 -135.1875 L 11.152344 -135.1875 C 9.464844 -135.1875 8.449219 -134.171875 8.449219 -132.484375 L 8.449219 -2.703125 C 8.449219 -1.015625 9.464844 0 11.152344 0 L 28.726562 0 C 30.585938 0 31.429688 -1.015625 31.429688 -2.703125 L 31.429688 -74.351562 L 32.277344 -74.351562 L 58.128906 -2.195312 C 58.636719 -0.675781 59.652344 0 61.171875 0 L 77.902344 0 C 79.589844 0 80.605469 -1.015625 80.605469 -2.703125 L 80.605469 -132.484375 C 80.605469 -134.171875 79.589844 -135.1875 77.902344 -135.1875 Z M 60.328125 -135.1875 "/></g></g></g><g fill="#ffffff" fill-opacity="1"><g transform="translate(314.108297, 595.038863)"><g><path d="M 8.449219 -2.703125 C 8.449219 -0.84375 9.292969 0 11.152344 0 L 51.710938 0 C 67.59375 0 76.042969 -8.449219 76.042969 -24.332031 L 76.042969 -110.683594 C 76.042969 -126.570312 67.59375 -135.1875 51.710938 -135.1875 L 11.152344 -135.1875 C 9.292969 -135.1875 8.449219 -134.171875 8.449219 -132.484375 Z M 31.429688 -22.304688 L 31.429688 -112.882812 L 46.976562 -112.882812 C 51.371094 -112.882812 53.738281 -110.515625 53.738281 -105.953125 L 53.738281 -29.066406 C 53.738281 -24.503906 51.371094 -22.304688 46.976562 -22.304688 Z M 31.429688 -22.304688 "/></g></g></g><g fill="#ffffff" fill-opacity="1"><g transform="translate(395.212355, 595.038863)"><g><path d="M 89.898438 0 C 91.925781 0 92.601562 -1.015625 92.265625 -2.871094 L 64.214844 -132.820312 C 63.875 -134.511719 62.863281 -135.1875 61.339844 -135.1875 L 37.851562 -135.1875 C 36.332031 -135.1875 35.316406 -134.511719 34.980469 -132.820312 L 6.929688 -2.871094 C 6.421875 -1.015625 7.265625 0 9.125 0 L 27.207031 0 C 28.726562 0 29.570312 -0.84375 29.910156 -2.367188 L 34.472656 -27.039062 L 64.550781 -27.039062 L 69.285156 -2.367188 C 69.621094 -0.84375 70.464844 0 71.988281 0 Z M 60.328125 -46.640625 L 38.695312 -46.640625 L 49.511719 -105.613281 Z M 60.328125 -46.640625 "/></g></g></g><g fill="#ffffff" fill-opacity="1"><g transform="translate(490.84768, 595.038863)"><g><path d="M 60.328125 -135.1875 C 58.46875 -135.1875 57.625 -134.171875 57.625 -132.484375 L 57.625 -61.171875 L 56.609375 -61.171875 L 30.925781 -132.988281 C 30.417969 -134.511719 29.402344 -135.1875 27.882812 -135.1875 L 11.152344 -135.1875 C 9.464844 -135.1875 8.449219 -134.171875 8.449219 -132.484375 L 8.449219 -2.703125 C 8.449219 -1.015625 9.464844 0 11.152344 0 L 28.726562 0 C 30.585938 0 31.429688 -1.015625 31.429688 -2.703125 L 31.429688 -74.351562 L 32.277344 -74.351562 L 58.128906 -2.195312 C 58.636719 -0.675781 59.652344 0 61.171875 0 L 77.902344 0 C 79.589844 0 80.605469 -1.015625 80.605469 -2.703125 L 80.605469 -132.484375 C 80.605469 -134.171875 79.589844 -135.1875 77.902344 -135.1875 Z M 60.328125 -135.1875 "/></g></g></g><g fill="#ffffff" fill-opacity="1"><g transform="translate(576.513859, 595.038863)"><g><path d="M 75.875 -132.484375 C 75.875 -134.171875 75.199219 -135.1875 73.167969 -135.1875 L 10.984375 -135.1875 C 9.464844 -135.1875 8.449219 -134.171875 8.449219 -132.484375 L 8.449219 -2.703125 C 8.449219 -1.015625 9.464844 0 10.984375 0 L 73.167969 0 C 75.199219 0 75.875 -1.015625 75.875 -2.703125 L 75.875 -19.601562 C 75.875 -21.460938 75.199219 -22.304688 73.167969 -22.304688 L 30.925781 -22.304688 L 30.925781 -56.441406 L 63.199219 -56.441406 C 64.890625 -56.441406 65.902344 -57.453125 65.902344 -59.3125 L 65.902344 -76.042969 C 65.902344 -77.902344 64.890625 -78.914062 63.199219 -78.914062 L 30.925781 -78.914062 L 30.925781 -112.710938 L 73.167969 -112.710938 C 75.199219 -112.710938 75.875 -113.894531 75.875 -115.585938 Z M 75.875 -132.484375 "/></g></g></g><g fill="#ffffff" fill-opacity="1"><g transform="translate(657.448917, 595.038863)"><g/></g></g><g fill="#ffffff" fill-opacity="1"><g transform="translate(696.310848, 595.038863)"><g><path d="M 89.898438 0 C 91.925781 0 92.601562 -1.015625 92.265625 -2.871094 L 64.214844 -132.820312 C 63.875 -134.511719 62.863281 -135.1875 61.339844 -135.1875 L 37.851562 -135.1875 C 36.332031 -135.1875 35.316406 -134.511719 34.980469 -132.820312 L 6.929688 -2.871094 C 6.421875 -1.015625 7.265625 0 9.125 0 L 27.207031 0 C 28.726562 0 29.570312 -0.84375 29.910156 -2.367188 L 34.472656 -27.039062 L 64.550781 -27.039062 L 69.285156 -2.367188 C 69.621094 -0.84375 70.464844 0 71.988281 0 Z M 60.328125 -46.640625 L 38.695312 -46.640625 L 49.511719 -105.613281 Z M 60.328125 -46.640625 "/></g></g></g><g fill="#ffffff" fill-opacity="1"><g transform="translate(791.946173, 595.038863)"><g><path d="M 57.117188 -135.1875 C 55.257812 -135.1875 53.738281 -133.667969 53.738281 -131.808594 L 53.738281 -29.066406 C 53.738281 -24.503906 51.371094 -22.304688 46.976562 -22.304688 L 38.191406 -22.304688 C 33.796875 -22.304688 31.429688 -24.503906 31.429688 -29.066406 L 31.429688 -131.808594 C 31.429688 -133.667969 29.910156 -135.1875 28.050781 -135.1875 L 11.828125 -135.1875 C 9.96875 -135.1875 8.449219 -133.667969 8.449219 -131.808594 L 8.449219 -24.332031 C 8.449219 -8.449219 16.898438 0 32.78125 0 L 51.710938 0 C 67.59375 0 76.042969 -8.449219 76.042969 -24.332031 L 76.042969 -131.808594 C 76.042969 -133.667969 74.523438 -135.1875 72.664062 -135.1875 Z M 57.117188 -135.1875 "/></g></g></g><g fill="#ffffff" fill-opacity="1"><g transform="translate(873.05023, 595.038863)"><g><path d="M 7.773438 -135.1875 C 6.082031 -135.1875 5.070312 -134.171875 5.070312 -132.484375 L 5.070312 -115.585938 C 5.070312 -113.894531 6.082031 -112.882812 7.773438 -112.882812 L 27.375 -112.882812 L 27.375 -2.703125 C 27.375 -0.84375 28.390625 0 30.078125 0 L 47.652344 0 C 49.511719 0 50.355469 -0.84375 50.355469 -2.703125 L 50.355469 -112.882812 L 69.960938 -112.882812 C 71.816406 -112.882812 72.664062 -113.894531 72.664062 -115.585938 L 72.664062 -132.484375 C 72.664062 -134.171875 71.816406 -135.1875 69.960938 -135.1875 Z M 7.773438 -135.1875 "/></g></g></g><g fill="#ffffff" fill-opacity="1"><g transform="translate(947.395526, 595.038863)"><g><path d="M 8.449219 -24.332031 C 8.449219 -8.449219 16.898438 0 32.78125 0 L 51.710938 0 C 67.59375 0 76.042969 -8.449219 76.042969 -24.332031 L 76.042969 -110.851562 C 76.042969 -126.738281 67.59375 -135.1875 51.710938 -135.1875 L 32.78125 -135.1875 C 16.898438 -135.1875 8.449219 -126.738281 8.449219 -110.851562 Z M 37.683594 -21.800781 C 33.289062 -21.800781 30.925781 -23.996094 30.925781 -28.558594 L 30.925781 -106.628906 C 30.925781 -111.023438 33.289062 -113.386719 37.683594 -113.386719 L 47.484375 -113.386719 C 51.878906 -113.386719 54.242188 -111.023438 54.242188 -106.628906 L 54.242188 -28.558594 C 54.242188 -23.996094 51.878906 -21.800781 47.484375 -21.800781 Z M 37.683594 -21.800781 "/></g></g></g><g fill="#ffffff" fill-opacity="1"><g transform="translate(1028.499584, 595.038863)"><g><path d="M 79.085938 -135.1875 C 77.054688 -135.1875 75.875 -134.171875 75.367188 -132.144531 L 56.609375 -47.992188 L 37.851562 -132.144531 C 37.34375 -134.171875 36.164062 -135.1875 34.132812 -135.1875 L 11.828125 -135.1875 C 9.632812 -135.1875 8.449219 -134.003906 8.449219 -131.808594 L 8.449219 -3.378906 C 8.449219 -1.183594 9.632812 0 11.828125 0 L 27.375 0 C 29.570312 0 30.753906 -1.183594 30.753906 -3.378906 L 30.753906 -79.421875 L 31.9375 -79.421875 L 48.667969 -3.042969 C 49.175781 -1.015625 50.355469 0 52.386719 0 L 60.664062 0 C 62.691406 0 63.875 -1.015625 64.382812 -3.042969 L 81.113281 -79.421875 L 82.296875 -79.421875 L 82.296875 -3.378906 C 82.296875 -1.183594 83.476562 0 85.675781 0 L 101.390625 0 C 103.585938 0 104.769531 -1.183594 104.769531 -3.378906 L 104.769531 -131.808594 C 104.769531 -134.003906 103.585938 -135.1875 101.390625 -135.1875 Z M 79.085938 -135.1875 "/></g></g></g><g fill="#ffffff" fill-opacity="1"><g transform="translate(1138.328185, 595.038863)"><g><path d="M 89.898438 0 C 91.925781 0 92.601562 -1.015625 92.265625 -2.871094 L 64.214844 -132.820312 C 63.875 -134.511719 62.863281 -135.1875 61.339844 -135.1875 L 37.851562 -135.1875 C 36.332031 -135.1875 35.316406 -134.511719 34.980469 -132.820312 L 6.929688 -2.871094 C 6.421875 -1.015625 7.265625 0 9.125 0 L 27.207031 0 C 28.726562 0 29.570312 -0.84375 29.910156 -2.367188 L 34.472656 -27.039062 L 64.550781 -27.039062 L 69.285156 -2.367188 C 69.621094 -0.84375 70.464844 0 71.988281 0 Z M 60.328125 -46.640625 L 38.695312 -46.640625 L 49.511719 -105.613281 Z M 60.328125 -46.640625 "/></g></g></g><g fill="#ffffff" fill-opacity="1"><g transform="translate(1233.96351, 595.038863)"><g><path d="M 7.773438 -135.1875 C 6.082031 -135.1875 5.070312 -134.171875 5.070312 -132.484375 L 5.070312 -115.585938 C 5.070312 -113.894531 6.082031 -112.882812 7.773438 -112.882812 L 27.375 -112.882812 L 27.375 -2.703125 C 27.375 -0.84375 28.390625 0 30.078125 0 L 47.652344 0 C 49.511719 0 50.355469 -0.84375 50.355469 -2.703125 L 50.355469 -112.882812 L 69.960938 -112.882812 C 71.816406 -112.882812 72.664062 -113.894531 72.664062 -115.585938 L 72.664062 -132.484375 C 72.664062 -134.171875 71.816406 -135.1875 69.960938 -135.1875 Z M 7.773438 -135.1875 "/></g></g></g><g fill="#ffffff" fill-opacity="1"><g transform="translate(1308.308746, 595.038863)"><g><path d="M 11.152344 -135.1875 C 9.292969 -135.1875 8.449219 -134.171875 8.449219 -132.484375 L 8.449219 -2.703125 C 8.449219 -1.015625 9.292969 0 11.152344 0 L 28.726562 0 C 30.417969 0 31.429688 -1.015625 31.429688 -2.703125 L 31.429688 -132.484375 C 31.429688 -134.171875 30.417969 -135.1875 28.726562 -135.1875 Z M 11.152344 -135.1875 "/></g></g></g><g fill="#ffffff" fill-opacity="1"><g transform="translate(1344.805131, 595.038863)"><g><path d="M 8.449219 -24.332031 C 8.449219 -8.449219 16.898438 0 32.78125 0 L 51.710938 0 C 67.59375 0 76.042969 -8.449219 76.042969 -24.332031 L 76.042969 -110.851562 C 76.042969 -126.738281 67.59375 -135.1875 51.710938 -135.1875 L 32.78125 -135.1875 C 16.898438 -135.1875 8.449219 -126.738281 8.449219 -110.851562 Z M 37.683594 -21.800781 C 33.289062 -21.800781 30.925781 -23.996094 30.925781 -28.558594 L 30.925781 -106.628906 C 30.925781 -111.023438 33.289062 -113.386719 37.683594 -113.386719 L 47.484375 -113.386719 C 51.878906 -113.386719 54.242188 -111.023438 54.242188 -106.628906 L 54.242188 -28.558594 C 54.242188 -23.996094 51.878906 -21.800781 47.484375 -21.800781 Z M 37.683594 -21.800781 "/></g></g></g><g fill="#ffffff" fill-opacity="1"><g transform="translate(1425.909189, 595.038863)"><g><path d="M 60.328125 -135.1875 C 58.46875 -135.1875 57.625 -134.171875 57.625 -132.484375 L 57.625 -61.171875 L 56.609375 -61.171875 L 30.925781 -132.988281 C 30.417969 -134.511719 29.402344 -135.1875 27.882812 -135.1875 L 11.152344 -135.1875 C 9.464844 -135.1875 8.449219 -134.171875 8.449219 -132.484375 L 8.449219 -2.703125 C 8.449219 -1.015625 9.464844 0 11.152344 0 L 28.726562 0 C 30.585938 0 31.429688 -1.015625 31.429688 -2.703125 L 31.429688 -74.351562 L 32.277344 -74.351562 L 58.128906 -2.195312 C 58.636719 -0.675781 59.652344 0 61.171875 0 L 77.902344 0 C 79.589844 0 80.605469 -1.015625 80.605469 -2.703125 L 80.605469 -132.484375 C 80.605469 -134.171875 79.589844 -135.1875 77.902344 -135.1875 Z M 60.328125 -135.1875 "/></g></g></g><g clip-path="url(#c226fa57bf)"><path fill="#ffffff" d="M 911.660156 186.890625 L 911.660156 159.972656 L 896.539062 159.972656 L 896.539062 186.890625 C 896.539062 198.3125 905.9375 207.691406 917.378906 207.691406 L 935.359375 207.691406 C 946.800781 207.691406 956.199219 198.3125 956.199219 186.890625 L 956.199219 159.972656 L 941.082031 159.972656 L 941.082031 186.890625 C 941.082031 189.746094 938.628906 192.601562 935.359375 192.601562 L 917.378906 192.601562 C 914.109375 192.601562 911.660156 190.152344 911.660156 186.890625 Z M 911.660156 186.890625 " fill-opacity="1" fill-rule="nonzero"/></g><path fill="#ffffff" d="M 933.726562 218.703125 L 918.605469 218.703125 L 918.605469 257.453125 L 894.496094 277.4375 L 904.304688 289.265625 L 933.726562 264.792969 Z M 933.726562 218.703125 " fill-opacity="1" fill-rule="nonzero"/><g clip-path="url(#e9da1357ff)"><path fill="#ffffff" d="M 617.433594 207.691406 L 635.414062 207.691406 C 646.859375 207.691406 656.257812 198.3125 656.257812 186.890625 L 656.257812 159.972656 L 641.136719 159.972656 L 641.136719 186.890625 C 641.136719 189.746094 638.683594 192.601562 635.414062 192.601562 L 617.433594 192.601562 C 614.574219 192.601562 611.714844 190.152344 611.714844 186.890625 L 611.714844 159.972656 L 596.59375 159.972656 L 596.59375 186.890625 C 596.59375 198.3125 605.992188 207.691406 617.433594 207.691406 Z M 617.433594 207.691406 " fill-opacity="1" fill-rule="nonzero"/></g><path fill="#ffffff" d="M 619.070312 218.703125 L 619.070312 264.792969 L 648.492188 289.265625 L 658.300781 277.4375 L 634.191406 257.453125 L 634.191406 218.703125 Z M 619.070312 218.703125 " fill-opacity="1" fill-rule="nonzero"/><g clip-path="url(#03e2c7c7c0)"><path fill="#ffffff" d="M 887.957031 367.574219 C 888.367188 366.757812 888.367188 366.351562 888.367188 366.351562 C 888.367188 366.351562 889.183594 364.71875 889.59375 362.273438 C 889.59375 361.863281 889.59375 361.863281 890 361.457031 L 907.980469 365.535156 C 907.980469 365.535156 907.980469 365.128906 908.390625 364.71875 C 908.390625 363.902344 908.796875 363.089844 908.796875 361.863281 C 908.796875 360.640625 909.207031 359.417969 909.207031 358.195312 C 909.207031 356.96875 909.207031 355.339844 909.617188 353.707031 C 909.617188 352.890625 909.617188 352.484375 909.617188 351.667969 C 909.617188 351.261719 909.617188 350.445312 909.617188 350.035156 C 909.617188 349.222656 909.617188 347.996094 909.617188 347.179688 C 909.617188 345.550781 909.617188 344.328125 909.617188 344.328125 L 891.226562 344.328125 C 891.226562 343.917969 891.226562 343.511719 891.226562 343.511719 C 891.226562 341.0625 891.226562 339.023438 891.226562 339.023438 C 891.226562 339.023438 891.226562 338.617188 891.226562 337.800781 C 891.226562 336.984375 891.226562 336.167969 890.816406 334.539062 C 890.816406 334.128906 890.816406 333.722656 890.816406 333.722656 L 909.207031 330.867188 C 909.207031 330.867188 909.207031 330.460938 909.207031 329.644531 C 909.207031 328.828125 908.796875 328.011719 908.796875 326.789062 C 908.390625 324.75 907.574219 321.484375 906.347656 319.039062 C 904.304688 313.328125 901.035156 308.433594 901.035156 308.433594 L 885.097656 318.222656 C 883.460938 315.777344 882.238281 313.738281 882.238281 313.738281 C 882.238281 313.738281 881.828125 313.328125 881.417969 312.921875 C 881.011719 312.511719 880.191406 311.695312 879.375 310.472656 C 879.375 310.066406 878.96875 310.066406 878.558594 309.65625 L 891.636719 296.605469 C 891.636719 296.605469 887.546875 292.527344 882.644531 288.855469 C 877.742188 285.59375 872.019531 283.148438 872.019531 283.148438 L 864.664062 300.277344 C 864.257812 300.277344 864.257812 299.871094 863.847656 299.871094 C 862.621094 299.460938 861.804688 299.054688 860.988281 298.644531 C 860.167969 298.238281 859.761719 298.238281 859.761719 298.238281 C 859.761719 298.238281 858.125 297.828125 855.675781 297.015625 C 855.265625 297.015625 854.855469 297.015625 854.855469 297.015625 L 858.125 278.660156 C 858.125 278.660156 856.492188 278.253906 854.449219 278.253906 C 853.222656 278.253906 851.996094 278.253906 850.769531 277.84375 C 849.953125 277.84375 849.136719 277.84375 848.726562 277.84375 C 847.910156 277.84375 847.09375 277.84375 846.683594 277.84375 C 842.1875 277.84375 838.101562 277.84375 838.101562 277.84375 L 838.101562 296.199219 C 834.832031 296.199219 832.789062 296.199219 832.789062 296.199219 L 827.476562 296.199219 L 827.476562 277.84375 L 810.316406 277.84375 L 810.316406 296.199219 L 799.691406 296.199219 L 799.691406 277.84375 L 782.527344 277.84375 L 782.527344 296.199219 L 771.902344 296.199219 L 771.902344 277.84375 L 754.738281 277.84375 L 754.738281 296.199219 L 747.792969 297.421875 L 742.480469 297.421875 L 742.480469 279.066406 L 725.316406 279.066406 L 725.316406 297.421875 L 720.003906 297.421875 C 720.003906 297.421875 717.960938 297.421875 714.691406 297.421875 L 714.691406 279.066406 C 714.691406 279.066406 710.199219 279.066406 706.109375 279.066406 C 699.980469 279.066406 694.261719 280.292969 694.261719 280.292969 L 697.9375 298.238281 C 695.078125 298.644531 693.035156 299.460938 693.035156 299.460938 C 693.035156 299.460938 691.398438 299.867188 688.949219 301.09375 C 688.539062 301.09375 688.539062 301.5 688.128906 301.5 L 680.367188 284.777344 C 680.367188 284.777344 679.140625 285.59375 677.097656 286.410156 C 675.054688 287.632812 672.601562 288.855469 670.148438 290.894531 C 668.925781 291.710938 667.699219 292.527344 666.472656 293.75 C 665.246094 294.566406 664.429688 295.382812 663.613281 296.199219 C 661.976562 297.828125 660.75 298.644531 660.75 298.644531 L 674.238281 311.289062 C 673.828125 311.695312 673.828125 311.695312 673.417969 312.105469 C 671.785156 314.144531 670.558594 315.367188 670.558594 315.367188 C 670.558594 315.367188 670.148438 315.777344 669.742188 316.183594 C 669.332031 316.589844 668.515625 317.816406 668.105469 318.628906 C 668.105469 319.039062 667.699219 319.039062 667.699219 319.445312 L 651.761719 310.066406 C 651.761719 310.066406 648.492188 315.367188 646.859375 321.078125 C 645.632812 323.933594 645.222656 326.789062 644.8125 329.234375 C 644.40625 331.273438 644.40625 332.90625 644.40625 332.90625 L 662.792969 335.351562 C 661.976562 338.617188 661.976562 341.0625 661.976562 341.0625 C 661.976562 341.0625 661.976562 342.695312 661.976562 345.550781 C 661.976562 345.957031 661.976562 346.367188 661.976562 346.367188 L 643.589844 346.367188 C 643.589844 346.367188 643.589844 347.589844 643.589844 349.21875 C 643.589844 350.035156 643.589844 350.851562 643.589844 352.074219 C 643.589844 352.484375 643.589844 353.300781 643.589844 353.707031 C 643.589844 354.523438 643.589844 355.339844 643.589844 355.746094 C 643.589844 361.863281 645.222656 367.574219 645.222656 367.574219 L 663.203125 363.089844 C 663.203125 363.496094 663.203125 363.902344 663.613281 363.902344 C 664.019531 365.128906 664.019531 366.351562 664.429688 366.757812 C 664.835938 367.574219 664.835938 367.984375 664.835938 367.984375 C 664.835938 367.984375 664.835938 368.390625 665.246094 369.207031 C 665.65625 370.023438 666.0625 370.835938 666.472656 372.0625 C 666.472656 372.46875 666.882812 372.46875 666.882812 372.875 L 650.535156 381.441406 C 650.535156 381.441406 653.394531 386.746094 657.074219 391.636719 C 658.707031 394.085938 661.160156 396.125 662.386719 397.757812 C 664.019531 399.386719 665.246094 400.203125 665.246094 400.203125 L 677.503906 386.335938 C 677.914062 386.746094 677.914062 386.746094 678.324219 387.152344 C 680.367188 388.785156 681.59375 389.597656 681.59375 389.597656 C 681.59375 389.597656 683.226562 390.824219 686.085938 392.453125 L 677.503906 408.769531 C 677.503906 408.769531 682.816406 411.625 688.539062 413.253906 C 691.398438 414.070312 694.261719 414.886719 696.710938 414.886719 C 698.753906 415.292969 700.390625 415.292969 700.390625 415.292969 L 702.433594 396.941406 C 702.839844 396.941406 703.25 396.941406 703.25 396.941406 C 705.703125 396.941406 707.746094 396.941406 707.746094 396.941406 L 713.058594 396.941406 L 713.058594 415.292969 L 730.222656 415.292969 L 730.222656 396.941406 L 740.84375 396.941406 L 740.84375 415.292969 L 758.007812 415.292969 L 758.007812 396.941406 L 768.632812 396.941406 L 768.632812 415.292969 L 785.796875 415.292969 L 785.796875 396.941406 L 796.421875 396.941406 L 796.421875 415.292969 L 813.585938 415.292969 L 813.585938 396.941406 L 824.207031 396.941406 L 824.207031 415.292969 L 841.371094 415.292969 L 841.371094 396.941406 L 846.683594 396.941406 C 846.683594 396.941406 848.320312 396.941406 850.769531 396.53125 C 851.179688 396.53125 851.589844 396.53125 851.589844 396.53125 L 854.039062 414.886719 C 854.039062 414.886719 860.167969 414.070312 865.890625 412.441406 C 871.613281 410.398438 876.925781 407.546875 876.925781 407.546875 L 867.933594 391.230469 C 868.34375 391.230469 868.34375 390.824219 868.75 390.824219 C 869.976562 390.007812 870.792969 389.597656 871.203125 389.191406 C 871.613281 388.785156 872.019531 388.375 872.019531 388.375 C 872.019531 388.375 873.65625 387.152344 876.105469 385.113281 L 888.773438 398.570312 C 888.773438 398.570312 890 397.757812 891.636719 396.125 C 893.269531 394.492188 895.3125 392.453125 896.949219 390.007812 C 900.625 385.113281 903.078125 379.808594 903.078125 379.808594 L 886.324219 371.652344 C 886.324219 371.246094 886.730469 371.246094 886.730469 370.835938 C 887.546875 369.613281 887.957031 368.390625 887.957031 367.574219 Z M 873.65625 352.890625 C 873.65625 354.929688 873.246094 356.96875 872.835938 358.601562 C 872.429688 360.234375 872.019531 361.046875 872.019531 361.046875 C 872.019531 361.046875 870.792969 365.128906 867.933594 368.390625 C 865.480469 372.0625 861.804688 374.507812 861.804688 374.507812 C 861.804688 374.507812 861.394531 374.507812 861.394531 374.917969 C 860.988281 375.324219 860.578125 375.324219 859.761719 375.730469 C 858.535156 376.546875 856.492188 377.363281 854.449219 378.179688 C 853.632812 378.585938 852.40625 378.585938 851.589844 378.996094 C 850.769531 378.996094 849.546875 379.402344 848.726562 379.402344 C 847.09375 379.402344 846.277344 379.402344 846.277344 379.402344 L 707.335938 379.402344 C 706.929688 379.402344 706.109375 379.402344 704.476562 379.402344 C 702.839844 379.402344 700.796875 378.996094 698.753906 378.179688 C 694.667969 376.957031 690.992188 374.507812 690.992188 374.507812 C 690.992188 374.507812 690.171875 373.691406 688.949219 372.875 C 687.722656 371.652344 686.085938 370.429688 684.863281 368.796875 C 684.042969 367.984375 683.636719 367.167969 683.226562 366.351562 C 682.816406 365.535156 682.410156 364.71875 682 363.902344 C 681.59375 363.089844 681.183594 362.679688 681.183594 362.273438 C 681.183594 361.863281 680.773438 361.457031 680.773438 361.457031 C 680.773438 361.457031 680.773438 361.046875 680.367188 360.640625 C 679.957031 360.234375 679.957031 359.417969 679.957031 359.007812 C 679.550781 358.195312 679.550781 357.378906 679.550781 356.5625 C 679.140625 355.746094 679.140625 354.523438 679.140625 353.300781 C 679.140625 352.484375 679.140625 350.445312 679.140625 348.8125 C 679.140625 347.179688 679.140625 345.550781 679.140625 344.328125 C 679.140625 343.101562 679.140625 341.878906 679.140625 341.0625 C 679.140625 340.65625 679.140625 340.246094 679.140625 340.246094 C 679.140625 340.246094 679.140625 336.167969 680.773438 332.089844 C 682 328.011719 684.863281 324.75 684.863281 324.75 C 684.863281 324.75 685.269531 323.933594 686.496094 322.710938 C 686.90625 321.894531 687.722656 321.484375 688.539062 320.671875 C 689.355469 319.855469 690.171875 319.445312 690.992188 318.628906 C 691.808594 317.816406 692.625 317.40625 693.441406 317 C 694.261719 316.589844 695.078125 316.183594 695.894531 315.777344 C 697.53125 315.367188 698.347656 314.960938 698.347656 314.960938 C 698.347656 314.960938 702.433594 313.738281 706.519531 313.738281 C 713.464844 313.738281 720.414062 313.738281 720.414062 313.738281 L 831.566406 313.738281 C 831.566406 313.738281 838.511719 313.738281 845.457031 313.738281 C 846.683594 313.738281 847.910156 313.738281 848.726562 313.738281 C 849.546875 313.738281 850.769531 314.144531 851.589844 314.144531 C 853.222656 314.550781 854.039062 314.960938 854.039062 314.960938 C 854.039062 314.960938 854.855469 315.367188 856.492188 315.777344 C 857.308594 316.183594 858.125 316.589844 858.945312 317 C 859.761719 317.40625 860.578125 318.222656 861.394531 318.628906 C 863.03125 319.855469 864.664062 321.078125 865.890625 322.300781 C 866.300781 322.710938 866.707031 323.523438 867.117188 323.523438 C 867.523438 323.933594 867.523438 323.933594 867.523438 323.933594 C 867.523438 323.933594 870.386719 327.195312 871.613281 331.273438 C 873.246094 335.351562 873.246094 339.433594 873.246094 339.433594 C 873.246094 339.433594 873.246094 339.839844 873.246094 340.246094 C 873.246094 340.65625 873.246094 341.878906 873.246094 343.101562 C 873.246094 344.328125 873.246094 345.957031 873.246094 347.589844 C 873.246094 348.40625 873.246094 349.21875 873.246094 350.035156 L 873.246094 351.261719 Z M 873.65625 352.890625 " fill-opacity="1" fill-rule="nonzero"/></g><path fill="#ffffff" d="M 719.640625 342.96875 C 719.914062 343.667969 720.121094 344.386719 720.253906 345.121094 C 720.390625 345.859375 720.453125 346.605469 720.4375 347.355469 C 720.425781 348.105469 720.34375 348.84375 720.183594 349.578125 C 720.023438 350.3125 719.796875 351.023438 719.496094 351.710938 C 719.199219 352.398438 718.835938 353.050781 718.410156 353.667969 C 717.980469 354.285156 717.496094 354.851562 716.957031 355.375 C 716.417969 355.894531 715.832031 356.359375 715.203125 356.765625 C 714.570312 357.171875 713.90625 357.515625 713.207031 357.789062 C 712.507812 358.066406 711.789062 358.269531 711.050781 358.40625 C 710.308594 358.539062 709.566406 358.601562 708.8125 358.589844 C 708.0625 358.578125 707.320312 358.492188 706.585938 358.332031 C 705.851562 358.175781 705.140625 357.945312 704.449219 357.648438 C 703.761719 357.351562 703.105469 356.988281 702.488281 356.5625 C 701.871094 356.136719 701.300781 355.652344 700.777344 355.113281 C 700.253906 354.574219 699.789062 353.992188 699.382812 353.359375 C 698.976562 352.730469 698.632812 352.066406 698.359375 351.371094 C 698.082031 350.671875 697.875 349.953125 697.742188 349.214844 C 697.605469 348.480469 697.546875 347.734375 697.558594 346.984375 C 697.570312 346.234375 697.65625 345.496094 697.8125 344.761719 C 697.972656 344.027344 698.199219 343.316406 698.5 342.628906 C 698.796875 341.941406 699.160156 341.289062 699.589844 340.671875 C 700.015625 340.054688 700.5 339.488281 701.039062 338.964844 C 701.578125 338.445312 702.164062 337.980469 702.796875 337.574219 C 703.425781 337.167969 704.09375 336.824219 704.792969 336.550781 C 705.488281 336.273438 706.207031 336.070312 706.949219 335.933594 C 707.6875 335.800781 708.433594 335.738281 709.183594 335.75 C 709.933594 335.761719 710.675781 335.847656 711.410156 336.007812 C 712.144531 336.164062 712.859375 336.394531 713.546875 336.691406 C 714.238281 336.988281 714.890625 337.351562 715.507812 337.777344 C 716.125 338.203125 716.695312 338.6875 717.21875 339.226562 C 717.742188 339.765625 718.207031 340.347656 718.613281 340.980469 C 719.019531 341.609375 719.363281 342.273438 719.640625 342.96875 Z M 719.640625 342.96875 " fill-opacity="1" fill-rule="nonzero"/><path fill="#ffffff" d="M 856.871094 339.328125 C 857.148438 340.023438 857.355469 340.742188 857.488281 341.480469 C 857.625 342.21875 857.683594 342.960938 857.671875 343.710938 C 857.660156 344.460938 857.574219 345.203125 857.417969 345.933594 C 857.257812 346.667969 857.03125 347.378906 856.730469 348.066406 C 856.433594 348.753906 856.070312 349.40625 855.640625 350.023438 C 855.214844 350.640625 854.730469 351.210938 854.191406 351.730469 C 853.652344 352.253906 853.066406 352.71875 852.433594 353.125 C 851.804688 353.53125 851.136719 353.871094 850.441406 354.148438 C 849.742188 354.421875 849.023438 354.628906 848.28125 354.761719 C 847.542969 354.894531 846.796875 354.957031 846.046875 354.945312 C 845.296875 354.933594 844.554688 354.847656 843.820312 354.691406 C 843.085938 354.53125 842.371094 354.304688 841.683594 354.003906 C 840.992188 353.707031 840.339844 353.34375 839.722656 352.917969 C 839.105469 352.492188 838.535156 352.007812 838.011719 351.46875 C 837.488281 350.933594 837.023438 350.347656 836.617188 349.71875 C 836.210938 349.085938 835.867188 348.421875 835.589844 347.726562 C 835.316406 347.027344 835.109375 346.3125 834.976562 345.574219 C 834.839844 344.835938 834.78125 344.09375 834.792969 343.34375 C 834.804688 342.59375 834.890625 341.851562 835.046875 341.117188 C 835.207031 340.386719 835.433594 339.675781 835.734375 338.988281 C 836.03125 338.296875 836.394531 337.644531 836.820312 337.03125 C 837.25 336.414062 837.734375 335.84375 838.273438 335.320312 C 838.8125 334.800781 839.398438 334.335938 840.03125 333.929688 C 840.660156 333.523438 841.324219 333.183594 842.023438 332.90625 C 842.722656 332.632812 843.441406 332.425781 844.179688 332.292969 C 844.921875 332.15625 845.664062 332.097656 846.417969 332.109375 C 847.167969 332.121094 847.910156 332.207031 848.644531 332.363281 C 849.378906 332.523438 850.089844 332.75 850.78125 333.046875 C 851.46875 333.347656 852.125 333.707031 852.742188 334.136719 C 853.359375 334.5625 853.929688 335.042969 854.453125 335.582031 C 854.976562 336.121094 855.441406 336.707031 855.847656 337.335938 C 856.253906 337.964844 856.597656 338.628906 856.871094 339.328125 Z M 856.871094 339.328125 " fill-opacity="1" fill-rule="nonzero"/><path fill="#ffffff" d="M 788.226562 341.375 C 788.5 342.074219 788.707031 342.792969 788.839844 343.527344 C 788.976562 344.265625 789.039062 345.011719 789.027344 345.761719 C 789.011719 346.511719 788.929688 347.25 788.769531 347.984375 C 788.609375 348.71875 788.382812 349.429688 788.082031 350.117188 C 787.785156 350.804688 787.421875 351.457031 786.996094 352.074219 C 786.566406 352.691406 786.082031 353.257812 785.542969 353.78125 C 785.003906 354.300781 784.417969 354.765625 783.789062 355.171875 C 783.15625 355.578125 782.492188 355.921875 781.792969 356.195312 C 781.09375 356.472656 780.375 356.675781 779.636719 356.8125 C 778.898438 356.945312 778.152344 357.007812 777.398438 356.996094 C 776.648438 356.984375 775.90625 356.898438 775.171875 356.738281 C 774.4375 356.582031 773.726562 356.351562 773.035156 356.054688 C 772.347656 355.757812 771.691406 355.394531 771.074219 354.96875 C 770.457031 354.542969 769.886719 354.058594 769.363281 353.519531 C 768.84375 352.980469 768.378906 352.398438 767.96875 351.765625 C 767.5625 351.136719 767.222656 350.472656 766.945312 349.773438 C 766.667969 349.078125 766.460938 348.359375 766.328125 347.621094 C 766.195312 346.886719 766.132812 346.140625 766.144531 345.390625 C 766.15625 344.640625 766.242188 343.898438 766.398438 343.167969 C 766.558594 342.433594 766.789062 341.722656 767.085938 341.035156 C 767.382812 340.347656 767.746094 339.695312 768.175781 339.078125 C 768.601562 338.460938 769.085938 337.894531 769.625 337.371094 C 770.164062 336.851562 770.75 336.386719 771.382812 335.980469 C 772.015625 335.574219 772.679688 335.230469 773.378906 334.957031 C 774.074219 334.679688 774.796875 334.476562 775.535156 334.339844 C 776.273438 334.207031 777.019531 334.144531 777.769531 334.15625 C 778.519531 334.167969 779.261719 334.253906 779.996094 334.414062 C 780.730469 334.570312 781.445312 334.800781 782.132812 335.097656 C 782.824219 335.394531 783.476562 335.757812 784.09375 336.183594 C 784.710938 336.609375 785.28125 337.09375 785.804688 337.632812 C 786.328125 338.171875 786.792969 338.753906 787.199219 339.386719 C 787.605469 340.015625 787.949219 340.679688 788.226562 341.375 Z M 788.226562 341.375 " fill-opacity="1" fill-rule="nonzero"/><g clip-path="url(#85b7002e1d)"><path fill="#ffffff" d="M 703.660156 115.515625 L 703.660156 146.511719 C 703.25 146.511719 702.433594 146.511719 702.023438 146.511719 L 694.667969 146.511719 C 685.269531 146.511719 677.914062 153.855469 677.914062 163.234375 L 677.914062 198.3125 C 677.914062 207.691406 685.269531 215.035156 694.667969 215.035156 L 701.617188 215.035156 C 702.023438 215.035156 702.839844 215.035156 703.25 215.035156 L 703.25 253.78125 L 768.632812 253.78125 L 768.632812 265.609375 L 783.753906 265.609375 L 783.753906 253.78125 L 849.136719 253.78125 L 849.136719 215.035156 C 849.542969 215.035156 850.363281 215.035156 850.769531 215.035156 L 858.125 215.035156 C 867.523438 215.035156 874.878906 207.691406 874.878906 198.3125 L 874.878906 163.234375 C 874.878906 153.855469 867.523438 146.511719 858.125 146.511719 L 851.179688 146.511719 C 850.769531 146.511719 849.953125 146.511719 849.542969 146.511719 L 849.542969 115.515625 L 784.160156 115.515625 L 784.160156 99.609375 C 794.785156 96.34375 802.550781 86.554688 802.550781 74.726562 C 802.550781 60.453125 790.699219 48.625 776.398438 48.625 C 762.09375 48.625 750.246094 60.453125 750.246094 74.726562 C 750.246094 86.554688 758.007812 96.34375 768.632812 99.609375 L 768.632812 115.515625 Z M 703.25 197.902344 C 703.25 198.71875 702.433594 199.125 702.023438 199.125 L 694.667969 199.125 C 693.851562 199.125 693.441406 198.3125 693.441406 197.902344 L 693.441406 162.828125 C 693.441406 162.011719 694.261719 161.601562 694.667969 161.601562 L 701.617188 161.601562 C 702.433594 161.601562 702.839844 162.417969 702.839844 162.828125 L 702.839844 197.902344 Z M 849.542969 163.234375 C 849.542969 162.417969 850.363281 162.011719 850.769531 162.011719 L 858.125 162.011719 C 858.945312 162.011719 859.351562 162.828125 859.351562 163.234375 L 859.351562 198.3125 C 859.351562 199.125 858.535156 199.535156 858.125 199.535156 L 851.179688 199.535156 C 850.363281 199.535156 849.953125 198.71875 849.953125 198.3125 L 849.953125 163.234375 Z M 765.773438 74.726562 C 765.773438 68.609375 770.675781 64.125 776.398438 64.125 C 782.117188 64.125 787.023438 69.019531 787.023438 74.726562 C 787.023438 80.4375 782.527344 85.332031 776.398438 85.332031 C 770.269531 85.332031 765.773438 80.4375 765.773438 74.726562 Z M 834.015625 130.605469 L 834.015625 237.875 L 718.777344 237.875 L 718.777344 130.605469 Z M 834.015625 130.605469 " fill-opacity="1" fill-rule="nonzero"/></g><path fill="#ffffff" d="M 751.46875 196.273438 C 762.09375 196.273438 770.675781 187.707031 770.675781 177.101562 C 770.675781 166.496094 762.09375 157.933594 751.46875 157.933594 C 740.84375 157.933594 732.265625 166.496094 732.265625 177.101562 C 731.855469 187.296875 740.84375 196.273438 751.46875 196.273438 Z M 751.46875 168.945312 C 755.964844 168.945312 759.234375 172.617188 759.234375 176.695312 C 759.234375 181.179688 755.558594 184.445312 751.46875 184.445312 C 746.976562 184.445312 743.707031 180.773438 743.707031 176.695312 C 743.296875 172.617188 746.976562 168.945312 751.46875 168.945312 Z M 751.46875 168.945312 " fill-opacity="1" fill-rule="nonzero"/><path fill="#ffffff" d="M 801.324219 196.273438 C 811.949219 196.273438 820.53125 187.707031 820.53125 177.101562 C 820.53125 166.496094 811.949219 157.933594 801.324219 157.933594 C 790.699219 157.933594 782.117188 166.496094 782.117188 177.101562 C 782.117188 187.296875 790.699219 196.273438 801.324219 196.273438 Z M 801.324219 168.945312 C 805.820312 168.945312 809.089844 172.617188 809.089844 176.695312 C 809.089844 181.179688 805.410156 184.445312 801.324219 184.445312 C 796.828125 184.445312 793.5625 180.773438 793.5625 176.695312 C 793.5625 172.617188 797.238281 168.945312 801.324219 168.945312 Z M 801.324219 168.945312 " fill-opacity="1" fill-rule="nonzero"/><g clip-path="url(#fac0ef8950)"><path fill="#ffffff" d="M 573.0625 370.789062 L 62.476562 370.789062 C 52.40625 370.789062 44.242188 379.050781 44.242188 389.242188 C 44.242188 399.433594 52.40625 407.695312 62.476562 407.695312 L 573.0625 407.695312 C 583.132812 407.695312 591.300781 399.433594 591.300781 389.242188 C 591.300781 379.050781 583.132812 370.789062 573.0625 370.789062 Z M 573.0625 370.789062 " fill-opacity="1" fill-rule="nonzero"/></g><g clip-path="url(#7a3bb8b6a3)"><path fill="#ffffff" d="M 1489.894531 370.789062 L 979.308594 370.789062 C 969.238281 370.789062 961.074219 379.050781 961.074219 389.242188 C 961.074219 399.433594 969.238281 407.695312 979.308594 407.695312 L 1489.894531 407.695312 C 1499.964844 407.695312 1508.128906 399.433594 1508.128906 389.242188 C 1508.128906 379.050781 1499.964844 370.789062 1489.894531 370.789062 Z M 1489.894531 370.789062 " fill-opacity="1" fill-rule="nonzero"/></g><g fill="#ffffff" fill-opacity="1"><g transform="translate(80.841313, 696.485792)"><g><path d="M 14.328125 0 L 7.546875 0 L 1.453125 -44.359375 L 6.28125 -44.359375 L 11.46875 -6.59375 L 16.421875 -44.296875 L 21.296875 -44.296875 L 26.171875 -6.53125 L 31.1875 -44.359375 L 35.484375 -44.359375 L 29.46875 0 L 22.9375 0 L 18.703125 -30.109375 Z M 14.328125 0 "/></g></g></g><g fill="#ffffff" fill-opacity="1"><g transform="translate(117.791199, 696.485792)"><g><path d="M 7.484375 -19.96875 L 7.484375 0 L 2.53125 0 L 2.53125 -44.359375 L 7.484375 -44.359375 L 7.484375 -24.40625 L 18.375 -24.40625 L 18.375 -44.359375 L 23.328125 -44.359375 L 23.328125 0 L 18.375 0 L 18.375 -19.96875 Z M 7.484375 -19.96875 "/></g></g></g><g fill="#ffffff" fill-opacity="1"><g transform="translate(143.649791, 696.485792)"><g><path d="M 10.390625 -15.90625 L 1.015625 -44.359375 L 6.140625 -44.359375 L 13.0625 -22.5625 L 20.03125 -44.359375 L 24.71875 -44.359375 L 15.265625 -15.90625 L 15.265625 0 L 10.390625 0 Z M 10.390625 -15.90625 "/></g></g></g><g fill="#ffffff" fill-opacity="1"><g transform="translate(169.381635, 696.485792)"><g/></g></g><g fill="#ffffff" fill-opacity="1"><g transform="translate(179.205386, 696.485792)"><g><path d="M 11.84375 -44.8125 C 15.226562 -44.8125 17.722656 -43.804688 19.328125 -41.796875 C 20.929688 -39.785156 21.734375 -37.09375 21.734375 -33.71875 L 21.734375 -32.515625 L 17.046875 -32.515625 L 17.046875 -33.96875 C 17.046875 -36 16.644531 -37.5625 15.84375 -38.65625 C 15.039062 -39.757812 13.753906 -40.3125 11.984375 -40.3125 C 10.203125 -40.3125 8.910156 -39.757812 8.109375 -38.65625 C 7.304688 -37.5625 6.90625 -36.019531 6.90625 -34.03125 C 6.90625 -32.382812 7.273438 -30.945312 8.015625 -29.71875 C 8.753906 -28.5 9.671875 -27.367188 10.765625 -26.328125 C 11.867188 -25.296875 13.0625 -24.28125 14.34375 -23.28125 C 15.632812 -22.289062 16.828125 -21.203125 17.921875 -20.015625 C 19.023438 -18.835938 19.945312 -17.5 20.6875 -16 C 21.425781 -14.5 21.796875 -12.710938 21.796875 -10.640625 C 21.796875 -7.265625 20.984375 -4.570312 19.359375 -2.5625 C 17.734375 -0.5625 15.207031 0.4375 11.78125 0.4375 C 8.363281 0.4375 5.851562 -0.5625 4.25 -2.5625 C 2.644531 -4.570312 1.84375 -7.265625 1.84375 -10.640625 L 1.84375 -13.1875 L 6.46875 -13.1875 L 6.46875 -10.390625 C 6.46875 -8.359375 6.890625 -6.796875 7.734375 -5.703125 C 8.578125 -4.609375 9.882812 -4.0625 11.65625 -4.0625 C 13.4375 -4.0625 14.75 -4.609375 15.59375 -5.703125 C 16.4375 -6.796875 16.859375 -8.359375 16.859375 -10.390625 C 16.859375 -12.035156 16.488281 -13.460938 15.75 -14.671875 C 15.007812 -15.878906 14.085938 -17 12.984375 -18.03125 C 11.890625 -19.0625 10.707031 -20.070312 9.4375 -21.0625 C 8.175781 -22.0625 6.992188 -23.148438 5.890625 -24.328125 C 4.796875 -25.515625 3.878906 -26.859375 3.140625 -28.359375 C 2.398438 -29.859375 2.03125 -31.644531 2.03125 -33.71875 C 2.03125 -37.132812 2.832031 -39.835938 4.4375 -41.828125 C 6.039062 -43.816406 8.507812 -44.8125 11.84375 -44.8125 Z M 11.84375 -44.8125 "/></g></g></g><g fill="#ffffff" fill-opacity="1"><g transform="translate(202.782326, 696.485792)"><g><path d="M 12.234375 -44.359375 C 15.734375 -44.359375 18.265625 -43.394531 19.828125 -41.46875 C 21.398438 -39.550781 22.1875 -36.90625 22.1875 -33.53125 L 22.1875 -28.203125 C 22.1875 -24.648438 21.347656 -21.972656 19.671875 -20.171875 C 18.003906 -18.378906 15.394531 -17.484375 11.84375 -17.484375 L 7.484375 -17.484375 L 7.484375 0 L 2.53125 0 L 2.53125 -44.359375 Z M 11.84375 -21.921875 C 13.707031 -21.921875 15.082031 -22.375 15.96875 -23.28125 C 16.851562 -24.195312 17.296875 -25.734375 17.296875 -27.890625 L 17.296875 -33.78125 C 17.296875 -35.8125 16.90625 -37.332031 16.125 -38.34375 C 15.34375 -39.351562 14.046875 -39.859375 12.234375 -39.859375 L 7.484375 -39.859375 L 7.484375 -21.921875 Z M 11.84375 -21.921875 "/></g></g></g><g fill="#ffffff" fill-opacity="1"><g transform="translate(226.295863, 696.485792)"><g><path d="M 18.3125 -24.71875 L 18.3125 -20.28125 L 7.484375 -20.28125 L 7.484375 -4.5 L 20.78125 -4.5 L 20.78125 0 L 2.53125 0 L 2.53125 -44.359375 L 20.78125 -44.359375 L 20.78125 -39.859375 L 7.484375 -39.859375 L 7.484375 -24.71875 Z M 18.3125 -24.71875 "/></g></g></g><g fill="#ffffff" fill-opacity="1"><g transform="translate(249.112253, 696.485792)"><g><path d="M 6.90625 0 L 2.46875 0 L 2.46875 -44.359375 L 8.75 -44.359375 L 19.015625 -12.296875 L 19.015625 -44.359375 L 23.390625 -44.359375 L 23.390625 0 L 18.25 0 L 6.90625 -35.875 Z M 6.90625 0 "/></g></g></g><g fill="#ffffff" fill-opacity="1"><g transform="translate(275.034189, 696.485792)"><g><path d="M 12.921875 -44.359375 C 16.390625 -44.359375 18.9375 -43.375 20.5625 -41.40625 C 22.1875 -39.445312 23 -36.753906 23 -33.328125 L 23 -10.96875 C 23 -7.539062 22.1875 -4.851562 20.5625 -2.90625 C 18.9375 -0.96875 16.390625 0 12.921875 0 L 2.53125 0 L 2.53125 -44.359375 Z M 12.859375 -4.5 C 14.640625 -4.5 15.960938 -5.035156 16.828125 -6.109375 C 17.691406 -7.191406 18.125 -8.75 18.125 -10.78125 L 18.125 -33.59375 C 18.125 -35.613281 17.691406 -37.160156 16.828125 -38.234375 C 15.960938 -39.316406 14.617188 -39.859375 12.796875 -39.859375 L 7.484375 -39.859375 L 7.484375 -4.5 Z M 12.859375 -4.5 "/></g></g></g><g fill="#ffffff" fill-opacity="1"><g transform="translate(300.132231, 696.485792)"><g/></g></g><g fill="#ffffff" fill-opacity="1"><g transform="translate(309.955981, 696.485792)"><g><path d="M 12.484375 -44.8125 C 15.953125 -44.8125 18.488281 -43.796875 20.09375 -41.765625 C 21.695312 -39.734375 22.5 -37.007812 22.5 -33.59375 C 22.5 -31.351562 22.128906 -29.332031 21.390625 -27.53125 C 20.648438 -25.738281 19.71875 -24.070312 18.59375 -22.53125 C 17.476562 -20.988281 16.273438 -19.539062 14.984375 -18.1875 C 13.703125 -16.832031 12.5 -15.476562 11.375 -14.125 C 10.257812 -12.78125 9.320312 -11.378906 8.5625 -9.921875 C 7.800781 -8.460938 7.421875 -6.890625 7.421875 -5.203125 L 7.421875 -4.5 L 21.984375 -4.5 L 21.984375 0 L 2.53125 0 L 2.53125 -3.796875 C 2.53125 -6.160156 2.898438 -8.25 3.640625 -10.0625 C 4.378906 -11.882812 5.304688 -13.546875 6.421875 -15.046875 C 7.546875 -16.546875 8.753906 -17.960938 10.046875 -19.296875 C 11.335938 -20.628906 12.539062 -21.992188 13.65625 -23.390625 C 14.78125 -24.785156 15.710938 -26.285156 16.453125 -27.890625 C 17.191406 -29.492188 17.5625 -31.332031 17.5625 -33.40625 C 17.5625 -35.6875 17.15625 -37.414062 16.34375 -38.59375 C 15.539062 -39.78125 14.210938 -40.375 12.359375 -40.375 C 10.546875 -40.375 9.222656 -39.78125 8.390625 -38.59375 C 7.566406 -37.414062 7.15625 -35.832031 7.15625 -33.84375 L 7.15625 -29.90625 L 2.53125 -29.90625 L 2.53125 -33.53125 C 2.53125 -36.945312 3.332031 -39.679688 4.9375 -41.734375 C 6.539062 -43.785156 9.054688 -44.8125 12.484375 -44.8125 Z M 12.484375 -44.8125 "/></g></g></g><g fill="#ffffff" fill-opacity="1"><g transform="translate(334.483625, 696.485792)"><g/></g></g><g fill="#ffffff" fill-opacity="1"><g transform="translate(344.307376, 696.485792)"><g><path d="M 18.890625 -0.0625 L 14.125 -0.0625 L 6.78125 -35.359375 L 6.78125 0 L 2.46875 0 L 2.46875 -44.359375 L 9.375 -44.359375 L 16.671875 -8.9375 L 23.703125 -44.359375 L 30.609375 -44.359375 L 30.609375 0 L 25.921875 0 L 25.921875 -35.6875 Z M 18.890625 -0.0625 "/></g></g></g><g fill="#ffffff" fill-opacity="1"><g transform="translate(377.45451, 696.485792)"><g><path d="M 7.484375 -44.359375 L 7.484375 0 L 2.53125 0 L 2.53125 -44.359375 Z M 7.484375 -44.359375 "/></g></g></g><g fill="#ffffff" fill-opacity="1"><g transform="translate(387.468353, 696.485792)"><g><path d="M 6.90625 0 L 2.46875 0 L 2.46875 -44.359375 L 8.75 -44.359375 L 19.015625 -12.296875 L 19.015625 -44.359375 L 23.390625 -44.359375 L 23.390625 0 L 18.25 0 L 6.90625 -35.875 Z M 6.90625 0 "/></g></g></g><g fill="#ffffff" fill-opacity="1"><g transform="translate(413.390289, 696.485792)"><g><path d="M 7.21875 -10.453125 C 7.21875 -8.429688 7.628906 -6.859375 8.453125 -5.734375 C 9.285156 -4.617188 10.609375 -4.0625 12.421875 -4.0625 C 14.191406 -4.0625 15.488281 -4.617188 16.3125 -5.734375 C 17.144531 -6.859375 17.5625 -8.429688 17.5625 -10.453125 L 17.5625 -44.359375 L 22.1875 -44.359375 L 22.1875 -10.703125 C 22.1875 -7.328125 21.378906 -4.613281 19.765625 -2.5625 C 18.160156 -0.519531 15.648438 0.5 12.234375 0.5 C 8.847656 0.5 6.351562 -0.519531 4.75 -2.5625 C 3.144531 -4.613281 2.34375 -7.328125 2.34375 -10.703125 L 2.34375 -44.359375 L 7.21875 -44.359375 Z M 7.21875 -10.453125 "/></g></g></g><g fill="#ffffff" fill-opacity="1"><g transform="translate(437.917933, 696.485792)"><g><path d="M 8.9375 0 L 8.9375 -39.859375 L 0.765625 -39.859375 L 0.765625 -44.359375 L 21.984375 -44.359375 L 21.984375 -39.859375 L 13.8125 -39.859375 L 13.8125 0 Z M 8.9375 0 "/></g></g></g><g fill="#ffffff" fill-opacity="1"><g transform="translate(460.734324, 696.485792)"><g><path d="M 18.3125 -24.71875 L 18.3125 -20.28125 L 7.484375 -20.28125 L 7.484375 -4.5 L 20.78125 -4.5 L 20.78125 0 L 2.53125 0 L 2.53125 -44.359375 L 20.78125 -44.359375 L 20.78125 -39.859375 L 7.484375 -39.859375 L 7.484375 -24.71875 Z M 18.3125 -24.71875 "/></g></g></g><g fill="#ffffff" fill-opacity="1"><g transform="translate(483.550714, 696.485792)"><g><path d="M 11.84375 -44.8125 C 15.226562 -44.8125 17.722656 -43.804688 19.328125 -41.796875 C 20.929688 -39.785156 21.734375 -37.09375 21.734375 -33.71875 L 21.734375 -32.515625 L 17.046875 -32.515625 L 17.046875 -33.96875 C 17.046875 -36 16.644531 -37.5625 15.84375 -38.65625 C 15.039062 -39.757812 13.753906 -40.3125 11.984375 -40.3125 C 10.203125 -40.3125 8.910156 -39.757812 8.109375 -38.65625 C 7.304688 -37.5625 6.90625 -36.019531 6.90625 -34.03125 C 6.90625 -32.382812 7.273438 -30.945312 8.015625 -29.71875 C 8.753906 -28.5 9.671875 -27.367188 10.765625 -26.328125 C 11.867188 -25.296875 13.0625 -24.28125 14.34375 -23.28125 C 15.632812 -22.289062 16.828125 -21.203125 17.921875 -20.015625 C 19.023438 -18.835938 19.945312 -17.5 20.6875 -16 C 21.425781 -14.5 21.796875 -12.710938 21.796875 -10.640625 C 21.796875 -7.265625 20.984375 -4.570312 19.359375 -2.5625 C 17.734375 -0.5625 15.207031 0.4375 11.78125 0.4375 C 8.363281 0.4375 5.851562 -0.5625 4.25 -2.5625 C 2.644531 -4.570312 1.84375 -7.265625 1.84375 -10.640625 L 1.84375 -13.1875 L 6.46875 -13.1875 L 6.46875 -10.390625 C 6.46875 -8.359375 6.890625 -6.796875 7.734375 -5.703125 C 8.578125 -4.609375 9.882812 -4.0625 11.65625 -4.0625 C 13.4375 -4.0625 14.75 -4.609375 15.59375 -5.703125 C 16.4375 -6.796875 16.859375 -8.359375 16.859375 -10.390625 C 16.859375 -12.035156 16.488281 -13.460938 15.75 -14.671875 C 15.007812 -15.878906 14.085938 -17 12.984375 -18.03125 C 11.890625 -19.0625 10.707031 -20.070312 9.4375 -21.0625 C 8.175781 -22.0625 6.992188 -23.148438 5.890625 -24.328125 C 4.796875 -25.515625 3.878906 -26.859375 3.140625 -28.359375 C 2.398438 -29.859375 2.03125 -31.644531 2.03125 -33.71875 C 2.03125 -37.132812 2.832031 -39.835938 4.4375 -41.828125 C 6.039062 -43.816406 8.507812 -44.8125 11.84375 -44.8125 Z M 11.84375 -44.8125 "/></g></g></g><g fill="#ffffff" fill-opacity="1"><g transform="translate(507.127655, 696.485792)"><g/></g></g><g fill="#ffffff" fill-opacity="1"><g transform="translate(516.951406, 696.485792)"><g><path d="M 12.921875 -44.359375 C 16.390625 -44.359375 18.9375 -43.375 20.5625 -41.40625 C 22.1875 -39.445312 23 -36.753906 23 -33.328125 L 23 -10.96875 C 23 -7.539062 22.1875 -4.851562 20.5625 -2.90625 C 18.9375 -0.96875 16.390625 0 12.921875 0 L 2.53125 0 L 2.53125 -44.359375 Z M 12.859375 -4.5 C 14.640625 -4.5 15.960938 -5.035156 16.828125 -6.109375 C 17.691406 -7.191406 18.125 -8.75 18.125 -10.78125 L 18.125 -33.59375 C 18.125 -35.613281 17.691406 -37.160156 16.828125 -38.234375 C 15.960938 -39.316406 14.617188 -39.859375 12.796875 -39.859375 L 7.484375 -39.859375 L 7.484375 -4.5 Z M 12.859375 -4.5 "/></g></g></g><g fill="#ffffff" fill-opacity="1"><g transform="translate(542.049447, 696.485792)"><g><path d="M 2.15625 -33.65625 C 2.15625 -37.070312 2.988281 -39.785156 4.65625 -41.796875 C 6.320312 -43.804688 8.867188 -44.8125 12.296875 -44.8125 C 15.710938 -44.8125 18.265625 -43.804688 19.953125 -41.796875 C 21.648438 -39.785156 22.5 -37.070312 22.5 -33.65625 L 22.5 -10.703125 C 22.5 -7.328125 21.648438 -4.625 19.953125 -2.59375 C 18.265625 -0.570312 15.710938 0.4375 12.296875 0.4375 C 8.867188 0.4375 6.320312 -0.570312 4.65625 -2.59375 C 2.988281 -4.625 2.15625 -7.328125 2.15625 -10.703125 Z M 7.03125 -10.453125 C 7.03125 -8.429688 7.460938 -6.859375 8.328125 -5.734375 C 9.203125 -4.617188 10.523438 -4.0625 12.296875 -4.0625 C 14.109375 -4.0625 15.4375 -4.617188 16.28125 -5.734375 C 17.132812 -6.859375 17.5625 -8.429688 17.5625 -10.453125 L 17.5625 -33.90625 C 17.5625 -35.9375 17.132812 -37.507812 16.28125 -38.625 C 15.4375 -39.75 14.109375 -40.3125 12.296875 -40.3125 C 10.523438 -40.3125 9.203125 -39.75 8.328125 -38.625 C 7.460938 -37.507812 7.03125 -35.9375 7.03125 -33.90625 Z M 7.03125 -10.453125 "/></g></g></g><g fill="#ffffff" fill-opacity="1"><g transform="translate(566.70384, 696.485792)"><g><path d="M 7.484375 -44.359375 L 7.484375 0 L 2.53125 0 L 2.53125 -44.359375 Z M 7.484375 -44.359375 "/></g></g></g><g fill="#ffffff" fill-opacity="1"><g transform="translate(576.717683, 696.485792)"><g><path d="M 6.90625 0 L 2.46875 0 L 2.46875 -44.359375 L 8.75 -44.359375 L 19.015625 -12.296875 L 19.015625 -44.359375 L 23.390625 -44.359375 L 23.390625 0 L 18.25 0 L 6.90625 -35.875 Z M 6.90625 0 "/></g></g></g><g fill="#ffffff" fill-opacity="1"><g transform="translate(602.639618, 696.485792)"><g><path d="M 12.109375 -44.8125 C 15.523438 -44.8125 18.046875 -43.796875 19.671875 -41.765625 C 21.304688 -39.734375 22.125 -37.03125 22.125 -33.65625 L 22.125 -29.84375 L 17.421875 -29.84375 L 17.421875 -33.90625 C 17.421875 -35.9375 17.007812 -37.507812 16.1875 -38.625 C 15.363281 -39.75 14.046875 -40.3125 12.234375 -40.3125 C 10.453125 -40.3125 9.140625 -39.75 8.296875 -38.625 C 7.453125 -37.507812 7.03125 -35.9375 7.03125 -33.90625 L 7.03125 -10.453125 C 7.03125 -8.429688 7.453125 -6.859375 8.296875 -5.734375 C 9.140625 -4.617188 10.453125 -4.0625 12.234375 -4.0625 C 14.046875 -4.0625 15.363281 -4.617188 16.1875 -5.734375 C 17.007812 -6.859375 17.421875 -8.429688 17.421875 -10.453125 L 17.421875 -19.328125 L 12.859375 -19.328125 L 12.859375 -23.765625 L 22.125 -23.765625 L 22.125 -10.703125 C 22.125 -7.328125 21.304688 -4.625 19.671875 -2.59375 C 18.046875 -0.570312 15.523438 0.4375 12.109375 0.4375 C 8.722656 0.4375 6.21875 -0.570312 4.59375 -2.59375 C 2.96875 -4.625 2.15625 -7.328125 2.15625 -10.703125 L 2.15625 -33.65625 C 2.15625 -35.34375 2.351562 -36.875 2.75 -38.25 C 3.15625 -39.625 3.769531 -40.796875 4.59375 -41.765625 C 5.414062 -42.734375 6.445312 -43.484375 7.6875 -44.015625 C 8.9375 -44.546875 10.410156 -44.8125 12.109375 -44.8125 Z M 12.109375 -44.8125 "/></g></g></g><g fill="#ffffff" fill-opacity="1"><g transform="translate(626.913705, 696.485792)"><g/></g></g><g fill="#ffffff" fill-opacity="1"><g transform="translate(636.737456, 696.485792)"><g><path d="M 11.84375 -44.8125 C 15.226562 -44.8125 17.722656 -43.804688 19.328125 -41.796875 C 20.929688 -39.785156 21.734375 -37.09375 21.734375 -33.71875 L 21.734375 -32.515625 L 17.046875 -32.515625 L 17.046875 -33.96875 C 17.046875 -36 16.644531 -37.5625 15.84375 -38.65625 C 15.039062 -39.757812 13.753906 -40.3125 11.984375 -40.3125 C 10.203125 -40.3125 8.910156 -39.757812 8.109375 -38.65625 C 7.304688 -37.5625 6.90625 -36.019531 6.90625 -34.03125 C 6.90625 -32.382812 7.273438 -30.945312 8.015625 -29.71875 C 8.753906 -28.5 9.671875 -27.367188 10.765625 -26.328125 C 11.867188 -25.296875 13.0625 -24.28125 14.34375 -23.28125 C 15.632812 -22.289062 16.828125 -21.203125 17.921875 -20.015625 C 19.023438 -18.835938 19.945312 -17.5 20.6875 -16 C 21.425781 -14.5 21.796875 -12.710938 21.796875 -10.640625 C 21.796875 -7.265625 20.984375 -4.570312 19.359375 -2.5625 C 17.734375 -0.5625 15.207031 0.4375 11.78125 0.4375 C 8.363281 0.4375 5.851562 -0.5625 4.25 -2.5625 C 2.644531 -4.570312 1.84375 -7.265625 1.84375 -10.640625 L 1.84375 -13.1875 L 6.46875 -13.1875 L 6.46875 -10.390625 C 6.46875 -8.359375 6.890625 -6.796875 7.734375 -5.703125 C 8.578125 -4.609375 9.882812 -4.0625 11.65625 -4.0625 C 13.4375 -4.0625 14.75 -4.609375 15.59375 -5.703125 C 16.4375 -6.796875 16.859375 -8.359375 16.859375 -10.390625 C 16.859375 -12.035156 16.488281 -13.460938 15.75 -14.671875 C 15.007812 -15.878906 14.085938 -17 12.984375 -18.03125 C 11.890625 -19.0625 10.707031 -20.070312 9.4375 -21.0625 C 8.175781 -22.0625 6.992188 -23.148438 5.890625 -24.328125 C 4.796875 -25.515625 3.878906 -26.859375 3.140625 -28.359375 C 2.398438 -29.859375 2.03125 -31.644531 2.03125 -33.71875 C 2.03125 -37.132812 2.832031 -39.835938 4.4375 -41.828125 C 6.039062 -43.816406 8.507812 -44.8125 11.84375 -44.8125 Z M 11.84375 -44.8125 "/></g></g></g><g fill="#ffffff" fill-opacity="1"><g transform="translate(660.314397, 696.485792)"><g><path d="M 2.15625 -33.65625 C 2.15625 -37.070312 2.988281 -39.785156 4.65625 -41.796875 C 6.320312 -43.804688 8.867188 -44.8125 12.296875 -44.8125 C 15.710938 -44.8125 18.265625 -43.804688 19.953125 -41.796875 C 21.648438 -39.785156 22.5 -37.070312 22.5 -33.65625 L 22.5 -10.703125 C 22.5 -7.328125 21.648438 -4.625 19.953125 -2.59375 C 18.265625 -0.570312 15.710938 0.4375 12.296875 0.4375 C 8.867188 0.4375 6.320312 -0.570312 4.65625 -2.59375 C 2.988281 -4.625 2.15625 -7.328125 2.15625 -10.703125 Z M 7.03125 -10.453125 C 7.03125 -8.429688 7.460938 -6.859375 8.328125 -5.734375 C 9.203125 -4.617188 10.523438 -4.0625 12.296875 -4.0625 C 14.109375 -4.0625 15.4375 -4.617188 16.28125 -5.734375 C 17.132812 -6.859375 17.5625 -8.429688 17.5625 -10.453125 L 17.5625 -33.90625 C 17.5625 -35.9375 17.132812 -37.507812 16.28125 -38.625 C 15.4375 -39.75 14.109375 -40.3125 12.296875 -40.3125 C 10.523438 -40.3125 9.203125 -39.75 8.328125 -38.625 C 7.460938 -37.507812 7.03125 -35.9375 7.03125 -33.90625 Z M 7.03125 -10.453125 "/></g></g></g><g fill="#ffffff" fill-opacity="1"><g transform="translate(684.968789, 696.485792)"><g><path d="M 18.890625 -0.0625 L 14.125 -0.0625 L 6.78125 -35.359375 L 6.78125 0 L 2.46875 0 L 2.46875 -44.359375 L 9.375 -44.359375 L 16.671875 -8.9375 L 23.703125 -44.359375 L 30.609375 -44.359375 L 30.609375 0 L 25.921875 0 L 25.921875 -35.6875 Z M 18.890625 -0.0625 "/></g></g></g><g fill="#ffffff" fill-opacity="1"><g transform="translate(718.115923, 696.485792)"><g><path d="M 18.3125 -24.71875 L 18.3125 -20.28125 L 7.484375 -20.28125 L 7.484375 -4.5 L 20.78125 -4.5 L 20.78125 0 L 2.53125 0 L 2.53125 -44.359375 L 20.78125 -44.359375 L 20.78125 -39.859375 L 7.484375 -39.859375 L 7.484375 -24.71875 Z M 18.3125 -24.71875 "/></g></g></g><g fill="#ffffff" fill-opacity="1"><g transform="translate(740.932314, 696.485792)"><g><path d="M 8.9375 0 L 8.9375 -39.859375 L 0.765625 -39.859375 L 0.765625 -44.359375 L 21.984375 -44.359375 L 21.984375 -39.859375 L 13.8125 -39.859375 L 13.8125 0 Z M 8.9375 0 "/></g></g></g><g fill="#ffffff" fill-opacity="1"><g transform="translate(763.748705, 696.485792)"><g><path d="M 7.484375 -19.96875 L 7.484375 0 L 2.53125 0 L 2.53125 -44.359375 L 7.484375 -44.359375 L 7.484375 -24.40625 L 18.375 -24.40625 L 18.375 -44.359375 L 23.328125 -44.359375 L 23.328125 0 L 18.375 0 L 18.375 -19.96875 Z M 7.484375 -19.96875 "/></g></g></g><g fill="#ffffff" fill-opacity="1"><g transform="translate(789.607297, 696.485792)"><g><path d="M 7.484375 -44.359375 L 7.484375 0 L 2.53125 0 L 2.53125 -44.359375 Z M 7.484375 -44.359375 "/></g></g></g><g fill="#ffffff" fill-opacity="1"><g transform="translate(799.62114, 696.485792)"><g><path d="M 6.90625 0 L 2.46875 0 L 2.46875 -44.359375 L 8.75 -44.359375 L 19.015625 -12.296875 L 19.015625 -44.359375 L 23.390625 -44.359375 L 23.390625 0 L 18.25 0 L 6.90625 -35.875 Z M 6.90625 0 "/></g></g></g><g fill="#ffffff" fill-opacity="1"><g transform="translate(825.543075, 696.485792)"><g><path d="M 12.109375 -44.8125 C 15.523438 -44.8125 18.046875 -43.796875 19.671875 -41.765625 C 21.304688 -39.734375 22.125 -37.03125 22.125 -33.65625 L 22.125 -29.84375 L 17.421875 -29.84375 L 17.421875 -33.90625 C 17.421875 -35.9375 17.007812 -37.507812 16.1875 -38.625 C 15.363281 -39.75 14.046875 -40.3125 12.234375 -40.3125 C 10.453125 -40.3125 9.140625 -39.75 8.296875 -38.625 C 7.453125 -37.507812 7.03125 -35.9375 7.03125 -33.90625 L 7.03125 -10.453125 C 7.03125 -8.429688 7.453125 -6.859375 8.296875 -5.734375 C 9.140625 -4.617188 10.453125 -4.0625 12.234375 -4.0625 C 14.046875 -4.0625 15.363281 -4.617188 16.1875 -5.734375 C 17.007812 -6.859375 17.421875 -8.429688 17.421875 -10.453125 L 17.421875 -19.328125 L 12.859375 -19.328125 L 12.859375 -23.765625 L 22.125 -23.765625 L 22.125 -10.703125 C 22.125 -7.328125 21.304688 -4.625 19.671875 -2.59375 C 18.046875 -0.570312 15.523438 0.4375 12.109375 0.4375 C 8.722656 0.4375 6.21875 -0.570312 4.59375 -2.59375 C 2.96875 -4.625 2.15625 -7.328125 2.15625 -10.703125 L 2.15625 -33.65625 C 2.15625 -35.34375 2.351562 -36.875 2.75 -38.25 C 3.15625 -39.625 3.769531 -40.796875 4.59375 -41.765625 C 5.414062 -42.734375 6.445312 -43.484375 7.6875 -44.015625 C 8.9375 -44.546875 10.410156 -44.8125 12.109375 -44.8125 Z M 12.109375 -44.8125 "/></g></g></g><g fill="#ffffff" fill-opacity="1"><g transform="translate(849.817162, 696.485792)"><g/></g></g><g fill="#ffffff" fill-opacity="1"><g transform="translate(859.640913, 696.485792)"><g><path d="M 10.390625 -15.90625 L 1.015625 -44.359375 L 6.140625 -44.359375 L 13.0625 -22.5625 L 20.03125 -44.359375 L 24.71875 -44.359375 L 15.265625 -15.90625 L 15.265625 0 L 10.390625 0 Z M 10.390625 -15.90625 "/></g></g></g><g fill="#ffffff" fill-opacity="1"><g transform="translate(885.372757, 696.485792)"><g><path d="M 2.15625 -33.65625 C 2.15625 -37.070312 2.988281 -39.785156 4.65625 -41.796875 C 6.320312 -43.804688 8.867188 -44.8125 12.296875 -44.8125 C 15.710938 -44.8125 18.265625 -43.804688 19.953125 -41.796875 C 21.648438 -39.785156 22.5 -37.070312 22.5 -33.65625 L 22.5 -10.703125 C 22.5 -7.328125 21.648438 -4.625 19.953125 -2.59375 C 18.265625 -0.570312 15.710938 0.4375 12.296875 0.4375 C 8.867188 0.4375 6.320312 -0.570312 4.65625 -2.59375 C 2.988281 -4.625 2.15625 -7.328125 2.15625 -10.703125 Z M 7.03125 -10.453125 C 7.03125 -8.429688 7.460938 -6.859375 8.328125 -5.734375 C 9.203125 -4.617188 10.523438 -4.0625 12.296875 -4.0625 C 14.109375 -4.0625 15.4375 -4.617188 16.28125 -5.734375 C 17.132812 -6.859375 17.5625 -8.429688 17.5625 -10.453125 L 17.5625 -33.90625 C 17.5625 -35.9375 17.132812 -37.507812 16.28125 -38.625 C 15.4375 -39.75 14.109375 -40.3125 12.296875 -40.3125 C 10.523438 -40.3125 9.203125 -39.75 8.328125 -38.625 C 7.460938 -37.507812 7.03125 -35.9375 7.03125 -33.90625 Z M 7.03125 -10.453125 "/></g></g></g><g fill="#ffffff" fill-opacity="1"><g transform="translate(910.027149, 696.485792)"><g><path d="M 7.21875 -10.453125 C 7.21875 -8.429688 7.628906 -6.859375 8.453125 -5.734375 C 9.285156 -4.617188 10.609375 -4.0625 12.421875 -4.0625 C 14.191406 -4.0625 15.488281 -4.617188 16.3125 -5.734375 C 17.144531 -6.859375 17.5625 -8.429688 17.5625 -10.453125 L 17.5625 -44.359375 L 22.1875 -44.359375 L 22.1875 -10.703125 C 22.1875 -7.328125 21.378906 -4.613281 19.765625 -2.5625 C 18.160156 -0.519531 15.648438 0.5 12.234375 0.5 C 8.847656 0.5 6.351562 -0.519531 4.75 -2.5625 C 3.144531 -4.613281 2.34375 -7.328125 2.34375 -10.703125 L 2.34375 -44.359375 L 7.21875 -44.359375 Z M 7.21875 -10.453125 "/></g></g></g><g fill="#ffffff" fill-opacity="1"><g transform="translate(934.554793, 696.485792)"><g/></g></g><g fill="#ffffff" fill-opacity="1"><g transform="translate(944.378544, 696.485792)"><g><path d="M 12.109375 -44.8125 C 15.523438 -44.8125 18.046875 -43.796875 19.671875 -41.765625 C 21.304688 -39.734375 22.125 -37.03125 22.125 -33.65625 L 22.125 -29.65625 L 17.421875 -29.65625 L 17.421875 -33.90625 C 17.421875 -35.9375 17.007812 -37.507812 16.1875 -38.625 C 15.363281 -39.75 14.046875 -40.3125 12.234375 -40.3125 C 10.453125 -40.3125 9.140625 -39.75 8.296875 -38.625 C 7.453125 -37.507812 7.03125 -35.9375 7.03125 -33.90625 L 7.03125 -10.453125 C 7.03125 -8.429688 7.453125 -6.859375 8.296875 -5.734375 C 9.140625 -4.617188 10.453125 -4.0625 12.234375 -4.0625 C 14.046875 -4.0625 15.363281 -4.617188 16.1875 -5.734375 C 17.007812 -6.859375 17.421875 -8.429688 17.421875 -10.453125 L 17.421875 -16.21875 L 22.125 -16.21875 L 22.125 -10.703125 C 22.125 -7.328125 21.304688 -4.625 19.671875 -2.59375 C 18.046875 -0.570312 15.523438 0.4375 12.109375 0.4375 C 8.722656 0.4375 6.21875 -0.570312 4.59375 -2.59375 C 2.96875 -4.625 2.15625 -7.328125 2.15625 -10.703125 L 2.15625 -33.65625 C 2.15625 -35.34375 2.351562 -36.875 2.75 -38.25 C 3.15625 -39.625 3.769531 -40.796875 4.59375 -41.765625 C 5.414062 -42.734375 6.445312 -43.484375 7.6875 -44.015625 C 8.9375 -44.546875 10.410156 -44.8125 12.109375 -44.8125 Z M 12.109375 -44.8125 "/></g></g></g><g fill="#ffffff" fill-opacity="1"><g transform="translate(968.462538, 696.485792)"><g><path d="M 7.546875 -8.9375 L 5.828125 0 L 1.265625 0 L 9.765625 -44.359375 L 16.921875 -44.359375 L 25.40625 0 L 20.46875 0 L 18.765625 -8.9375 Z M 8.171875 -13.1875 L 18.0625 -13.1875 L 13.0625 -38.78125 Z M 8.171875 -13.1875 "/></g></g></g><g fill="#ffffff" fill-opacity="1"><g transform="translate(995.208429, 696.485792)"><g><path d="M 6.90625 0 L 2.46875 0 L 2.46875 -44.359375 L 8.75 -44.359375 L 19.015625 -12.296875 L 19.015625 -44.359375 L 23.390625 -44.359375 L 23.390625 0 L 18.25 0 L 6.90625 -35.875 Z M 6.90625 0 "/></g></g></g><g fill="#ffffff" fill-opacity="1"><g transform="translate(1021.130365, 696.485792)"><g/></g></g><g fill="#ffffff" fill-opacity="1"><g transform="translate(1030.954115, 696.485792)"><g><path d="M 7.546875 -8.9375 L 5.828125 0 L 1.265625 0 L 9.765625 -44.359375 L 16.921875 -44.359375 L 25.40625 0 L 20.46875 0 L 18.765625 -8.9375 Z M 8.171875 -13.1875 L 18.0625 -13.1875 L 13.0625 -38.78125 Z M 8.171875 -13.1875 "/></g></g></g><g fill="#ffffff" fill-opacity="1"><g transform="translate(1057.700006, 696.485792)"><g><path d="M 7.21875 -10.453125 C 7.21875 -8.429688 7.628906 -6.859375 8.453125 -5.734375 C 9.285156 -4.617188 10.609375 -4.0625 12.421875 -4.0625 C 14.191406 -4.0625 15.488281 -4.617188 16.3125 -5.734375 C 17.144531 -6.859375 17.5625 -8.429688 17.5625 -10.453125 L 17.5625 -44.359375 L 22.1875 -44.359375 L 22.1875 -10.703125 C 22.1875 -7.328125 21.378906 -4.613281 19.765625 -2.5625 C 18.160156 -0.519531 15.648438 0.5 12.234375 0.5 C 8.847656 0.5 6.351562 -0.519531 4.75 -2.5625 C 3.144531 -4.613281 2.34375 -7.328125 2.34375 -10.703125 L 2.34375 -44.359375 L 7.21875 -44.359375 Z M 7.21875 -10.453125 "/></g></g></g><g fill="#ffffff" fill-opacity="1"><g transform="translate(1082.22765, 696.485792)"><g><path d="M 8.9375 0 L 8.9375 -39.859375 L 0.765625 -39.859375 L 0.765625 -44.359375 L 21.984375 -44.359375 L 21.984375 -39.859375 L 13.8125 -39.859375 L 13.8125 0 Z M 8.9375 0 "/></g></g></g><g fill="#ffffff" fill-opacity="1"><g transform="translate(1105.044041, 696.485792)"><g><path d="M 2.15625 -33.65625 C 2.15625 -37.070312 2.988281 -39.785156 4.65625 -41.796875 C 6.320312 -43.804688 8.867188 -44.8125 12.296875 -44.8125 C 15.710938 -44.8125 18.265625 -43.804688 19.953125 -41.796875 C 21.648438 -39.785156 22.5 -37.070312 22.5 -33.65625 L 22.5 -10.703125 C 22.5 -7.328125 21.648438 -4.625 19.953125 -2.59375 C 18.265625 -0.570312 15.710938 0.4375 12.296875 0.4375 C 8.867188 0.4375 6.320312 -0.570312 4.65625 -2.59375 C 2.988281 -4.625 2.15625 -7.328125 2.15625 -10.703125 Z M 7.03125 -10.453125 C 7.03125 -8.429688 7.460938 -6.859375 8.328125 -5.734375 C 9.203125 -4.617188 10.523438 -4.0625 12.296875 -4.0625 C 14.109375 -4.0625 15.4375 -4.617188 16.28125 -5.734375 C 17.132812 -6.859375 17.5625 -8.429688 17.5625 -10.453125 L 17.5625 -33.90625 C 17.5625 -35.9375 17.132812 -37.507812 16.28125 -38.625 C 15.4375 -39.75 14.109375 -40.3125 12.296875 -40.3125 C 10.523438 -40.3125 9.203125 -39.75 8.328125 -38.625 C 7.460938 -37.507812 7.03125 -35.9375 7.03125 -33.90625 Z M 7.03125 -10.453125 "/></g></g></g><g fill="#ffffff" fill-opacity="1"><g transform="translate(1129.698493, 696.485792)"><g><path d="M 18.890625 -0.0625 L 14.125 -0.0625 L 6.78125 -35.359375 L 6.78125 0 L 2.46875 0 L 2.46875 -44.359375 L 9.375 -44.359375 L 16.671875 -8.9375 L 23.703125 -44.359375 L 30.609375 -44.359375 L 30.609375 0 L 25.921875 0 L 25.921875 -35.6875 Z M 18.890625 -0.0625 "/></g></g></g><g fill="#ffffff" fill-opacity="1"><g transform="translate(1162.845628, 696.485792)"><g><path d="M 7.546875 -8.9375 L 5.828125 0 L 1.265625 0 L 9.765625 -44.359375 L 16.921875 -44.359375 L 25.40625 0 L 20.46875 0 L 18.765625 -8.9375 Z M 8.171875 -13.1875 L 18.0625 -13.1875 L 13.0625 -38.78125 Z M 8.171875 -13.1875 "/></g></g></g><g fill="#ffffff" fill-opacity="1"><g transform="translate(1189.591519, 696.485792)"><g><path d="M 8.9375 0 L 8.9375 -39.859375 L 0.765625 -39.859375 L 0.765625 -44.359375 L 21.984375 -44.359375 L 21.984375 -39.859375 L 13.8125 -39.859375 L 13.8125 0 Z M 8.9375 0 "/></g></g></g><g fill="#ffffff" fill-opacity="1"><g transform="translate(1212.407909, 696.485792)"><g><path d="M 18.3125 -24.71875 L 18.3125 -20.28125 L 7.484375 -20.28125 L 7.484375 -4.5 L 20.78125 -4.5 L 20.78125 0 L 2.53125 0 L 2.53125 -44.359375 L 20.78125 -44.359375 L 20.78125 -39.859375 L 7.484375 -39.859375 L 7.484375 -24.71875 Z M 18.3125 -24.71875 "/></g></g></g><g fill="#ffffff" fill-opacity="1"><g transform="translate(1235.2243, 696.485792)"><g/></g></g><g fill="#ffffff" fill-opacity="1"><g transform="translate(1245.048051, 696.485792)"><g><path d="M 7.484375 -44.359375 L 7.484375 0 L 2.53125 0 L 2.53125 -44.359375 Z M 7.484375 -44.359375 "/></g></g></g><g fill="#ffffff" fill-opacity="1"><g transform="translate(1255.061954, 696.485792)"><g><path d="M 6.90625 0 L 2.46875 0 L 2.46875 -44.359375 L 8.75 -44.359375 L 19.015625 -12.296875 L 19.015625 -44.359375 L 23.390625 -44.359375 L 23.390625 0 L 18.25 0 L 6.90625 -35.875 Z M 6.90625 0 "/></g></g></g><g fill="#ffffff" fill-opacity="1"><g transform="translate(1280.983889, 696.485792)"><g/></g></g><g fill="#ffffff" fill-opacity="1"><g transform="translate(1290.80764, 696.485792)"><g><path d="M 12.234375 -44.8125 C 15.648438 -44.8125 18.171875 -43.804688 19.796875 -41.796875 C 21.429688 -39.785156 22.25 -37.070312 22.25 -33.65625 L 22.25 -32.515625 C 22.25 -30.234375 21.789062 -28.3125 20.875 -26.75 C 19.96875 -25.1875 18.628906 -24.066406 16.859375 -23.390625 C 18.753906 -22.671875 20.125 -21.519531 20.96875 -19.9375 C 21.820312 -18.351562 22.25 -16.441406 22.25 -14.203125 L 22.25 -10.78125 C 22.25 -7.351562 21.429688 -4.625 19.796875 -2.59375 C 18.171875 -0.570312 15.648438 0.4375 12.234375 0.4375 C 8.847656 0.4375 6.34375 -0.582031 4.71875 -2.625 C 3.09375 -4.675781 2.28125 -7.394531 2.28125 -10.78125 L 2.28125 -13.8125 L 6.90625 -13.8125 L 6.90625 -10.453125 C 6.90625 -8.429688 7.328125 -6.859375 8.171875 -5.734375 C 9.015625 -4.617188 10.328125 -4.0625 12.109375 -4.0625 C 13.921875 -4.0625 15.238281 -4.628906 16.0625 -5.765625 C 16.882812 -6.910156 17.296875 -8.625 17.296875 -10.90625 L 17.296875 -14.328125 C 17.296875 -18.585938 15.4375 -20.78125 11.71875 -20.90625 L 9.0625 -20.90625 L 9.0625 -25.34375 L 11.984375 -25.34375 C 13.628906 -25.4375 14.925781 -25.988281 15.875 -27 C 16.820312 -28.007812 17.296875 -29.488281 17.296875 -31.4375 L 17.296875 -33.46875 C 17.296875 -35.75 16.882812 -37.46875 16.0625 -38.625 C 15.238281 -39.789062 13.921875 -40.375 12.109375 -40.375 C 10.328125 -40.375 9.015625 -39.800781 8.171875 -38.65625 C 7.328125 -37.519531 6.90625 -35.9375 6.90625 -33.90625 L 6.90625 -31.625 L 2.28125 -31.625 L 2.28125 -33.65625 C 2.28125 -37.070312 3.082031 -39.785156 4.6875 -41.796875 C 6.289062 -43.804688 8.804688 -44.8125 12.234375 -44.8125 Z M 12.234375 -44.8125 "/></g></g></g><g fill="#ffffff" fill-opacity="1"><g transform="translate(1315.335284, 696.485792)"><g/></g></g><g fill="#ffffff" fill-opacity="1"><g transform="translate(1325.159035, 696.485792)"><g><path d="M 7.484375 -19.96875 L 7.484375 0 L 2.53125 0 L 2.53125 -44.359375 L 7.484375 -44.359375 L 7.484375 -24.40625 L 18.375 -24.40625 L 18.375 -44.359375 L 23.328125 -44.359375 L 23.328125 0 L 18.375 0 L 18.375 -19.96875 Z M 7.484375 -19.96875 "/></g></g></g><g fill="#ffffff" fill-opacity="1"><g transform="translate(1351.017626, 696.485792)"><g><path d="M 2.15625 -33.65625 C 2.15625 -37.070312 2.988281 -39.785156 4.65625 -41.796875 C 6.320312 -43.804688 8.867188 -44.8125 12.296875 -44.8125 C 15.710938 -44.8125 18.265625 -43.804688 19.953125 -41.796875 C 21.648438 -39.785156 22.5 -37.070312 22.5 -33.65625 L 22.5 -10.703125 C 22.5 -7.328125 21.648438 -4.625 19.953125 -2.59375 C 18.265625 -0.570312 15.710938 0.4375 12.296875 0.4375 C 8.867188 0.4375 6.320312 -0.570312 4.65625 -2.59375 C 2.988281 -4.625 2.15625 -7.328125 2.15625 -10.703125 Z M 7.03125 -10.453125 C 7.03125 -8.429688 7.460938 -6.859375 8.328125 -5.734375 C 9.203125 -4.617188 10.523438 -4.0625 12.296875 -4.0625 C 14.109375 -4.0625 15.4375 -4.617188 16.28125 -5.734375 C 17.132812 -6.859375 17.5625 -8.429688 17.5625 -10.453125 L 17.5625 -33.90625 C 17.5625 -35.9375 17.132812 -37.507812 16.28125 -38.625 C 15.4375 -39.75 14.109375 -40.3125 12.296875 -40.3125 C 10.523438 -40.3125 9.203125 -39.75 8.328125 -38.625 C 7.460938 -37.507812 7.03125 -35.9375 7.03125 -33.90625 Z M 7.03125 -10.453125 "/></g></g></g><g fill="#ffffff" fill-opacity="1"><g transform="translate(1375.671958, 696.485792)"><g><path d="M 7.21875 -10.453125 C 7.21875 -8.429688 7.628906 -6.859375 8.453125 -5.734375 C 9.285156 -4.617188 10.609375 -4.0625 12.421875 -4.0625 C 14.191406 -4.0625 15.488281 -4.617188 16.3125 -5.734375 C 17.144531 -6.859375 17.5625 -8.429688 17.5625 -10.453125 L 17.5625 -44.359375 L 22.1875 -44.359375 L 22.1875 -10.703125 C 22.1875 -7.328125 21.378906 -4.613281 19.765625 -2.5625 C 18.160156 -0.519531 15.648438 0.5 12.234375 0.5 C 8.847656 0.5 6.351562 -0.519531 4.75 -2.5625 C 3.144531 -4.613281 2.34375 -7.328125 2.34375 -10.703125 L 2.34375 -44.359375 L 7.21875 -44.359375 Z M 7.21875 -10.453125 "/></g></g></g><g fill="#ffffff" fill-opacity="1"><g transform="translate(1400.199602, 696.485792)"><g><path d="M 12.421875 -44.359375 C 15.929688 -44.359375 18.457031 -43.492188 20 -41.765625 C 21.539062 -40.035156 22.3125 -37.519531 22.3125 -34.21875 L 22.3125 -30.609375 C 22.3125 -28.160156 21.863281 -26.175781 20.96875 -24.65625 C 20.082031 -23.132812 18.691406 -22.078125 16.796875 -21.484375 C 18.828125 -20.890625 20.265625 -19.800781 21.109375 -18.21875 C 21.953125 -16.632812 22.375 -14.640625 22.375 -12.234375 L 22.375 -5.328125 C 22.375 -4.347656 22.414062 -3.40625 22.5 -2.5 C 22.582031 -1.59375 22.835938 -0.757812 23.265625 0 L 18.25 0 C 17.957031 -0.632812 17.742188 -1.320312 17.609375 -2.0625 C 17.484375 -2.800781 17.421875 -3.910156 17.421875 -5.390625 L 17.421875 -12.359375 C 17.421875 -14.847656 16.859375 -16.566406 15.734375 -17.515625 C 14.617188 -18.472656 13.03125 -18.953125 10.96875 -18.953125 L 7.484375 -18.953125 L 7.484375 0 L 2.53125 0 L 2.53125 -44.359375 Z M 11.15625 -23.453125 C 13.132812 -23.453125 14.671875 -23.863281 15.765625 -24.6875 C 16.867188 -25.507812 17.421875 -27.125 17.421875 -29.53125 L 17.421875 -33.78125 C 17.421875 -35.8125 17.03125 -37.332031 16.25 -38.34375 C 15.46875 -39.351562 14.148438 -39.859375 12.296875 -39.859375 L 7.484375 -39.859375 L 7.484375 -23.453125 Z M 11.15625 -23.453125 "/></g></g></g><g fill="#ffffff" fill-opacity="1"><g transform="translate(1425.170895, 696.485792)"><g><path d="M 11.84375 -44.8125 C 15.226562 -44.8125 17.722656 -43.804688 19.328125 -41.796875 C 20.929688 -39.785156 21.734375 -37.09375 21.734375 -33.71875 L 21.734375 -32.515625 L 17.046875 -32.515625 L 17.046875 -33.96875 C 17.046875 -36 16.644531 -37.5625 15.84375 -38.65625 C 15.039062 -39.757812 13.753906 -40.3125 11.984375 -40.3125 C 10.203125 -40.3125 8.910156 -39.757812 8.109375 -38.65625 C 7.304688 -37.5625 6.90625 -36.019531 6.90625 -34.03125 C 6.90625 -32.382812 7.273438 -30.945312 8.015625 -29.71875 C 8.753906 -28.5 9.671875 -27.367188 10.765625 -26.328125 C 11.867188 -25.296875 13.0625 -24.28125 14.34375 -23.28125 C 15.632812 -22.289062 16.828125 -21.203125 17.921875 -20.015625 C 19.023438 -18.835938 19.945312 -17.5 20.6875 -16 C 21.425781 -14.5 21.796875 -12.710938 21.796875 -10.640625 C 21.796875 -7.265625 20.984375 -4.570312 19.359375 -2.5625 C 17.734375 -0.5625 15.207031 0.4375 11.78125 0.4375 C 8.363281 0.4375 5.851562 -0.5625 4.25 -2.5625 C 2.644531 -4.570312 1.84375 -7.265625 1.84375 -10.640625 L 1.84375 -13.1875 L 6.46875 -13.1875 L 6.46875 -10.390625 C 6.46875 -8.359375 6.890625 -6.796875 7.734375 -5.703125 C 8.578125 -4.609375 9.882812 -4.0625 11.65625 -4.0625 C 13.4375 -4.0625 14.75 -4.609375 15.59375 -5.703125 C 16.4375 -6.796875 16.859375 -8.359375 16.859375 -10.390625 C 16.859375 -12.035156 16.488281 -13.460938 15.75 -14.671875 C 15.007812 -15.878906 14.085938 -17 12.984375 -18.03125 C 11.890625 -19.0625 10.707031 -20.070312 9.4375 -21.0625 C 8.175781 -22.0625 6.992188 -23.148438 5.890625 -24.328125 C 4.796875 -25.515625 3.878906 -26.859375 3.140625 -28.359375 C 2.398438 -29.859375 2.03125 -31.644531 2.03125 -33.71875 C 2.03125 -37.132812 2.832031 -39.835938 4.4375 -41.828125 C 6.039062 -43.816406 8.507812 -44.8125 11.84375 -44.8125 Z M 11.84375 -44.8125 "/></g></g></g><g fill="#ffffff" fill-opacity="1"><g transform="translate(1448.747897, 696.485792)"><g><path d="M 11.53125 -44.8125 C 14.957031 -44.8125 17.460938 -43.796875 19.046875 -41.765625 C 20.628906 -39.734375 21.421875 -37.007812 21.421875 -33.59375 C 21.421875 -31.8125 21.195312 -30.242188 20.75 -28.890625 C 20.3125 -27.546875 19.773438 -26.3125 19.140625 -25.1875 C 18.503906 -24.070312 17.796875 -23.035156 17.015625 -22.078125 C 16.234375 -21.128906 15.523438 -20.171875 14.890625 -19.203125 C 14.253906 -18.234375 13.710938 -17.1875 13.265625 -16.0625 C 12.828125 -14.945312 12.609375 -13.691406 12.609375 -12.296875 C 12.609375 -11.535156 12.710938 -10.734375 12.921875 -9.890625 L 8.5 -9.890625 C 8.40625 -10.265625 8.328125 -10.648438 8.265625 -11.046875 C 8.203125 -11.453125 8.171875 -11.910156 8.171875 -12.421875 C 8.171875 -14.023438 8.367188 -15.4375 8.765625 -16.65625 C 9.171875 -17.882812 9.691406 -19.003906 10.328125 -20.015625 C 10.960938 -21.035156 11.628906 -22.007812 12.328125 -22.9375 C 13.023438 -23.875 13.6875 -24.859375 14.3125 -25.890625 C 14.945312 -26.921875 15.46875 -28.070312 15.875 -29.34375 C 16.28125 -30.613281 16.484375 -32.113281 16.484375 -33.84375 C 16.484375 -35.875 16.085938 -37.46875 15.296875 -38.625 C 14.515625 -39.789062 13.21875 -40.375 11.40625 -40.375 C 9.59375 -40.375 8.296875 -39.78125 7.515625 -38.59375 C 6.734375 -37.414062 6.34375 -35.832031 6.34375 -33.84375 L 6.34375 -29.90625 L 1.71875 -29.90625 L 1.71875 -33.53125 C 1.71875 -35.21875 1.90625 -36.75 2.28125 -38.125 C 2.664062 -39.5 3.257812 -40.679688 4.0625 -41.671875 C 4.863281 -42.660156 5.882812 -43.429688 7.125 -43.984375 C 8.375 -44.535156 9.84375 -44.8125 11.53125 -44.8125 Z M 12.984375 -6.140625 L 12.984375 0 L 8.296875 0 L 8.296875 -6.140625 Z M 12.984375 -6.140625 "/></g></g></g></svg>