<svg xmlns="http://www.w3.org/2000/svg" xmlns:xlink="http://www.w3.org/1999/xlink" width="500" zoomAndPan="magnify" viewBox="0 0 375 374.999991" height="500" preserveAspectRatio="xMidYMid meet" version="1.0"><defs><g/><clipPath id="56c3f3e05b"><path d="M 216 102 L 231.089844 102 L 231.089844 114 L 216 114 Z M 216 102 " clip-rule="nonzero"/></clipPath><clipPath id="5129248e59"><path d="M 144.089844 102 L 159 102 L 159 114 L 144.089844 114 Z M 144.089844 102 " clip-rule="nonzero"/></clipPath><clipPath id="14ababf5c7"><path d="M 155 130 L 220 130 L 220 163.890625 L 155 163.890625 Z M 155 130 " clip-rule="nonzero"/></clipPath><clipPath id="da4d5246b0"><path d="M 163 75.390625 L 212 75.390625 L 212 128 L 163 128 Z M 163 75.390625 " clip-rule="nonzero"/></clipPath><clipPath id="f40a6a4c37"><path d="M 10 153.296875 L 144 153.296875 L 144 162.296875 L 10 162.296875 Z M 10 153.296875 " clip-rule="nonzero"/></clipPath><clipPath id="37e1106fca"><path d="M 232 153.296875 L 365 153.296875 L 365 162.296875 L 232 162.296875 Z M 232 153.296875 " clip-rule="nonzero"/></clipPath></defs><g fill="#ffffff" fill-opacity="1"><g transform="translate(9.00133, 207.479749)"><g><path d="M 19.109375 -32.664062 C 18.617188 -32.664062 18.332031 -32.417969 18.210938 -31.929688 L 13.679688 -11.597656 L 9.144531 -31.929688 C 9.023438 -32.417969 8.738281 -32.664062 8.246094 -32.664062 L 2.859375 -32.664062 C 2.328125 -32.664062 2.042969 -32.378906 2.042969 -31.847656 L 2.042969 -0.816406 C 2.042969 -0.285156 2.328125 0 2.859375 0 L 6.613281 0 C 7.144531 0 7.429688 -0.285156 7.429688 -0.816406 L 7.429688 -19.191406 L 7.71875 -19.191406 L 11.757812 -0.734375 C 11.882812 -0.246094 12.167969 0 12.65625 0 L 14.660156 0 C 15.148438 0 15.433594 -0.246094 15.554688 -0.734375 L 19.597656 -19.191406 L 19.882812 -19.191406 L 19.882812 -0.816406 C 19.882812 -0.285156 20.171875 0 20.703125 0 L 24.5 0 C 25.027344 0 25.316406 -0.285156 25.316406 -0.816406 L 25.316406 -31.847656 C 25.316406 -32.378906 25.027344 -32.664062 24.5 -32.664062 Z M 19.109375 -32.664062 "/></g></g></g><g fill="#ffffff" fill-opacity="1"><g transform="translate(35.53875, 207.479749)"><g><path d="M 13.800781 -32.664062 C 13.351562 -32.664062 12.984375 -32.296875 12.984375 -31.847656 L 12.984375 -7.023438 C 12.984375 -5.921875 12.414062 -5.390625 11.351562 -5.390625 L 9.226562 -5.390625 C 8.167969 -5.390625 7.59375 -5.921875 7.59375 -7.023438 L 7.59375 -31.847656 C 7.59375 -32.296875 7.226562 -32.664062 6.777344 -32.664062 L 2.859375 -32.664062 C 2.410156 -32.664062 2.042969 -32.296875 2.042969 -31.847656 L 2.042969 -5.878906 C 2.042969 -2.042969 4.082031 0 7.921875 0 L 12.496094 0 C 16.332031 0 18.375 -2.042969 18.375 -5.878906 L 18.375 -31.847656 C 18.375 -32.296875 18.007812 -32.664062 17.558594 -32.664062 Z M 13.800781 -32.664062 "/></g></g></g><g fill="#ffffff" fill-opacity="1"><g transform="translate(55.135569, 207.479749)"><g><path d="M 14.578125 -32.664062 C 14.128906 -32.664062 13.921875 -32.417969 13.921875 -32.011719 L 13.921875 -14.78125 L 13.679688 -14.78125 L 7.472656 -32.132812 C 7.347656 -32.5 7.105469 -32.664062 6.738281 -32.664062 L 2.695312 -32.664062 C 2.285156 -32.664062 2.042969 -32.417969 2.042969 -32.011719 L 2.042969 -0.652344 C 2.042969 -0.246094 2.285156 0 2.695312 0 L 6.941406 0 C 7.390625 0 7.59375 -0.246094 7.59375 -0.652344 L 7.59375 -17.964844 L 7.796875 -17.964844 L 14.046875 -0.53125 C 14.167969 -0.164062 14.414062 0 14.78125 0 L 18.824219 0 C 19.230469 0 19.476562 -0.246094 19.476562 -0.652344 L 19.476562 -32.011719 C 19.476562 -32.417969 19.230469 -32.664062 18.824219 -32.664062 Z M 14.578125 -32.664062 "/></g></g></g><g fill="#ffffff" fill-opacity="1"><g transform="translate(75.83472, 207.479749)"><g><path d="M 2.042969 -0.652344 C 2.042969 -0.203125 2.246094 0 2.695312 0 L 12.496094 0 C 16.332031 0 18.375 -2.042969 18.375 -5.878906 L 18.375 -26.746094 C 18.375 -30.582031 16.332031 -32.664062 12.496094 -32.664062 L 2.695312 -32.664062 C 2.246094 -32.664062 2.042969 -32.417969 2.042969 -32.011719 Z M 7.59375 -5.390625 L 7.59375 -27.273438 L 11.351562 -27.273438 C 12.414062 -27.273438 12.984375 -26.703125 12.984375 -25.601562 L 12.984375 -7.023438 C 12.984375 -5.921875 12.414062 -5.390625 11.351562 -5.390625 Z M 7.59375 -5.390625 "/></g></g></g><g fill="#ffffff" fill-opacity="1"><g transform="translate(95.431541, 207.479749)"><g><path d="M 21.722656 0 C 22.210938 0 22.375 -0.246094 22.292969 -0.695312 L 15.515625 -32.09375 C 15.433594 -32.5 15.1875 -32.664062 14.820312 -32.664062 L 9.144531 -32.664062 C 8.777344 -32.664062 8.535156 -32.5 8.453125 -32.09375 L 1.675781 -0.695312 C 1.550781 -0.246094 1.753906 0 2.203125 0 L 6.574219 0 C 6.941406 0 7.144531 -0.203125 7.226562 -0.570312 L 8.328125 -6.53125 L 15.597656 -6.53125 L 16.742188 -0.570312 C 16.824219 -0.203125 17.027344 0 17.394531 0 Z M 14.578125 -11.269531 L 9.351562 -11.269531 L 11.964844 -25.519531 Z M 14.578125 -11.269531 "/></g></g></g><g fill="#ffffff" fill-opacity="1"><g transform="translate(118.539489, 207.479749)"><g><path d="M 14.578125 -32.664062 C 14.128906 -32.664062 13.921875 -32.417969 13.921875 -32.011719 L 13.921875 -14.78125 L 13.679688 -14.78125 L 7.472656 -32.132812 C 7.347656 -32.5 7.105469 -32.664062 6.738281 -32.664062 L 2.695312 -32.664062 C 2.285156 -32.664062 2.042969 -32.417969 2.042969 -32.011719 L 2.042969 -0.652344 C 2.042969 -0.246094 2.285156 0 2.695312 0 L 6.941406 0 C 7.390625 0 7.59375 -0.246094 7.59375 -0.652344 L 7.59375 -17.964844 L 7.796875 -17.964844 L 14.046875 -0.53125 C 14.167969 -0.164062 14.414062 0 14.78125 0 L 18.824219 0 C 19.230469 0 19.476562 -0.246094 19.476562 -0.652344 L 19.476562 -32.011719 C 19.476562 -32.417969 19.230469 -32.664062 18.824219 -32.664062 Z M 14.578125 -32.664062 "/></g></g></g><g fill="#ffffff" fill-opacity="1"><g transform="translate(139.238636, 207.479749)"><g><path d="M 18.332031 -32.011719 C 18.332031 -32.417969 18.167969 -32.664062 17.679688 -32.664062 L 2.652344 -32.664062 C 2.285156 -32.664062 2.042969 -32.417969 2.042969 -32.011719 L 2.042969 -0.652344 C 2.042969 -0.246094 2.285156 0 2.652344 0 L 17.679688 0 C 18.167969 0 18.332031 -0.246094 18.332031 -0.652344 L 18.332031 -4.738281 C 18.332031 -5.183594 18.167969 -5.390625 17.679688 -5.390625 L 7.472656 -5.390625 L 7.472656 -13.636719 L 15.269531 -13.636719 C 15.679688 -13.636719 15.925781 -13.882812 15.925781 -14.332031 L 15.925781 -18.375 C 15.925781 -18.824219 15.679688 -19.066406 15.269531 -19.066406 L 7.472656 -19.066406 L 7.472656 -27.234375 L 17.679688 -27.234375 C 18.167969 -27.234375 18.332031 -27.519531 18.332031 -27.929688 Z M 18.332031 -32.011719 "/></g></g></g><g fill="#ffffff" fill-opacity="1"><g transform="translate(158.794622, 207.479749)"><g/></g></g><g fill="#ffffff" fill-opacity="1"><g transform="translate(168.184662, 207.479749)"><g><path d="M 21.722656 0 C 22.210938 0 22.375 -0.246094 22.292969 -0.695312 L 15.515625 -32.09375 C 15.433594 -32.5 15.1875 -32.664062 14.820312 -32.664062 L 9.144531 -32.664062 C 8.777344 -32.664062 8.535156 -32.5 8.453125 -32.09375 L 1.675781 -0.695312 C 1.550781 -0.246094 1.753906 0 2.203125 0 L 6.574219 0 C 6.941406 0 7.144531 -0.203125 7.226562 -0.570312 L 8.328125 -6.53125 L 15.597656 -6.53125 L 16.742188 -0.570312 C 16.824219 -0.203125 17.027344 0 17.394531 0 Z M 14.578125 -11.269531 L 9.351562 -11.269531 L 11.964844 -25.519531 Z M 14.578125 -11.269531 "/></g></g></g><g fill="#ffffff" fill-opacity="1"><g transform="translate(191.29261, 207.479749)"><g><path d="M 13.800781 -32.664062 C 13.351562 -32.664062 12.984375 -32.296875 12.984375 -31.847656 L 12.984375 -7.023438 C 12.984375 -5.921875 12.414062 -5.390625 11.351562 -5.390625 L 9.226562 -5.390625 C 8.167969 -5.390625 7.59375 -5.921875 7.59375 -7.023438 L 7.59375 -31.847656 C 7.59375 -32.296875 7.226562 -32.664062 6.777344 -32.664062 L 2.859375 -32.664062 C 2.410156 -32.664062 2.042969 -32.296875 2.042969 -31.847656 L 2.042969 -5.878906 C 2.042969 -2.042969 4.082031 0 7.921875 0 L 12.496094 0 C 16.332031 0 18.375 -2.042969 18.375 -5.878906 L 18.375 -31.847656 C 18.375 -32.296875 18.007812 -32.664062 17.558594 -32.664062 Z M 13.800781 -32.664062 "/></g></g></g><g fill="#ffffff" fill-opacity="1"><g transform="translate(210.889431, 207.479749)"><g><path d="M 1.878906 -32.664062 C 1.46875 -32.664062 1.226562 -32.417969 1.226562 -32.011719 L 1.226562 -27.929688 C 1.226562 -27.519531 1.46875 -27.273438 1.878906 -27.273438 L 6.613281 -27.273438 L 6.613281 -0.652344 C 6.613281 -0.203125 6.859375 0 7.269531 0 L 11.515625 0 C 11.964844 0 12.167969 -0.203125 12.167969 -0.652344 L 12.167969 -27.273438 L 16.902344 -27.273438 C 17.351562 -27.273438 17.558594 -27.519531 17.558594 -27.929688 L 17.558594 -32.011719 C 17.558594 -32.417969 17.351562 -32.664062 16.902344 -32.664062 Z M 1.878906 -32.664062 "/></g></g></g><g fill="#ffffff" fill-opacity="1"><g transform="translate(228.853162, 207.479749)"><g><path d="M 2.042969 -5.878906 C 2.042969 -2.042969 4.082031 0 7.921875 0 L 12.496094 0 C 16.332031 0 18.375 -2.042969 18.375 -5.878906 L 18.375 -26.785156 C 18.375 -30.625 16.332031 -32.664062 12.496094 -32.664062 L 7.921875 -32.664062 C 4.082031 -32.664062 2.042969 -30.625 2.042969 -26.785156 Z M 9.105469 -5.265625 C 8.042969 -5.265625 7.472656 -5.796875 7.472656 -6.902344 L 7.472656 -25.765625 C 7.472656 -26.824219 8.042969 -27.398438 9.105469 -27.398438 L 11.472656 -27.398438 C 12.535156 -27.398438 13.105469 -26.824219 13.105469 -25.765625 L 13.105469 -6.902344 C 13.105469 -5.796875 12.535156 -5.265625 11.472656 -5.265625 Z M 9.105469 -5.265625 "/></g></g></g><g fill="#ffffff" fill-opacity="1"><g transform="translate(248.449983, 207.479749)"><g><path d="M 19.109375 -32.664062 C 18.617188 -32.664062 18.332031 -32.417969 18.210938 -31.929688 L 13.679688 -11.597656 L 9.144531 -31.929688 C 9.023438 -32.417969 8.738281 -32.664062 8.246094 -32.664062 L 2.859375 -32.664062 C 2.328125 -32.664062 2.042969 -32.378906 2.042969 -31.847656 L 2.042969 -0.816406 C 2.042969 -0.285156 2.328125 0 2.859375 0 L 6.613281 0 C 7.144531 0 7.429688 -0.285156 7.429688 -0.816406 L 7.429688 -19.191406 L 7.71875 -19.191406 L 11.757812 -0.734375 C 11.882812 -0.246094 12.167969 0 12.65625 0 L 14.660156 0 C 15.148438 0 15.433594 -0.246094 15.554688 -0.734375 L 19.597656 -19.191406 L 19.882812 -19.191406 L 19.882812 -0.816406 C 19.882812 -0.285156 20.171875 0 20.703125 0 L 24.5 0 C 25.027344 0 25.316406 -0.285156 25.316406 -0.816406 L 25.316406 -31.847656 C 25.316406 -32.378906 25.027344 -32.664062 24.5 -32.664062 Z M 19.109375 -32.664062 "/></g></g></g><g fill="#ffffff" fill-opacity="1"><g transform="translate(274.98739, 207.479749)"><g><path d="M 21.722656 0 C 22.210938 0 22.375 -0.246094 22.292969 -0.695312 L 15.515625 -32.09375 C 15.433594 -32.5 15.1875 -32.664062 14.820312 -32.664062 L 9.144531 -32.664062 C 8.777344 -32.664062 8.535156 -32.5 8.453125 -32.09375 L 1.675781 -0.695312 C 1.550781 -0.246094 1.753906 0 2.203125 0 L 6.574219 0 C 6.941406 0 7.144531 -0.203125 7.226562 -0.570312 L 8.328125 -6.53125 L 15.597656 -6.53125 L 16.742188 -0.570312 C 16.824219 -0.203125 17.027344 0 17.394531 0 Z M 14.578125 -11.269531 L 9.351562 -11.269531 L 11.964844 -25.519531 Z M 14.578125 -11.269531 "/></g></g></g><g fill="#ffffff" fill-opacity="1"><g transform="translate(298.095338, 207.479749)"><g><path d="M 1.878906 -32.664062 C 1.46875 -32.664062 1.226562 -32.417969 1.226562 -32.011719 L 1.226562 -27.929688 C 1.226562 -27.519531 1.46875 -27.273438 1.878906 -27.273438 L 6.613281 -27.273438 L 6.613281 -0.652344 C 6.613281 -0.203125 6.859375 0 7.269531 0 L 11.515625 0 C 11.964844 0 12.167969 -0.203125 12.167969 -0.652344 L 12.167969 -27.273438 L 16.902344 -27.273438 C 17.351562 -27.273438 17.558594 -27.519531 17.558594 -27.929688 L 17.558594 -32.011719 C 17.558594 -32.417969 17.351562 -32.664062 16.902344 -32.664062 Z M 1.878906 -32.664062 "/></g></g></g><g fill="#ffffff" fill-opacity="1"><g transform="translate(316.059055, 207.479749)"><g><path d="M 2.695312 -32.664062 C 2.246094 -32.664062 2.042969 -32.417969 2.042969 -32.011719 L 2.042969 -0.652344 C 2.042969 -0.246094 2.246094 0 2.695312 0 L 6.941406 0 C 7.347656 0 7.59375 -0.246094 7.59375 -0.652344 L 7.59375 -32.011719 C 7.59375 -32.417969 7.347656 -32.664062 6.941406 -32.664062 Z M 2.695312 -32.664062 "/></g></g></g><g fill="#ffffff" fill-opacity="1"><g transform="translate(324.877518, 207.479749)"><g><path d="M 2.042969 -5.878906 C 2.042969 -2.042969 4.082031 0 7.921875 0 L 12.496094 0 C 16.332031 0 18.375 -2.042969 18.375 -5.878906 L 18.375 -26.785156 C 18.375 -30.625 16.332031 -32.664062 12.496094 -32.664062 L 7.921875 -32.664062 C 4.082031 -32.664062 2.042969 -30.625 2.042969 -26.785156 Z M 9.105469 -5.265625 C 8.042969 -5.265625 7.472656 -5.796875 7.472656 -6.902344 L 7.472656 -25.765625 C 7.472656 -26.824219 8.042969 -27.398438 9.105469 -27.398438 L 11.472656 -27.398438 C 12.535156 -27.398438 13.105469 -26.824219 13.105469 -25.765625 L 13.105469 -6.902344 C 13.105469 -5.796875 12.535156 -5.265625 11.472656 -5.265625 Z M 9.105469 -5.265625 "/></g></g></g><g fill="#ffffff" fill-opacity="1"><g transform="translate(344.474339, 207.479749)"><g><path d="M 14.578125 -32.664062 C 14.128906 -32.664062 13.921875 -32.417969 13.921875 -32.011719 L 13.921875 -14.78125 L 13.679688 -14.78125 L 7.472656 -32.132812 C 7.347656 -32.5 7.105469 -32.664062 6.738281 -32.664062 L 2.695312 -32.664062 C 2.285156 -32.664062 2.042969 -32.417969 2.042969 -32.011719 L 2.042969 -0.652344 C 2.042969 -0.246094 2.285156 0 2.695312 0 L 6.941406 0 C 7.390625 0 7.59375 -0.246094 7.59375 -0.652344 L 7.59375 -17.964844 L 7.796875 -17.964844 L 14.046875 -0.53125 C 14.167969 -0.164062 14.414062 0 14.78125 0 L 18.824219 0 C 19.230469 0 19.476562 -0.246094 19.476562 -0.652344 L 19.476562 -32.011719 C 19.476562 -32.417969 19.230469 -32.664062 18.824219 -32.664062 Z M 14.578125 -32.664062 "/></g></g></g><g clip-path="url(#56c3f3e05b)"><path fill="#ffffff" d="M 220.3125 108.777344 L 220.3125 102.289062 L 216.65625 102.289062 L 216.65625 108.777344 C 216.65625 111.53125 218.929688 113.792969 221.699219 113.792969 L 226.046875 113.792969 C 228.816406 113.792969 231.089844 111.53125 231.089844 108.777344 L 231.089844 102.289062 L 227.433594 102.289062 L 227.433594 108.777344 C 227.433594 109.464844 226.839844 110.15625 226.046875 110.15625 L 221.699219 110.15625 C 220.90625 110.15625 220.3125 109.566406 220.3125 108.777344 Z M 220.3125 108.777344 " fill-opacity="1" fill-rule="nonzero"/></g><path fill="#ffffff" d="M 225.652344 116.445312 L 221.996094 116.445312 L 221.996094 125.785156 L 216.164062 130.601562 L 218.535156 133.453125 L 225.652344 127.554688 Z M 225.652344 116.445312 " fill-opacity="1" fill-rule="nonzero"/><g clip-path="url(#5129248e59)"><path fill="#ffffff" d="M 149.132812 113.792969 L 153.484375 113.792969 C 156.25 113.792969 158.523438 111.53125 158.523438 108.777344 L 158.523438 102.289062 L 154.867188 102.289062 L 154.867188 108.777344 C 154.867188 109.464844 154.273438 110.15625 153.484375 110.15625 L 149.132812 110.15625 C 148.441406 110.15625 147.75 109.566406 147.75 108.777344 L 147.75 102.289062 L 144.089844 102.289062 L 144.089844 108.777344 C 144.089844 111.53125 146.363281 113.792969 149.132812 113.792969 Z M 149.132812 113.792969 " fill-opacity="1" fill-rule="nonzero"/></g><path fill="#ffffff" d="M 149.527344 116.445312 L 149.527344 127.554688 L 156.644531 133.453125 L 159.019531 130.601562 L 153.1875 125.785156 L 153.1875 116.445312 Z M 149.527344 116.445312 " fill-opacity="1" fill-rule="nonzero"/><g clip-path="url(#14ababf5c7)"><path fill="#ffffff" d="M 214.582031 152.324219 C 214.679688 152.128906 214.679688 152.03125 214.679688 152.03125 C 214.679688 152.03125 214.875 151.636719 214.976562 151.046875 C 214.976562 150.949219 214.976562 150.949219 215.074219 150.851562 L 219.425781 151.832031 C 219.425781 151.832031 219.425781 151.734375 219.523438 151.636719 C 219.523438 151.441406 219.621094 151.242188 219.621094 150.949219 C 219.621094 150.652344 219.722656 150.359375 219.722656 150.0625 C 219.722656 149.769531 219.722656 149.375 219.820312 148.984375 C 219.820312 148.785156 219.820312 148.6875 219.820312 148.492188 C 219.820312 148.394531 219.820312 148.195312 219.820312 148.097656 C 219.820312 147.902344 219.820312 147.605469 219.820312 147.410156 C 219.820312 147.015625 219.820312 146.722656 219.820312 146.722656 L 215.371094 146.722656 C 215.371094 146.625 215.371094 146.527344 215.371094 146.527344 C 215.371094 145.9375 215.371094 145.445312 215.371094 145.445312 C 215.371094 145.445312 215.371094 145.347656 215.371094 145.148438 C 215.371094 144.953125 215.371094 144.757812 215.273438 144.363281 C 215.273438 144.265625 215.273438 144.167969 215.273438 144.167969 L 219.722656 143.476562 C 219.722656 143.476562 219.722656 143.378906 219.722656 143.183594 C 219.722656 142.988281 219.621094 142.789062 219.621094 142.496094 C 219.523438 142.003906 219.324219 141.21875 219.027344 140.628906 C 218.535156 139.25 217.742188 138.070312 217.742188 138.070312 L 213.886719 140.429688 C 213.492188 139.839844 213.195312 139.351562 213.195312 139.351562 C 213.195312 139.351562 213.097656 139.25 213 139.152344 C 212.898438 139.054688 212.703125 138.859375 212.503906 138.5625 C 212.503906 138.464844 212.40625 138.464844 212.304688 138.367188 L 215.46875 135.222656 C 215.46875 135.222656 214.480469 134.238281 213.296875 133.351562 C 212.109375 132.566406 210.726562 131.976562 210.726562 131.976562 L 208.945312 136.105469 C 208.847656 136.105469 208.847656 136.007812 208.746094 136.007812 C 208.449219 135.910156 208.253906 135.8125 208.054688 135.710938 C 207.859375 135.613281 207.757812 135.613281 207.757812 135.613281 C 207.757812 135.613281 207.363281 135.515625 206.769531 135.320312 C 206.671875 135.320312 206.574219 135.320312 206.574219 135.320312 L 207.363281 130.894531 C 207.363281 130.894531 206.96875 130.796875 206.472656 130.796875 C 206.175781 130.796875 205.878906 130.796875 205.582031 130.699219 C 205.386719 130.699219 205.1875 130.699219 205.089844 130.699219 C 204.890625 130.699219 204.695312 130.699219 204.59375 130.699219 C 203.507812 130.699219 202.519531 130.699219 202.519531 130.699219 L 202.519531 135.121094 C 201.726562 135.121094 201.234375 135.121094 201.234375 135.121094 L 199.949219 135.121094 L 199.949219 130.699219 L 195.796875 130.699219 L 195.796875 135.121094 L 193.226562 135.121094 L 193.226562 130.699219 L 189.074219 130.699219 L 189.074219 135.121094 L 186.503906 135.121094 L 186.503906 130.699219 L 182.351562 130.699219 L 182.351562 135.121094 L 180.671875 135.417969 L 179.386719 135.417969 L 179.386719 130.996094 L 175.234375 130.996094 L 175.234375 135.417969 L 173.949219 135.417969 C 173.949219 135.417969 173.453125 135.417969 172.664062 135.417969 L 172.664062 130.996094 C 172.664062 130.996094 171.574219 130.996094 170.585938 130.996094 C 169.101562 130.996094 167.71875 131.289062 167.71875 131.289062 L 168.609375 135.613281 C 167.917969 135.710938 167.421875 135.910156 167.421875 135.910156 C 167.421875 135.910156 167.027344 136.007812 166.433594 136.300781 C 166.335938 136.300781 166.335938 136.402344 166.234375 136.402344 L 164.359375 132.371094 C 164.359375 132.371094 164.0625 132.566406 163.566406 132.765625 C 163.074219 133.058594 162.480469 133.351562 161.886719 133.84375 C 161.589844 134.042969 161.292969 134.238281 160.996094 134.53125 C 160.699219 134.730469 160.503906 134.925781 160.304688 135.121094 C 159.910156 135.515625 159.613281 135.710938 159.613281 135.710938 L 162.875 138.761719 C 162.777344 138.859375 162.777344 138.859375 162.675781 138.957031 C 162.28125 139.449219 161.984375 139.742188 161.984375 139.742188 C 161.984375 139.742188 161.886719 139.839844 161.789062 139.941406 C 161.6875 140.039062 161.492188 140.332031 161.390625 140.53125 C 161.390625 140.628906 161.292969 140.628906 161.292969 140.726562 L 157.4375 138.464844 C 157.4375 138.464844 156.644531 139.742188 156.25 141.117188 C 155.953125 141.808594 155.855469 142.496094 155.757812 143.085938 C 155.65625 143.578125 155.65625 143.96875 155.65625 143.96875 L 160.105469 144.558594 C 159.910156 145.347656 159.910156 145.9375 159.910156 145.9375 C 159.910156 145.9375 159.910156 146.328125 159.910156 147.015625 C 159.910156 147.117188 159.910156 147.214844 159.910156 147.214844 L 155.460938 147.214844 C 155.460938 147.214844 155.460938 147.507812 155.460938 147.902344 C 155.460938 148.097656 155.460938 148.296875 155.460938 148.589844 C 155.460938 148.6875 155.460938 148.882812 155.460938 148.984375 C 155.460938 149.179688 155.460938 149.375 155.460938 149.472656 C 155.460938 150.949219 155.855469 152.324219 155.855469 152.324219 L 160.207031 151.242188 C 160.207031 151.34375 160.207031 151.441406 160.304688 151.441406 C 160.402344 151.734375 160.402344 152.03125 160.5 152.128906 C 160.601562 152.324219 160.601562 152.421875 160.601562 152.421875 C 160.601562 152.421875 160.601562 152.523438 160.699219 152.71875 C 160.796875 152.914062 160.898438 153.113281 160.996094 153.40625 C 160.996094 153.503906 161.09375 153.503906 161.09375 153.601562 L 157.140625 155.667969 C 157.140625 155.667969 157.832031 156.945312 158.722656 158.125 C 159.117188 158.714844 159.710938 159.207031 160.007812 159.597656 C 160.402344 159.992188 160.699219 160.1875 160.699219 160.1875 L 163.664062 156.847656 C 163.765625 156.945312 163.765625 156.945312 163.863281 157.042969 C 164.359375 157.4375 164.652344 157.632812 164.652344 157.632812 C 164.652344 157.632812 165.050781 157.929688 165.742188 158.320312 L 163.664062 162.253906 C 163.664062 162.253906 164.949219 162.941406 166.335938 163.335938 C 167.027344 163.53125 167.71875 163.726562 168.3125 163.726562 C 168.804688 163.828125 169.203125 163.828125 169.203125 163.828125 L 169.695312 159.402344 C 169.796875 159.402344 169.894531 159.402344 169.894531 159.402344 C 170.488281 159.402344 170.980469 159.402344 170.980469 159.402344 L 172.265625 159.402344 L 172.265625 163.828125 L 176.417969 163.828125 L 176.417969 159.402344 L 178.988281 159.402344 L 178.988281 163.828125 L 183.140625 163.828125 L 183.140625 159.402344 L 185.710938 159.402344 L 185.710938 163.828125 L 189.863281 163.828125 L 189.863281 159.402344 L 192.433594 159.402344 L 192.433594 163.828125 L 196.585938 163.828125 L 196.585938 159.402344 L 199.15625 159.402344 L 199.15625 163.828125 L 203.308594 163.828125 L 203.308594 159.402344 L 204.59375 159.402344 C 204.59375 159.402344 204.992188 159.402344 205.582031 159.304688 C 205.683594 159.304688 205.78125 159.304688 205.78125 159.304688 L 206.375 163.726562 C 206.375 163.726562 207.859375 163.53125 209.242188 163.136719 C 210.625 162.648438 211.910156 161.957031 211.910156 161.957031 L 209.734375 158.027344 C 209.835938 158.027344 209.835938 157.929688 209.933594 157.929688 C 210.230469 157.730469 210.429688 157.632812 210.527344 157.535156 C 210.625 157.4375 210.726562 157.339844 210.726562 157.339844 C 210.726562 157.339844 211.121094 157.042969 211.714844 156.550781 L 214.777344 159.796875 C 214.777344 159.796875 215.074219 159.597656 215.46875 159.207031 C 215.867188 158.8125 216.359375 158.320312 216.753906 157.730469 C 217.644531 156.550781 218.238281 155.273438 218.238281 155.273438 L 214.183594 153.308594 C 214.183594 153.210938 214.285156 153.210938 214.285156 153.113281 C 214.480469 152.816406 214.582031 152.523438 214.582031 152.324219 Z M 211.121094 148.785156 C 211.121094 149.277344 211.019531 149.769531 210.921875 150.164062 C 210.824219 150.554688 210.726562 150.753906 210.726562 150.753906 C 210.726562 150.753906 210.429688 151.734375 209.734375 152.523438 C 209.144531 153.40625 208.253906 153.996094 208.253906 153.996094 C 208.253906 153.996094 208.152344 153.996094 208.152344 154.09375 C 208.054688 154.191406 207.957031 154.191406 207.757812 154.292969 C 207.460938 154.488281 206.96875 154.683594 206.472656 154.882812 C 206.277344 154.980469 205.980469 154.980469 205.78125 155.078125 C 205.582031 155.078125 205.289062 155.175781 205.089844 155.175781 C 204.695312 155.175781 204.496094 155.175781 204.496094 155.175781 L 170.882812 155.175781 C 170.785156 155.175781 170.585938 155.175781 170.191406 155.175781 C 169.796875 155.175781 169.300781 155.078125 168.804688 154.882812 C 167.816406 154.585938 166.929688 153.996094 166.929688 153.996094 C 166.929688 153.996094 166.730469 153.800781 166.433594 153.601562 C 166.136719 153.308594 165.742188 153.011719 165.445312 152.621094 C 165.246094 152.421875 165.148438 152.226562 165.050781 152.03125 C 164.949219 151.832031 164.851562 151.636719 164.753906 151.441406 C 164.652344 151.242188 164.554688 151.144531 164.554688 151.046875 C 164.554688 150.949219 164.457031 150.851562 164.457031 150.851562 C 164.457031 150.851562 164.457031 150.753906 164.359375 150.652344 C 164.257812 150.554688 164.257812 150.359375 164.257812 150.261719 C 164.160156 150.0625 164.160156 149.867188 164.160156 149.671875 C 164.0625 149.472656 164.0625 149.179688 164.0625 148.882812 C 164.0625 148.6875 164.0625 148.195312 164.0625 147.804688 C 164.0625 147.410156 164.0625 147.015625 164.0625 146.722656 C 164.0625 146.425781 164.0625 146.132812 164.0625 145.9375 C 164.0625 145.835938 164.0625 145.738281 164.0625 145.738281 C 164.0625 145.738281 164.0625 144.757812 164.457031 143.773438 C 164.753906 142.789062 165.445312 142.003906 165.445312 142.003906 C 165.445312 142.003906 165.542969 141.808594 165.839844 141.511719 C 165.941406 141.316406 166.136719 141.21875 166.335938 141.019531 C 166.53125 140.824219 166.730469 140.726562 166.929688 140.53125 C 167.125 140.332031 167.324219 140.234375 167.519531 140.136719 C 167.71875 140.039062 167.917969 139.941406 168.113281 139.839844 C 168.511719 139.742188 168.707031 139.644531 168.707031 139.644531 C 168.707031 139.644531 169.695312 139.351562 170.683594 139.351562 C 172.367188 139.351562 174.046875 139.351562 174.046875 139.351562 L 200.9375 139.351562 C 200.9375 139.351562 202.617188 139.351562 204.296875 139.351562 C 204.59375 139.351562 204.890625 139.351562 205.089844 139.351562 C 205.289062 139.351562 205.582031 139.449219 205.78125 139.449219 C 206.175781 139.546875 206.375 139.644531 206.375 139.644531 C 206.375 139.644531 206.574219 139.742188 206.96875 139.839844 C 207.164062 139.941406 207.363281 140.039062 207.5625 140.136719 C 207.757812 140.234375 207.957031 140.429688 208.152344 140.527344 C 208.550781 140.824219 208.945312 141.117188 209.242188 141.414062 C 209.339844 141.511719 209.441406 141.707031 209.539062 141.707031 C 209.636719 141.808594 209.636719 141.808594 209.636719 141.808594 C 209.636719 141.808594 210.328125 142.59375 210.625 143.578125 C 211.019531 144.558594 211.019531 145.542969 211.019531 145.542969 C 211.019531 145.542969 211.019531 145.640625 211.019531 145.738281 C 211.019531 145.835938 211.019531 146.132812 211.019531 146.425781 C 211.019531 146.722656 211.019531 147.117188 211.019531 147.507812 C 211.019531 147.707031 211.019531 147.902344 211.019531 148.097656 L 211.019531 148.394531 Z M 211.121094 148.785156 " fill-opacity="1" fill-rule="nonzero"/></g><path fill="#ffffff" d="M 173.859375 146.394531 C 173.992188 146.734375 174.058594 147.085938 174.050781 147.453125 C 174.046875 147.816406 173.96875 148.167969 173.824219 148.5 C 173.679688 148.835938 173.472656 149.132812 173.210938 149.386719 C 172.945312 149.640625 172.644531 149.832031 172.300781 149.96875 C 171.960938 150.101562 171.605469 150.164062 171.238281 150.160156 C 170.871094 150.152344 170.519531 150.078125 170.183594 149.933594 C 169.847656 149.789062 169.550781 149.585938 169.296875 149.320312 C 169.039062 149.058594 168.84375 148.757812 168.710938 148.417969 C 168.574219 148.082031 168.511719 147.726562 168.515625 147.363281 C 168.523438 147 168.597656 146.648438 168.746094 146.3125 C 168.890625 145.976562 169.09375 145.683594 169.359375 145.429688 C 169.621094 145.175781 169.925781 144.980469 170.265625 144.847656 C 170.609375 144.714844 170.960938 144.648438 171.328125 144.65625 C 171.695312 144.660156 172.046875 144.738281 172.386719 144.882812 C 172.722656 145.027344 173.019531 145.230469 173.273438 145.492188 C 173.527344 145.753906 173.722656 146.054688 173.859375 146.394531 Z M 173.859375 146.394531 " fill-opacity="1" fill-rule="nonzero"/><path fill="#ffffff" d="M 207.058594 145.515625 C 207.195312 145.855469 207.257812 146.207031 207.253906 146.574219 C 207.246094 146.9375 207.171875 147.289062 207.027344 147.625 C 206.878906 147.957031 206.675781 148.253906 206.410156 148.507812 C 206.148438 148.761719 205.84375 148.953125 205.503906 149.089844 C 205.164062 149.222656 204.808594 149.289062 204.441406 149.28125 C 204.074219 149.277344 203.722656 149.199219 203.386719 149.054688 C 203.046875 148.910156 202.753906 148.707031 202.496094 148.445312 C 202.242188 148.183594 202.046875 147.882812 201.910156 147.542969 C 201.777344 147.203125 201.710938 146.851562 201.71875 146.484375 C 201.722656 146.121094 201.800781 145.769531 201.945312 145.433594 C 202.089844 145.101562 202.296875 144.804688 202.558594 144.550781 C 202.824219 144.296875 203.125 144.105469 203.46875 143.96875 C 203.808594 143.835938 204.164062 143.773438 204.53125 143.777344 C 204.898438 143.785156 205.25 143.859375 205.585938 144.003906 C 205.921875 144.148438 206.21875 144.351562 206.472656 144.613281 C 206.730469 144.878906 206.925781 145.179688 207.058594 145.515625 Z M 207.058594 145.515625 " fill-opacity="1" fill-rule="nonzero"/><path fill="#ffffff" d="M 190.453125 146.011719 C 190.585938 146.351562 190.652344 146.703125 190.644531 147.066406 C 190.640625 147.433594 190.5625 147.78125 190.417969 148.117188 C 190.273438 148.453125 190.066406 148.746094 189.804688 149 C 189.539062 149.253906 189.238281 149.449219 188.894531 149.582031 C 188.554688 149.71875 188.199219 149.78125 187.832031 149.773438 C 187.464844 149.769531 187.113281 149.695312 186.777344 149.550781 C 186.441406 149.402344 186.144531 149.199219 185.890625 148.9375 C 185.632812 148.675781 185.4375 148.375 185.304688 148.035156 C 185.167969 147.695312 185.105469 147.34375 185.109375 146.980469 C 185.117188 146.613281 185.191406 146.265625 185.335938 145.929688 C 185.484375 145.59375 185.6875 145.300781 185.953125 145.046875 C 186.214844 144.792969 186.519531 144.597656 186.859375 144.464844 C 187.203125 144.328125 187.554688 144.265625 187.921875 144.269531 C 188.289062 144.277344 188.640625 144.351562 188.976562 144.496094 C 189.316406 144.644531 189.609375 144.847656 189.867188 145.109375 C 190.121094 145.371094 190.316406 145.671875 190.453125 146.011719 Z M 190.453125 146.011719 " fill-opacity="1" fill-rule="nonzero"/><g clip-path="url(#da4d5246b0)"><path fill="#ffffff" d="M 169.992188 91.578125 L 169.992188 99.046875 C 169.894531 99.046875 169.695312 99.046875 169.597656 99.046875 L 167.816406 99.046875 C 165.542969 99.046875 163.765625 100.816406 163.765625 103.078125 L 163.765625 111.53125 C 163.765625 113.792969 165.542969 115.5625 167.816406 115.5625 L 169.5 115.5625 C 169.597656 115.5625 169.796875 115.5625 169.894531 115.5625 L 169.894531 124.898438 L 185.710938 124.898438 L 185.710938 127.75 L 189.371094 127.75 L 189.371094 124.898438 L 205.1875 124.898438 L 205.1875 115.5625 C 205.289062 115.5625 205.484375 115.5625 205.582031 115.5625 L 207.363281 115.5625 C 209.636719 115.5625 211.417969 113.792969 211.417969 111.53125 L 211.417969 103.078125 C 211.417969 100.816406 209.636719 99.046875 207.363281 99.046875 L 205.683594 99.046875 C 205.582031 99.046875 205.386719 99.046875 205.289062 99.046875 L 205.289062 91.578125 L 189.46875 91.578125 L 189.46875 87.742188 C 192.039062 86.957031 193.917969 84.597656 193.917969 81.746094 C 193.917969 78.304688 191.050781 75.457031 187.589844 75.457031 C 184.128906 75.457031 181.261719 78.304688 181.261719 81.746094 C 181.261719 84.597656 183.140625 86.957031 185.710938 87.742188 L 185.710938 91.578125 Z M 169.894531 111.433594 C 169.894531 111.628906 169.695312 111.726562 169.597656 111.726562 L 167.816406 111.726562 C 167.621094 111.726562 167.519531 111.53125 167.519531 111.433594 L 167.519531 102.980469 C 167.519531 102.78125 167.71875 102.683594 167.816406 102.683594 L 169.5 102.683594 C 169.695312 102.683594 169.796875 102.878906 169.796875 102.980469 L 169.796875 111.433594 Z M 205.289062 103.078125 C 205.289062 102.878906 205.484375 102.78125 205.582031 102.78125 L 207.363281 102.78125 C 207.5625 102.78125 207.660156 102.980469 207.660156 103.078125 L 207.660156 111.53125 C 207.660156 111.726562 207.460938 111.824219 207.363281 111.824219 L 205.683594 111.824219 C 205.484375 111.824219 205.386719 111.628906 205.386719 111.53125 L 205.386719 103.078125 Z M 185.019531 81.746094 C 185.019531 80.273438 186.207031 79.191406 187.589844 79.191406 C 188.976562 79.191406 190.160156 80.371094 190.160156 81.746094 C 190.160156 83.121094 189.074219 84.300781 187.589844 84.300781 C 186.109375 84.300781 185.019531 83.121094 185.019531 81.746094 Z M 201.53125 95.214844 L 201.53125 121.066406 L 173.652344 121.066406 L 173.652344 95.214844 Z M 201.53125 95.214844 " fill-opacity="1" fill-rule="nonzero"/></g><path fill="#ffffff" d="M 181.558594 111.039062 C 184.128906 111.039062 186.207031 108.976562 186.207031 106.417969 C 186.207031 103.863281 184.128906 101.800781 181.558594 101.800781 C 178.988281 101.800781 176.914062 103.863281 176.914062 106.417969 C 176.8125 108.878906 178.988281 111.039062 181.558594 111.039062 Z M 181.558594 104.453125 C 182.648438 104.453125 183.4375 105.339844 183.4375 106.320312 C 183.4375 107.402344 182.546875 108.1875 181.558594 108.1875 C 180.472656 108.1875 179.679688 107.304688 179.679688 106.320312 C 179.582031 105.339844 180.472656 104.453125 181.558594 104.453125 Z M 181.558594 104.453125 " fill-opacity="1" fill-rule="nonzero"/><path fill="#ffffff" d="M 193.621094 111.039062 C 196.191406 111.039062 198.269531 108.976562 198.269531 106.417969 C 198.269531 103.863281 196.191406 101.800781 193.621094 101.800781 C 191.050781 101.800781 188.976562 103.863281 188.976562 106.417969 C 188.976562 108.878906 191.050781 111.039062 193.621094 111.039062 Z M 193.621094 104.453125 C 194.707031 104.453125 195.5 105.339844 195.5 106.320312 C 195.5 107.402344 194.609375 108.1875 193.621094 108.1875 C 192.535156 108.1875 191.742188 107.304688 191.742188 106.320312 C 191.742188 105.339844 192.632812 104.453125 193.621094 104.453125 Z M 193.621094 104.453125 " fill-opacity="1" fill-rule="nonzero"/><g clip-path="url(#f40a6a4c37)"><path fill="#ffffff" d="M 138.703125 153.296875 L 15.058594 153.296875 C 12.621094 153.296875 10.640625 155.308594 10.640625 157.796875 C 10.640625 160.28125 12.621094 162.296875 15.058594 162.296875 L 138.703125 162.296875 C 141.140625 162.296875 143.117188 160.28125 143.117188 157.796875 C 143.117188 155.308594 141.140625 153.296875 138.703125 153.296875 Z M 138.703125 153.296875 " fill-opacity="1" fill-rule="nonzero"/></g><g clip-path="url(#37e1106fca)"><path fill="#ffffff" d="M 360.230469 153.296875 L 236.585938 153.296875 C 234.148438 153.296875 232.171875 155.308594 232.171875 157.796875 C 232.171875 160.28125 234.148438 162.296875 236.585938 162.296875 L 360.230469 162.296875 C 362.667969 162.296875 364.648438 160.28125 364.648438 157.796875 C 364.648438 155.308594 362.667969 153.296875 360.230469 153.296875 Z M 360.230469 153.296875 " fill-opacity="1" fill-rule="nonzero"/></g><g fill="#ffffff" fill-opacity="1"><g transform="translate(19.471431, 231.99193)"><g><path d="M 3.453125 0 L 1.828125 0 L 0.359375 -10.71875 L 1.515625 -10.71875 L 2.765625 -1.59375 L 3.96875 -10.703125 L 5.140625 -10.703125 L 6.328125 -1.578125 L 7.53125 -10.71875 L 8.578125 -10.71875 L 7.125 0 L 5.546875 0 L 4.515625 -7.265625 Z M 3.453125 0 "/></g></g></g><g fill="#ffffff" fill-opacity="1"><g transform="translate(28.399472, 231.99193)"><g><path d="M 1.8125 -4.828125 L 1.8125 0 L 0.609375 0 L 0.609375 -10.71875 L 1.8125 -10.71875 L 1.8125 -5.890625 L 4.4375 -5.890625 L 4.4375 -10.71875 L 5.640625 -10.71875 L 5.640625 0 L 4.4375 0 L 4.4375 -4.828125 Z M 1.8125 -4.828125 "/></g></g></g><g fill="#ffffff" fill-opacity="1"><g transform="translate(34.647571, 231.99193)"><g><path d="M 2.515625 -3.84375 L 0.25 -10.71875 L 1.484375 -10.71875 L 3.15625 -5.453125 L 4.84375 -10.71875 L 5.96875 -10.71875 L 3.6875 -3.84375 L 3.6875 0 L 2.515625 0 Z M 2.515625 -3.84375 "/></g></g></g><g fill="#ffffff" fill-opacity="1"><g transform="translate(40.865045, 231.99193)"><g/></g></g><g fill="#ffffff" fill-opacity="1"><g transform="translate(43.238715, 231.99193)"><g><path d="M 2.859375 -10.828125 C 3.679688 -10.828125 4.285156 -10.582031 4.671875 -10.09375 C 5.054688 -9.613281 5.25 -8.960938 5.25 -8.140625 L 5.25 -7.859375 L 4.125 -7.859375 L 4.125 -8.203125 C 4.125 -8.691406 4.023438 -9.066406 3.828125 -9.328125 C 3.628906 -9.597656 3.316406 -9.734375 2.890625 -9.734375 C 2.460938 -9.734375 2.148438 -9.597656 1.953125 -9.328125 C 1.765625 -9.066406 1.671875 -8.695312 1.671875 -8.21875 C 1.671875 -7.820312 1.757812 -7.472656 1.9375 -7.171875 C 2.113281 -6.878906 2.332031 -6.609375 2.59375 -6.359375 C 2.863281 -6.109375 3.15625 -5.863281 3.46875 -5.625 C 3.78125 -5.382812 4.066406 -5.117188 4.328125 -4.828125 C 4.597656 -4.546875 4.820312 -4.222656 5 -3.859375 C 5.175781 -3.503906 5.265625 -3.078125 5.265625 -2.578125 C 5.265625 -1.753906 5.066406 -1.097656 4.671875 -0.609375 C 4.285156 -0.128906 3.675781 0.109375 2.84375 0.109375 C 2.019531 0.109375 1.410156 -0.128906 1.015625 -0.609375 C 0.628906 -1.097656 0.4375 -1.753906 0.4375 -2.578125 L 0.4375 -3.1875 L 1.5625 -3.1875 L 1.5625 -2.515625 C 1.5625 -2.023438 1.660156 -1.644531 1.859375 -1.375 C 2.066406 -1.113281 2.382812 -0.984375 2.8125 -0.984375 C 3.238281 -0.984375 3.554688 -1.113281 3.765625 -1.375 C 3.972656 -1.644531 4.078125 -2.023438 4.078125 -2.515625 C 4.078125 -2.910156 3.984375 -3.253906 3.796875 -3.546875 C 3.617188 -3.835938 3.394531 -4.109375 3.125 -4.359375 C 2.863281 -4.609375 2.582031 -4.851562 2.28125 -5.09375 C 1.976562 -5.332031 1.691406 -5.59375 1.421875 -5.875 C 1.160156 -6.164062 0.9375 -6.488281 0.75 -6.84375 C 0.570312 -7.207031 0.484375 -7.640625 0.484375 -8.140625 C 0.484375 -8.972656 0.675781 -9.628906 1.0625 -10.109375 C 1.457031 -10.585938 2.054688 -10.828125 2.859375 -10.828125 Z M 2.859375 -10.828125 "/></g></g></g><g fill="#ffffff" fill-opacity="1"><g transform="translate(48.935509, 231.99193)"><g><path d="M 2.953125 -10.71875 C 3.796875 -10.71875 4.40625 -10.484375 4.78125 -10.015625 C 5.164062 -9.554688 5.359375 -8.914062 5.359375 -8.09375 L 5.359375 -6.8125 C 5.359375 -5.957031 5.15625 -5.3125 4.75 -4.875 C 4.351562 -4.4375 3.722656 -4.21875 2.859375 -4.21875 L 1.8125 -4.21875 L 1.8125 0 L 0.609375 0 L 0.609375 -10.71875 Z M 2.859375 -5.296875 C 3.304688 -5.296875 3.640625 -5.40625 3.859375 -5.625 C 4.078125 -5.84375 4.1875 -6.210938 4.1875 -6.734375 L 4.1875 -8.15625 C 4.1875 -8.644531 4.085938 -9.007812 3.890625 -9.25 C 3.703125 -9.5 3.390625 -9.625 2.953125 -9.625 L 1.8125 -9.625 L 1.8125 -5.296875 Z M 2.859375 -5.296875 "/></g></g></g><g fill="#ffffff" fill-opacity="1"><g transform="translate(54.616982, 231.99193)"><g><path d="M 4.421875 -5.96875 L 4.421875 -4.90625 L 1.8125 -4.90625 L 1.8125 -1.09375 L 5.015625 -1.09375 L 5.015625 0 L 0.609375 0 L 0.609375 -10.71875 L 5.015625 -10.71875 L 5.015625 -9.625 L 1.8125 -9.625 L 1.8125 -5.96875 Z M 4.421875 -5.96875 "/></g></g></g><g fill="#ffffff" fill-opacity="1"><g transform="translate(60.130007, 231.99193)"><g><path d="M 1.671875 0 L 0.59375 0 L 0.59375 -10.71875 L 2.109375 -10.71875 L 4.59375 -2.96875 L 4.59375 -10.71875 L 5.65625 -10.71875 L 5.65625 0 L 4.40625 0 L 1.671875 -8.671875 Z M 1.671875 0 "/></g></g></g><g fill="#ffffff" fill-opacity="1"><g transform="translate(66.393412, 231.99193)"><g><path d="M 3.125 -10.71875 C 3.957031 -10.71875 4.570312 -10.476562 4.96875 -10 C 5.363281 -9.53125 5.5625 -8.878906 5.5625 -8.046875 L 5.5625 -2.65625 C 5.5625 -1.820312 5.363281 -1.171875 4.96875 -0.703125 C 4.570312 -0.234375 3.957031 0 3.125 0 L 0.609375 0 L 0.609375 -10.71875 Z M 3.109375 -1.09375 C 3.535156 -1.09375 3.851562 -1.222656 4.0625 -1.484375 C 4.269531 -1.742188 4.375 -2.117188 4.375 -2.609375 L 4.375 -8.109375 C 4.375 -8.597656 4.269531 -8.972656 4.0625 -9.234375 C 3.851562 -9.492188 3.53125 -9.625 3.09375 -9.625 L 1.8125 -9.625 L 1.8125 -1.09375 Z M 3.109375 -1.09375 "/></g></g></g><g fill="#ffffff" fill-opacity="1"><g transform="translate(72.457743, 231.99193)"><g/></g></g><g fill="#ffffff" fill-opacity="1"><g transform="translate(74.831413, 231.99193)"><g><path d="M 3.015625 -10.828125 C 3.847656 -10.828125 4.457031 -10.582031 4.84375 -10.09375 C 5.238281 -9.601562 5.4375 -8.941406 5.4375 -8.109375 C 5.4375 -7.566406 5.347656 -7.078125 5.171875 -6.640625 C 4.992188 -6.210938 4.769531 -5.8125 4.5 -5.4375 C 4.226562 -5.070312 3.9375 -4.722656 3.625 -4.390625 C 3.3125 -4.066406 3.019531 -3.738281 2.75 -3.40625 C 2.476562 -3.082031 2.25 -2.742188 2.0625 -2.390625 C 1.882812 -2.046875 1.796875 -1.664062 1.796875 -1.25 L 1.796875 -1.09375 L 5.3125 -1.09375 L 5.3125 0 L 0.609375 0 L 0.609375 -0.921875 C 0.609375 -1.492188 0.695312 -2 0.875 -2.4375 C 1.050781 -2.875 1.273438 -3.273438 1.546875 -3.640625 C 1.816406 -4.003906 2.109375 -4.34375 2.421875 -4.65625 C 2.734375 -4.976562 3.023438 -5.304688 3.296875 -5.640625 C 3.566406 -5.984375 3.789062 -6.347656 3.96875 -6.734375 C 4.144531 -7.117188 4.234375 -7.5625 4.234375 -8.0625 C 4.234375 -8.613281 4.132812 -9.03125 3.9375 -9.3125 C 3.75 -9.601562 3.429688 -9.75 2.984375 -9.75 C 2.546875 -9.75 2.226562 -9.601562 2.03125 -9.3125 C 1.832031 -9.03125 1.734375 -8.648438 1.734375 -8.171875 L 1.734375 -7.234375 L 0.609375 -7.234375 L 0.609375 -8.09375 C 0.609375 -8.925781 0.800781 -9.585938 1.1875 -10.078125 C 1.582031 -10.578125 2.191406 -10.828125 3.015625 -10.828125 Z M 3.015625 -10.828125 "/></g></g></g><g fill="#ffffff" fill-opacity="1"><g transform="translate(80.757921, 231.99193)"><g/></g></g><g fill="#ffffff" fill-opacity="1"><g transform="translate(83.131591, 231.99193)"><g><path d="M 4.5625 -0.015625 L 3.421875 -0.015625 L 1.640625 -8.546875 L 1.640625 0 L 0.59375 0 L 0.59375 -10.71875 L 2.265625 -10.71875 L 4.03125 -2.15625 L 5.734375 -10.71875 L 7.390625 -10.71875 L 7.390625 0 L 6.265625 0 L 6.265625 -8.625 Z M 4.5625 -0.015625 "/></g></g></g><g fill="#ffffff" fill-opacity="1"><g transform="translate(91.140789, 231.99193)"><g><path d="M 1.8125 -10.71875 L 1.8125 0 L 0.609375 0 L 0.609375 -10.71875 Z M 1.8125 -10.71875 "/></g></g></g><g fill="#ffffff" fill-opacity="1"><g transform="translate(93.560391, 231.99193)"><g><path d="M 1.671875 0 L 0.59375 0 L 0.59375 -10.71875 L 2.109375 -10.71875 L 4.59375 -2.96875 L 4.59375 -10.71875 L 5.65625 -10.71875 L 5.65625 0 L 4.40625 0 L 1.671875 -8.671875 Z M 1.671875 0 "/></g></g></g><g fill="#ffffff" fill-opacity="1"><g transform="translate(99.823795, 231.99193)"><g><path d="M 1.75 -2.53125 C 1.75 -2.039062 1.847656 -1.660156 2.046875 -1.390625 C 2.242188 -1.117188 2.5625 -0.984375 3 -0.984375 C 3.425781 -0.984375 3.738281 -1.117188 3.9375 -1.390625 C 4.132812 -1.660156 4.234375 -2.039062 4.234375 -2.53125 L 4.234375 -10.71875 L 5.359375 -10.71875 L 5.359375 -2.59375 C 5.359375 -1.769531 5.164062 -1.109375 4.78125 -0.609375 C 4.394531 -0.117188 3.785156 0.125 2.953125 0.125 C 2.140625 0.125 1.535156 -0.117188 1.140625 -0.609375 C 0.753906 -1.109375 0.5625 -1.769531 0.5625 -2.59375 L 0.5625 -10.71875 L 1.75 -10.71875 Z M 1.75 -2.53125 "/></g></g></g><g fill="#ffffff" fill-opacity="1"><g transform="translate(105.750304, 231.99193)"><g><path d="M 2.15625 0 L 2.15625 -9.625 L 0.1875 -9.625 L 0.1875 -10.71875 L 5.3125 -10.71875 L 5.3125 -9.625 L 3.34375 -9.625 L 3.34375 0 Z M 2.15625 0 "/></g></g></g><g fill="#ffffff" fill-opacity="1"><g transform="translate(111.263329, 231.99193)"><g><path d="M 4.421875 -5.96875 L 4.421875 -4.90625 L 1.8125 -4.90625 L 1.8125 -1.09375 L 5.015625 -1.09375 L 5.015625 0 L 0.609375 0 L 0.609375 -10.71875 L 5.015625 -10.71875 L 5.015625 -9.625 L 1.8125 -9.625 L 1.8125 -5.96875 Z M 4.421875 -5.96875 "/></g></g></g><g fill="#ffffff" fill-opacity="1"><g transform="translate(116.776354, 231.99193)"><g><path d="M 2.859375 -10.828125 C 3.679688 -10.828125 4.285156 -10.582031 4.671875 -10.09375 C 5.054688 -9.613281 5.25 -8.960938 5.25 -8.140625 L 5.25 -7.859375 L 4.125 -7.859375 L 4.125 -8.203125 C 4.125 -8.691406 4.023438 -9.066406 3.828125 -9.328125 C 3.628906 -9.597656 3.316406 -9.734375 2.890625 -9.734375 C 2.460938 -9.734375 2.148438 -9.597656 1.953125 -9.328125 C 1.765625 -9.066406 1.671875 -8.695312 1.671875 -8.21875 C 1.671875 -7.820312 1.757812 -7.472656 1.9375 -7.171875 C 2.113281 -6.878906 2.332031 -6.609375 2.59375 -6.359375 C 2.863281 -6.109375 3.15625 -5.863281 3.46875 -5.625 C 3.78125 -5.382812 4.066406 -5.117188 4.328125 -4.828125 C 4.597656 -4.546875 4.820312 -4.222656 5 -3.859375 C 5.175781 -3.503906 5.265625 -3.078125 5.265625 -2.578125 C 5.265625 -1.753906 5.066406 -1.097656 4.671875 -0.609375 C 4.285156 -0.128906 3.675781 0.109375 2.84375 0.109375 C 2.019531 0.109375 1.410156 -0.128906 1.015625 -0.609375 C 0.628906 -1.097656 0.4375 -1.753906 0.4375 -2.578125 L 0.4375 -3.1875 L 1.5625 -3.1875 L 1.5625 -2.515625 C 1.5625 -2.023438 1.660156 -1.644531 1.859375 -1.375 C 2.066406 -1.113281 2.382812 -0.984375 2.8125 -0.984375 C 3.238281 -0.984375 3.554688 -1.113281 3.765625 -1.375 C 3.972656 -1.644531 4.078125 -2.023438 4.078125 -2.515625 C 4.078125 -2.910156 3.984375 -3.253906 3.796875 -3.546875 C 3.617188 -3.835938 3.394531 -4.109375 3.125 -4.359375 C 2.863281 -4.609375 2.582031 -4.851562 2.28125 -5.09375 C 1.976562 -5.332031 1.691406 -5.59375 1.421875 -5.875 C 1.160156 -6.164062 0.9375 -6.488281 0.75 -6.84375 C 0.570312 -7.207031 0.484375 -7.640625 0.484375 -8.140625 C 0.484375 -8.972656 0.675781 -9.628906 1.0625 -10.109375 C 1.457031 -10.585938 2.054688 -10.828125 2.859375 -10.828125 Z M 2.859375 -10.828125 "/></g></g></g><g fill="#ffffff" fill-opacity="1"><g transform="translate(122.473148, 231.99193)"><g/></g></g><g fill="#ffffff" fill-opacity="1"><g transform="translate(124.846818, 231.99193)"><g><path d="M 3.125 -10.71875 C 3.957031 -10.71875 4.570312 -10.476562 4.96875 -10 C 5.363281 -9.53125 5.5625 -8.878906 5.5625 -8.046875 L 5.5625 -2.65625 C 5.5625 -1.820312 5.363281 -1.171875 4.96875 -0.703125 C 4.570312 -0.234375 3.957031 0 3.125 0 L 0.609375 0 L 0.609375 -10.71875 Z M 3.109375 -1.09375 C 3.535156 -1.09375 3.851562 -1.222656 4.0625 -1.484375 C 4.269531 -1.742188 4.375 -2.117188 4.375 -2.609375 L 4.375 -8.109375 C 4.375 -8.597656 4.269531 -8.972656 4.0625 -9.234375 C 3.851562 -9.492188 3.53125 -9.625 3.09375 -9.625 L 1.8125 -9.625 L 1.8125 -1.09375 Z M 3.109375 -1.09375 "/></g></g></g><g fill="#ffffff" fill-opacity="1"><g transform="translate(130.911149, 231.99193)"><g><path d="M 0.515625 -8.125 C 0.515625 -8.957031 0.71875 -9.613281 1.125 -10.09375 C 1.53125 -10.582031 2.144531 -10.828125 2.96875 -10.828125 C 3.789062 -10.828125 4.40625 -10.582031 4.8125 -10.09375 C 5.226562 -9.613281 5.4375 -8.957031 5.4375 -8.125 L 5.4375 -2.59375 C 5.4375 -1.769531 5.226562 -1.113281 4.8125 -0.625 C 4.40625 -0.132812 3.789062 0.109375 2.96875 0.109375 C 2.144531 0.109375 1.53125 -0.132812 1.125 -0.625 C 0.71875 -1.113281 0.515625 -1.769531 0.515625 -2.59375 Z M 1.703125 -2.53125 C 1.703125 -2.039062 1.804688 -1.660156 2.015625 -1.390625 C 2.222656 -1.117188 2.539062 -0.984375 2.96875 -0.984375 C 3.40625 -0.984375 3.722656 -1.117188 3.921875 -1.390625 C 4.128906 -1.660156 4.234375 -2.039062 4.234375 -2.53125 L 4.234375 -8.1875 C 4.234375 -8.675781 4.128906 -9.054688 3.921875 -9.328125 C 3.722656 -9.597656 3.40625 -9.734375 2.96875 -9.734375 C 2.539062 -9.734375 2.222656 -9.597656 2.015625 -9.328125 C 1.804688 -9.054688 1.703125 -8.675781 1.703125 -8.1875 Z M 1.703125 -2.53125 "/></g></g></g><g fill="#ffffff" fill-opacity="1"><g transform="translate(136.868283, 231.99193)"><g><path d="M 1.8125 -10.71875 L 1.8125 0 L 0.609375 0 L 0.609375 -10.71875 Z M 1.8125 -10.71875 "/></g></g></g><g fill="#ffffff" fill-opacity="1"><g transform="translate(139.287884, 231.99193)"><g><path d="M 1.671875 0 L 0.59375 0 L 0.59375 -10.71875 L 2.109375 -10.71875 L 4.59375 -2.96875 L 4.59375 -10.71875 L 5.65625 -10.71875 L 5.65625 0 L 4.40625 0 L 1.671875 -8.671875 Z M 1.671875 0 "/></g></g></g><g fill="#ffffff" fill-opacity="1"><g transform="translate(145.551289, 231.99193)"><g><path d="M 2.921875 -10.828125 C 3.753906 -10.828125 4.363281 -10.582031 4.75 -10.09375 C 5.144531 -9.601562 5.34375 -8.945312 5.34375 -8.125 L 5.34375 -7.21875 L 4.203125 -7.21875 L 4.203125 -8.1875 C 4.203125 -8.675781 4.101562 -9.054688 3.90625 -9.328125 C 3.707031 -9.597656 3.390625 -9.734375 2.953125 -9.734375 C 2.523438 -9.734375 2.207031 -9.597656 2 -9.328125 C 1.800781 -9.054688 1.703125 -8.675781 1.703125 -8.1875 L 1.703125 -2.53125 C 1.703125 -2.039062 1.800781 -1.660156 2 -1.390625 C 2.207031 -1.117188 2.523438 -0.984375 2.953125 -0.984375 C 3.390625 -0.984375 3.707031 -1.117188 3.90625 -1.390625 C 4.101562 -1.660156 4.203125 -2.039062 4.203125 -2.53125 L 4.203125 -4.671875 L 3.109375 -4.671875 L 3.109375 -5.734375 L 5.34375 -5.734375 L 5.34375 -2.59375 C 5.34375 -1.769531 5.144531 -1.113281 4.75 -0.625 C 4.363281 -0.132812 3.753906 0.109375 2.921875 0.109375 C 2.109375 0.109375 1.503906 -0.132812 1.109375 -0.625 C 0.710938 -1.113281 0.515625 -1.769531 0.515625 -2.59375 L 0.515625 -8.125 C 0.515625 -8.539062 0.5625 -8.910156 0.65625 -9.234375 C 0.757812 -9.566406 0.910156 -9.847656 1.109375 -10.078125 C 1.304688 -10.316406 1.554688 -10.5 1.859375 -10.625 C 2.160156 -10.757812 2.515625 -10.828125 2.921875 -10.828125 Z M 2.921875 -10.828125 "/></g></g></g><g fill="#ffffff" fill-opacity="1"><g transform="translate(151.416531, 231.99193)"><g/></g></g><g fill="#ffffff" fill-opacity="1"><g transform="translate(153.790201, 231.99193)"><g><path d="M 2.859375 -10.828125 C 3.679688 -10.828125 4.285156 -10.582031 4.671875 -10.09375 C 5.054688 -9.613281 5.25 -8.960938 5.25 -8.140625 L 5.25 -7.859375 L 4.125 -7.859375 L 4.125 -8.203125 C 4.125 -8.691406 4.023438 -9.066406 3.828125 -9.328125 C 3.628906 -9.597656 3.316406 -9.734375 2.890625 -9.734375 C 2.460938 -9.734375 2.148438 -9.597656 1.953125 -9.328125 C 1.765625 -9.066406 1.671875 -8.695312 1.671875 -8.21875 C 1.671875 -7.820312 1.757812 -7.472656 1.9375 -7.171875 C 2.113281 -6.878906 2.332031 -6.609375 2.59375 -6.359375 C 2.863281 -6.109375 3.15625 -5.863281 3.46875 -5.625 C 3.78125 -5.382812 4.066406 -5.117188 4.328125 -4.828125 C 4.597656 -4.546875 4.820312 -4.222656 5 -3.859375 C 5.175781 -3.503906 5.265625 -3.078125 5.265625 -2.578125 C 5.265625 -1.753906 5.066406 -1.097656 4.671875 -0.609375 C 4.285156 -0.128906 3.675781 0.109375 2.84375 0.109375 C 2.019531 0.109375 1.410156 -0.128906 1.015625 -0.609375 C 0.628906 -1.097656 0.4375 -1.753906 0.4375 -2.578125 L 0.4375 -3.1875 L 1.5625 -3.1875 L 1.5625 -2.515625 C 1.5625 -2.023438 1.660156 -1.644531 1.859375 -1.375 C 2.066406 -1.113281 2.382812 -0.984375 2.8125 -0.984375 C 3.238281 -0.984375 3.554688 -1.113281 3.765625 -1.375 C 3.972656 -1.644531 4.078125 -2.023438 4.078125 -2.515625 C 4.078125 -2.910156 3.984375 -3.253906 3.796875 -3.546875 C 3.617188 -3.835938 3.394531 -4.109375 3.125 -4.359375 C 2.863281 -4.609375 2.582031 -4.851562 2.28125 -5.09375 C 1.976562 -5.332031 1.691406 -5.59375 1.421875 -5.875 C 1.160156 -6.164062 0.9375 -6.488281 0.75 -6.84375 C 0.570312 -7.207031 0.484375 -7.640625 0.484375 -8.140625 C 0.484375 -8.972656 0.675781 -9.628906 1.0625 -10.109375 C 1.457031 -10.585938 2.054688 -10.828125 2.859375 -10.828125 Z M 2.859375 -10.828125 "/></g></g></g><g fill="#ffffff" fill-opacity="1"><g transform="translate(159.486995, 231.99193)"><g><path d="M 0.515625 -8.125 C 0.515625 -8.957031 0.71875 -9.613281 1.125 -10.09375 C 1.53125 -10.582031 2.144531 -10.828125 2.96875 -10.828125 C 3.789062 -10.828125 4.40625 -10.582031 4.8125 -10.09375 C 5.226562 -9.613281 5.4375 -8.957031 5.4375 -8.125 L 5.4375 -2.59375 C 5.4375 -1.769531 5.226562 -1.113281 4.8125 -0.625 C 4.40625 -0.132812 3.789062 0.109375 2.96875 0.109375 C 2.144531 0.109375 1.53125 -0.132812 1.125 -0.625 C 0.71875 -1.113281 0.515625 -1.769531 0.515625 -2.59375 Z M 1.703125 -2.53125 C 1.703125 -2.039062 1.804688 -1.660156 2.015625 -1.390625 C 2.222656 -1.117188 2.539062 -0.984375 2.96875 -0.984375 C 3.40625 -0.984375 3.722656 -1.117188 3.921875 -1.390625 C 4.128906 -1.660156 4.234375 -2.039062 4.234375 -2.53125 L 4.234375 -8.1875 C 4.234375 -8.675781 4.128906 -9.054688 3.921875 -9.328125 C 3.722656 -9.597656 3.40625 -9.734375 2.96875 -9.734375 C 2.539062 -9.734375 2.222656 -9.597656 2.015625 -9.328125 C 1.804688 -9.054688 1.703125 -8.675781 1.703125 -8.1875 Z M 1.703125 -2.53125 "/></g></g></g><g fill="#ffffff" fill-opacity="1"><g transform="translate(165.444128, 231.99193)"><g><path d="M 4.5625 -0.015625 L 3.421875 -0.015625 L 1.640625 -8.546875 L 1.640625 0 L 0.59375 0 L 0.59375 -10.71875 L 2.265625 -10.71875 L 4.03125 -2.15625 L 5.734375 -10.71875 L 7.390625 -10.71875 L 7.390625 0 L 6.265625 0 L 6.265625 -8.625 Z M 4.5625 -0.015625 "/></g></g></g><g fill="#ffffff" fill-opacity="1"><g transform="translate(173.453327, 231.99193)"><g><path d="M 4.421875 -5.96875 L 4.421875 -4.90625 L 1.8125 -4.90625 L 1.8125 -1.09375 L 5.015625 -1.09375 L 5.015625 0 L 0.609375 0 L 0.609375 -10.71875 L 5.015625 -10.71875 L 5.015625 -9.625 L 1.8125 -9.625 L 1.8125 -5.96875 Z M 4.421875 -5.96875 "/></g></g></g><g fill="#ffffff" fill-opacity="1"><g transform="translate(178.966352, 231.99193)"><g><path d="M 2.15625 0 L 2.15625 -9.625 L 0.1875 -9.625 L 0.1875 -10.71875 L 5.3125 -10.71875 L 5.3125 -9.625 L 3.34375 -9.625 L 3.34375 0 Z M 2.15625 0 "/></g></g></g><g fill="#ffffff" fill-opacity="1"><g transform="translate(184.479377, 231.99193)"><g><path d="M 1.8125 -4.828125 L 1.8125 0 L 0.609375 0 L 0.609375 -10.71875 L 1.8125 -10.71875 L 1.8125 -5.890625 L 4.4375 -5.890625 L 4.4375 -10.71875 L 5.640625 -10.71875 L 5.640625 0 L 4.4375 0 L 4.4375 -4.828125 Z M 1.8125 -4.828125 "/></g></g></g><g fill="#ffffff" fill-opacity="1"><g transform="translate(190.727476, 231.99193)"><g><path d="M 1.8125 -10.71875 L 1.8125 0 L 0.609375 0 L 0.609375 -10.71875 Z M 1.8125 -10.71875 "/></g></g></g><g fill="#ffffff" fill-opacity="1"><g transform="translate(193.147078, 231.99193)"><g><path d="M 1.671875 0 L 0.59375 0 L 0.59375 -10.71875 L 2.109375 -10.71875 L 4.59375 -2.96875 L 4.59375 -10.71875 L 5.65625 -10.71875 L 5.65625 0 L 4.40625 0 L 1.671875 -8.671875 Z M 1.671875 0 "/></g></g></g><g fill="#ffffff" fill-opacity="1"><g transform="translate(199.410482, 231.99193)"><g><path d="M 2.921875 -10.828125 C 3.753906 -10.828125 4.363281 -10.582031 4.75 -10.09375 C 5.144531 -9.601562 5.34375 -8.945312 5.34375 -8.125 L 5.34375 -7.21875 L 4.203125 -7.21875 L 4.203125 -8.1875 C 4.203125 -8.675781 4.101562 -9.054688 3.90625 -9.328125 C 3.707031 -9.597656 3.390625 -9.734375 2.953125 -9.734375 C 2.523438 -9.734375 2.207031 -9.597656 2 -9.328125 C 1.800781 -9.054688 1.703125 -8.675781 1.703125 -8.1875 L 1.703125 -2.53125 C 1.703125 -2.039062 1.800781 -1.660156 2 -1.390625 C 2.207031 -1.117188 2.523438 -0.984375 2.953125 -0.984375 C 3.390625 -0.984375 3.707031 -1.117188 3.90625 -1.390625 C 4.101562 -1.660156 4.203125 -2.039062 4.203125 -2.53125 L 4.203125 -4.671875 L 3.109375 -4.671875 L 3.109375 -5.734375 L 5.34375 -5.734375 L 5.34375 -2.59375 C 5.34375 -1.769531 5.144531 -1.113281 4.75 -0.625 C 4.363281 -0.132812 3.753906 0.109375 2.921875 0.109375 C 2.109375 0.109375 1.503906 -0.132812 1.109375 -0.625 C 0.710938 -1.113281 0.515625 -1.769531 0.515625 -2.59375 L 0.515625 -8.125 C 0.515625 -8.539062 0.5625 -8.910156 0.65625 -9.234375 C 0.757812 -9.566406 0.910156 -9.847656 1.109375 -10.078125 C 1.304688 -10.316406 1.554688 -10.5 1.859375 -10.625 C 2.160156 -10.757812 2.515625 -10.828125 2.921875 -10.828125 Z M 2.921875 -10.828125 "/></g></g></g><g fill="#ffffff" fill-opacity="1"><g transform="translate(205.275725, 231.99193)"><g/></g></g><g fill="#ffffff" fill-opacity="1"><g transform="translate(207.649395, 231.99193)"><g><path d="M 2.515625 -3.84375 L 0.25 -10.71875 L 1.484375 -10.71875 L 3.15625 -5.453125 L 4.84375 -10.71875 L 5.96875 -10.71875 L 3.6875 -3.84375 L 3.6875 0 L 2.515625 0 Z M 2.515625 -3.84375 "/></g></g></g><g fill="#ffffff" fill-opacity="1"><g transform="translate(213.866868, 231.99193)"><g><path d="M 0.515625 -8.125 C 0.515625 -8.957031 0.71875 -9.613281 1.125 -10.09375 C 1.53125 -10.582031 2.144531 -10.828125 2.96875 -10.828125 C 3.789062 -10.828125 4.40625 -10.582031 4.8125 -10.09375 C 5.226562 -9.613281 5.4375 -8.957031 5.4375 -8.125 L 5.4375 -2.59375 C 5.4375 -1.769531 5.226562 -1.113281 4.8125 -0.625 C 4.40625 -0.132812 3.789062 0.109375 2.96875 0.109375 C 2.144531 0.109375 1.53125 -0.132812 1.125 -0.625 C 0.71875 -1.113281 0.515625 -1.769531 0.515625 -2.59375 Z M 1.703125 -2.53125 C 1.703125 -2.039062 1.804688 -1.660156 2.015625 -1.390625 C 2.222656 -1.117188 2.539062 -0.984375 2.96875 -0.984375 C 3.40625 -0.984375 3.722656 -1.117188 3.921875 -1.390625 C 4.128906 -1.660156 4.234375 -2.039062 4.234375 -2.53125 L 4.234375 -8.1875 C 4.234375 -8.675781 4.128906 -9.054688 3.921875 -9.328125 C 3.722656 -9.597656 3.40625 -9.734375 2.96875 -9.734375 C 2.539062 -9.734375 2.222656 -9.597656 2.015625 -9.328125 C 1.804688 -9.054688 1.703125 -8.675781 1.703125 -8.1875 Z M 1.703125 -2.53125 "/></g></g></g><g fill="#ffffff" fill-opacity="1"><g transform="translate(219.824002, 231.99193)"><g><path d="M 1.75 -2.53125 C 1.75 -2.039062 1.847656 -1.660156 2.046875 -1.390625 C 2.242188 -1.117188 2.5625 -0.984375 3 -0.984375 C 3.425781 -0.984375 3.738281 -1.117188 3.9375 -1.390625 C 4.132812 -1.660156 4.234375 -2.039062 4.234375 -2.53125 L 4.234375 -10.71875 L 5.359375 -10.71875 L 5.359375 -2.59375 C 5.359375 -1.769531 5.164062 -1.109375 4.78125 -0.609375 C 4.394531 -0.117188 3.785156 0.125 2.953125 0.125 C 2.140625 0.125 1.535156 -0.117188 1.140625 -0.609375 C 0.753906 -1.109375 0.5625 -1.769531 0.5625 -2.59375 L 0.5625 -10.71875 L 1.75 -10.71875 Z M 1.75 -2.53125 "/></g></g></g><g fill="#ffffff" fill-opacity="1"><g transform="translate(225.75051, 231.99193)"><g/></g></g><g fill="#ffffff" fill-opacity="1"><g transform="translate(228.12418, 231.99193)"><g><path d="M 2.921875 -10.828125 C 3.753906 -10.828125 4.363281 -10.582031 4.75 -10.09375 C 5.144531 -9.601562 5.34375 -8.945312 5.34375 -8.125 L 5.34375 -7.171875 L 4.203125 -7.171875 L 4.203125 -8.1875 C 4.203125 -8.675781 4.101562 -9.054688 3.90625 -9.328125 C 3.707031 -9.597656 3.390625 -9.734375 2.953125 -9.734375 C 2.523438 -9.734375 2.207031 -9.597656 2 -9.328125 C 1.800781 -9.054688 1.703125 -8.675781 1.703125 -8.1875 L 1.703125 -2.53125 C 1.703125 -2.039062 1.800781 -1.660156 2 -1.390625 C 2.207031 -1.117188 2.523438 -0.984375 2.953125 -0.984375 C 3.390625 -0.984375 3.707031 -1.117188 3.90625 -1.390625 C 4.101562 -1.660156 4.203125 -2.039062 4.203125 -2.53125 L 4.203125 -3.921875 L 5.34375 -3.921875 L 5.34375 -2.59375 C 5.34375 -1.769531 5.144531 -1.113281 4.75 -0.625 C 4.363281 -0.132812 3.753906 0.109375 2.921875 0.109375 C 2.109375 0.109375 1.503906 -0.132812 1.109375 -0.625 C 0.710938 -1.113281 0.515625 -1.769531 0.515625 -2.59375 L 0.515625 -8.125 C 0.515625 -8.539062 0.5625 -8.910156 0.65625 -9.234375 C 0.757812 -9.566406 0.910156 -9.847656 1.109375 -10.078125 C 1.304688 -10.316406 1.554688 -10.5 1.859375 -10.625 C 2.160156 -10.757812 2.515625 -10.828125 2.921875 -10.828125 Z M 2.921875 -10.828125 "/></g></g></g><g fill="#ffffff" fill-opacity="1"><g transform="translate(233.943491, 231.99193)"><g><path d="M 1.828125 -2.15625 L 1.40625 0 L 0.3125 0 L 2.359375 -10.71875 L 4.09375 -10.71875 L 6.140625 0 L 4.953125 0 L 4.53125 -2.15625 Z M 1.96875 -3.1875 L 4.359375 -3.1875 L 3.15625 -9.375 Z M 1.96875 -3.1875 "/></g></g></g><g fill="#ffffff" fill-opacity="1"><g transform="translate(240.405985, 231.99193)"><g><path d="M 1.671875 0 L 0.59375 0 L 0.59375 -10.71875 L 2.109375 -10.71875 L 4.59375 -2.96875 L 4.59375 -10.71875 L 5.65625 -10.71875 L 5.65625 0 L 4.40625 0 L 1.671875 -8.671875 Z M 1.671875 0 "/></g></g></g><g fill="#ffffff" fill-opacity="1"><g transform="translate(246.669389, 231.99193)"><g/></g></g><g fill="#ffffff" fill-opacity="1"><g transform="translate(249.04306, 231.99193)"><g><path d="M 1.828125 -2.15625 L 1.40625 0 L 0.3125 0 L 2.359375 -10.71875 L 4.09375 -10.71875 L 6.140625 0 L 4.953125 0 L 4.53125 -2.15625 Z M 1.96875 -3.1875 L 4.359375 -3.1875 L 3.15625 -9.375 Z M 1.96875 -3.1875 "/></g></g></g><g fill="#ffffff" fill-opacity="1"><g transform="translate(255.505553, 231.99193)"><g><path d="M 1.75 -2.53125 C 1.75 -2.039062 1.847656 -1.660156 2.046875 -1.390625 C 2.242188 -1.117188 2.5625 -0.984375 3 -0.984375 C 3.425781 -0.984375 3.738281 -1.117188 3.9375 -1.390625 C 4.132812 -1.660156 4.234375 -2.039062 4.234375 -2.53125 L 4.234375 -10.71875 L 5.359375 -10.71875 L 5.359375 -2.59375 C 5.359375 -1.769531 5.164062 -1.109375 4.78125 -0.609375 C 4.394531 -0.117188 3.785156 0.125 2.953125 0.125 C 2.140625 0.125 1.535156 -0.117188 1.140625 -0.609375 C 0.753906 -1.109375 0.5625 -1.769531 0.5625 -2.59375 L 0.5625 -10.71875 L 1.75 -10.71875 Z M 1.75 -2.53125 "/></g></g></g><g fill="#ffffff" fill-opacity="1"><g transform="translate(261.432061, 231.99193)"><g><path d="M 2.15625 0 L 2.15625 -9.625 L 0.1875 -9.625 L 0.1875 -10.71875 L 5.3125 -10.71875 L 5.3125 -9.625 L 3.34375 -9.625 L 3.34375 0 Z M 2.15625 0 "/></g></g></g><g fill="#ffffff" fill-opacity="1"><g transform="translate(266.945086, 231.99193)"><g><path d="M 0.515625 -8.125 C 0.515625 -8.957031 0.71875 -9.613281 1.125 -10.09375 C 1.53125 -10.582031 2.144531 -10.828125 2.96875 -10.828125 C 3.789062 -10.828125 4.40625 -10.582031 4.8125 -10.09375 C 5.226562 -9.613281 5.4375 -8.957031 5.4375 -8.125 L 5.4375 -2.59375 C 5.4375 -1.769531 5.226562 -1.113281 4.8125 -0.625 C 4.40625 -0.132812 3.789062 0.109375 2.96875 0.109375 C 2.144531 0.109375 1.53125 -0.132812 1.125 -0.625 C 0.71875 -1.113281 0.515625 -1.769531 0.515625 -2.59375 Z M 1.703125 -2.53125 C 1.703125 -2.039062 1.804688 -1.660156 2.015625 -1.390625 C 2.222656 -1.117188 2.539062 -0.984375 2.96875 -0.984375 C 3.40625 -0.984375 3.722656 -1.117188 3.921875 -1.390625 C 4.128906 -1.660156 4.234375 -2.039062 4.234375 -2.53125 L 4.234375 -8.1875 C 4.234375 -8.675781 4.128906 -9.054688 3.921875 -9.328125 C 3.722656 -9.597656 3.40625 -9.734375 2.96875 -9.734375 C 2.539062 -9.734375 2.222656 -9.597656 2.015625 -9.328125 C 1.804688 -9.054688 1.703125 -8.675781 1.703125 -8.1875 Z M 1.703125 -2.53125 "/></g></g></g><g fill="#ffffff" fill-opacity="1"><g transform="translate(272.902235, 231.99193)"><g><path d="M 4.5625 -0.015625 L 3.421875 -0.015625 L 1.640625 -8.546875 L 1.640625 0 L 0.59375 0 L 0.59375 -10.71875 L 2.265625 -10.71875 L 4.03125 -2.15625 L 5.734375 -10.71875 L 7.390625 -10.71875 L 7.390625 0 L 6.265625 0 L 6.265625 -8.625 Z M 4.5625 -0.015625 "/></g></g></g><g fill="#ffffff" fill-opacity="1"><g transform="translate(280.911433, 231.99193)"><g><path d="M 1.828125 -2.15625 L 1.40625 0 L 0.3125 0 L 2.359375 -10.71875 L 4.09375 -10.71875 L 6.140625 0 L 4.953125 0 L 4.53125 -2.15625 Z M 1.96875 -3.1875 L 4.359375 -3.1875 L 3.15625 -9.375 Z M 1.96875 -3.1875 "/></g></g></g><g fill="#ffffff" fill-opacity="1"><g transform="translate(287.373926, 231.99193)"><g><path d="M 2.15625 0 L 2.15625 -9.625 L 0.1875 -9.625 L 0.1875 -10.71875 L 5.3125 -10.71875 L 5.3125 -9.625 L 3.34375 -9.625 L 3.34375 0 Z M 2.15625 0 "/></g></g></g><g fill="#ffffff" fill-opacity="1"><g transform="translate(292.886951, 231.99193)"><g><path d="M 4.421875 -5.96875 L 4.421875 -4.90625 L 1.8125 -4.90625 L 1.8125 -1.09375 L 5.015625 -1.09375 L 5.015625 0 L 0.609375 0 L 0.609375 -10.71875 L 5.015625 -10.71875 L 5.015625 -9.625 L 1.8125 -9.625 L 1.8125 -5.96875 Z M 4.421875 -5.96875 "/></g></g></g><g fill="#ffffff" fill-opacity="1"><g transform="translate(298.399977, 231.99193)"><g/></g></g><g fill="#ffffff" fill-opacity="1"><g transform="translate(300.773647, 231.99193)"><g><path d="M 1.8125 -10.71875 L 1.8125 0 L 0.609375 0 L 0.609375 -10.71875 Z M 1.8125 -10.71875 "/></g></g></g><g fill="#ffffff" fill-opacity="1"><g transform="translate(303.193263, 231.99193)"><g><path d="M 1.671875 0 L 0.59375 0 L 0.59375 -10.71875 L 2.109375 -10.71875 L 4.59375 -2.96875 L 4.59375 -10.71875 L 5.65625 -10.71875 L 5.65625 0 L 4.40625 0 L 1.671875 -8.671875 Z M 1.671875 0 "/></g></g></g><g fill="#ffffff" fill-opacity="1"><g transform="translate(309.456668, 231.99193)"><g/></g></g><g fill="#ffffff" fill-opacity="1"><g transform="translate(311.830338, 231.99193)"><g><path d="M 2.953125 -10.828125 C 3.785156 -10.828125 4.394531 -10.582031 4.78125 -10.09375 C 5.175781 -9.613281 5.375 -8.957031 5.375 -8.125 L 5.375 -7.859375 C 5.375 -7.304688 5.265625 -6.835938 5.046875 -6.453125 C 4.828125 -6.078125 4.503906 -5.8125 4.078125 -5.65625 C 4.535156 -5.476562 4.863281 -5.195312 5.0625 -4.8125 C 5.269531 -4.425781 5.375 -3.96875 5.375 -3.4375 L 5.375 -2.609375 C 5.375 -1.773438 5.175781 -1.113281 4.78125 -0.625 C 4.394531 -0.132812 3.785156 0.109375 2.953125 0.109375 C 2.140625 0.109375 1.535156 -0.132812 1.140625 -0.625 C 0.742188 -1.125 0.546875 -1.785156 0.546875 -2.609375 L 0.546875 -3.34375 L 1.671875 -3.34375 L 1.671875 -2.53125 C 1.671875 -2.039062 1.769531 -1.660156 1.96875 -1.390625 C 2.175781 -1.117188 2.492188 -0.984375 2.921875 -0.984375 C 3.359375 -0.984375 3.675781 -1.117188 3.875 -1.390625 C 4.082031 -1.671875 4.1875 -2.085938 4.1875 -2.640625 L 4.1875 -3.453125 C 4.1875 -4.484375 3.734375 -5.015625 2.828125 -5.046875 L 2.1875 -5.046875 L 2.1875 -6.125 L 2.890625 -6.125 C 3.285156 -6.144531 3.597656 -6.273438 3.828125 -6.515625 C 4.066406 -6.765625 4.1875 -7.125 4.1875 -7.59375 L 4.1875 -8.078125 C 4.1875 -8.628906 4.082031 -9.046875 3.875 -9.328125 C 3.675781 -9.609375 3.359375 -9.75 2.921875 -9.75 C 2.492188 -9.75 2.175781 -9.609375 1.96875 -9.328125 C 1.769531 -9.054688 1.671875 -8.675781 1.671875 -8.1875 L 1.671875 -7.640625 L 0.546875 -7.640625 L 0.546875 -8.125 C 0.546875 -8.957031 0.738281 -9.613281 1.125 -10.09375 C 1.519531 -10.582031 2.128906 -10.828125 2.953125 -10.828125 Z M 2.953125 -10.828125 "/></g></g></g><g fill="#ffffff" fill-opacity="1"><g transform="translate(317.756846, 231.99193)"><g/></g></g><g fill="#ffffff" fill-opacity="1"><g transform="translate(320.130516, 231.99193)"><g><path d="M 1.8125 -4.828125 L 1.8125 0 L 0.609375 0 L 0.609375 -10.71875 L 1.8125 -10.71875 L 1.8125 -5.890625 L 4.4375 -5.890625 L 4.4375 -10.71875 L 5.640625 -10.71875 L 5.640625 0 L 4.4375 0 L 4.4375 -4.828125 Z M 1.8125 -4.828125 "/></g></g></g><g fill="#ffffff" fill-opacity="1"><g transform="translate(326.378615, 231.99193)"><g><path d="M 0.515625 -8.125 C 0.515625 -8.957031 0.71875 -9.613281 1.125 -10.09375 C 1.53125 -10.582031 2.144531 -10.828125 2.96875 -10.828125 C 3.789062 -10.828125 4.40625 -10.582031 4.8125 -10.09375 C 5.226562 -9.613281 5.4375 -8.957031 5.4375 -8.125 L 5.4375 -2.59375 C 5.4375 -1.769531 5.226562 -1.113281 4.8125 -0.625 C 4.40625 -0.132812 3.789062 0.109375 2.96875 0.109375 C 2.144531 0.109375 1.53125 -0.132812 1.125 -0.625 C 0.71875 -1.113281 0.515625 -1.769531 0.515625 -2.59375 Z M 1.703125 -2.53125 C 1.703125 -2.039062 1.804688 -1.660156 2.015625 -1.390625 C 2.222656 -1.117188 2.539062 -0.984375 2.96875 -0.984375 C 3.40625 -0.984375 3.722656 -1.117188 3.921875 -1.390625 C 4.128906 -1.660156 4.234375 -2.039062 4.234375 -2.53125 L 4.234375 -8.1875 C 4.234375 -8.675781 4.128906 -9.054688 3.921875 -9.328125 C 3.722656 -9.597656 3.40625 -9.734375 2.96875 -9.734375 C 2.539062 -9.734375 2.222656 -9.597656 2.015625 -9.328125 C 1.804688 -9.054688 1.703125 -8.675781 1.703125 -8.1875 Z M 1.703125 -2.53125 "/></g></g></g><g fill="#ffffff" fill-opacity="1"><g transform="translate(332.335734, 231.99193)"><g><path d="M 1.75 -2.53125 C 1.75 -2.039062 1.847656 -1.660156 2.046875 -1.390625 C 2.242188 -1.117188 2.5625 -0.984375 3 -0.984375 C 3.425781 -0.984375 3.738281 -1.117188 3.9375 -1.390625 C 4.132812 -1.660156 4.234375 -2.039062 4.234375 -2.53125 L 4.234375 -10.71875 L 5.359375 -10.71875 L 5.359375 -2.59375 C 5.359375 -1.769531 5.164062 -1.109375 4.78125 -0.609375 C 4.394531 -0.117188 3.785156 0.125 2.953125 0.125 C 2.140625 0.125 1.535156 -0.117188 1.140625 -0.609375 C 0.753906 -1.109375 0.5625 -1.769531 0.5625 -2.59375 L 0.5625 -10.71875 L 1.75 -10.71875 Z M 1.75 -2.53125 "/></g></g></g><g fill="#ffffff" fill-opacity="1"><g transform="translate(338.262242, 231.99193)"><g><path d="M 3 -10.71875 C 3.84375 -10.71875 4.453125 -10.507812 4.828125 -10.09375 C 5.203125 -9.675781 5.390625 -9.066406 5.390625 -8.265625 L 5.390625 -7.390625 C 5.390625 -6.796875 5.28125 -6.316406 5.0625 -5.953125 C 4.851562 -5.585938 4.519531 -5.332031 4.0625 -5.1875 C 4.550781 -5.039062 4.894531 -4.773438 5.09375 -4.390625 C 5.300781 -4.015625 5.40625 -3.535156 5.40625 -2.953125 L 5.40625 -1.28125 C 5.40625 -1.050781 5.414062 -0.828125 5.4375 -0.609375 C 5.457031 -0.390625 5.519531 -0.1875 5.625 0 L 4.40625 0 C 4.332031 -0.15625 4.28125 -0.320312 4.25 -0.5 C 4.21875 -0.675781 4.203125 -0.941406 4.203125 -1.296875 L 4.203125 -2.984375 C 4.203125 -3.585938 4.066406 -4.003906 3.796875 -4.234375 C 3.535156 -4.460938 3.15625 -4.578125 2.65625 -4.578125 L 1.8125 -4.578125 L 1.8125 0 L 0.609375 0 L 0.609375 -10.71875 Z M 2.6875 -5.671875 C 3.175781 -5.671875 3.550781 -5.769531 3.8125 -5.96875 C 4.070312 -6.164062 4.203125 -6.554688 4.203125 -7.140625 L 4.203125 -8.15625 C 4.203125 -8.644531 4.109375 -9.007812 3.921875 -9.25 C 3.734375 -9.5 3.414062 -9.625 2.96875 -9.625 L 1.8125 -9.625 L 1.8125 -5.671875 Z M 2.6875 -5.671875 "/></g></g></g><g fill="#ffffff" fill-opacity="1"><g transform="translate(344.295947, 231.99193)"><g><path d="M 2.859375 -10.828125 C 3.679688 -10.828125 4.285156 -10.582031 4.671875 -10.09375 C 5.054688 -9.613281 5.25 -8.960938 5.25 -8.140625 L 5.25 -7.859375 L 4.125 -7.859375 L 4.125 -8.203125 C 4.125 -8.691406 4.023438 -9.066406 3.828125 -9.328125 C 3.628906 -9.597656 3.316406 -9.734375 2.890625 -9.734375 C 2.460938 -9.734375 2.148438 -9.597656 1.953125 -9.328125 C 1.765625 -9.066406 1.671875 -8.695312 1.671875 -8.21875 C 1.671875 -7.820312 1.757812 -7.472656 1.9375 -7.171875 C 2.113281 -6.878906 2.332031 -6.609375 2.59375 -6.359375 C 2.863281 -6.109375 3.15625 -5.863281 3.46875 -5.625 C 3.78125 -5.382812 4.066406 -5.117188 4.328125 -4.828125 C 4.597656 -4.546875 4.820312 -4.222656 5 -3.859375 C 5.175781 -3.503906 5.265625 -3.078125 5.265625 -2.578125 C 5.265625 -1.753906 5.066406 -1.097656 4.671875 -0.609375 C 4.285156 -0.128906 3.675781 0.109375 2.84375 0.109375 C 2.019531 0.109375 1.410156 -0.128906 1.015625 -0.609375 C 0.628906 -1.097656 0.4375 -1.753906 0.4375 -2.578125 L 0.4375 -3.1875 L 1.5625 -3.1875 L 1.5625 -2.515625 C 1.5625 -2.023438 1.660156 -1.644531 1.859375 -1.375 C 2.066406 -1.113281 2.382812 -0.984375 2.8125 -0.984375 C 3.238281 -0.984375 3.554688 -1.113281 3.765625 -1.375 C 3.972656 -1.644531 4.078125 -2.023438 4.078125 -2.515625 C 4.078125 -2.910156 3.984375 -3.253906 3.796875 -3.546875 C 3.617188 -3.835938 3.394531 -4.109375 3.125 -4.359375 C 2.863281 -4.609375 2.582031 -4.851562 2.28125 -5.09375 C 1.976562 -5.332031 1.691406 -5.59375 1.421875 -5.875 C 1.160156 -6.164062 0.9375 -6.488281 0.75 -6.84375 C 0.570312 -7.207031 0.484375 -7.640625 0.484375 -8.140625 C 0.484375 -8.972656 0.675781 -9.628906 1.0625 -10.109375 C 1.457031 -10.585938 2.054688 -10.828125 2.859375 -10.828125 Z M 2.859375 -10.828125 "/></g></g></g><g fill="#ffffff" fill-opacity="1"><g transform="translate(349.992756, 231.99193)"><g><path d="M 2.78125 -10.828125 C 3.613281 -10.828125 4.21875 -10.582031 4.59375 -10.09375 C 4.976562 -9.601562 5.171875 -8.941406 5.171875 -8.109375 C 5.171875 -7.679688 5.117188 -7.304688 5.015625 -6.984375 C 4.910156 -6.660156 4.78125 -6.363281 4.625 -6.09375 C 4.46875 -5.820312 4.296875 -5.566406 4.109375 -5.328125 C 3.921875 -5.097656 3.75 -4.863281 3.59375 -4.625 C 3.445312 -4.394531 3.316406 -4.144531 3.203125 -3.875 C 3.097656 -3.601562 3.046875 -3.300781 3.046875 -2.96875 C 3.046875 -2.78125 3.070312 -2.585938 3.125 -2.390625 L 2.046875 -2.390625 C 2.023438 -2.484375 2.003906 -2.578125 1.984375 -2.671875 C 1.972656 -2.765625 1.96875 -2.875 1.96875 -3 C 1.96875 -3.382812 2.015625 -3.722656 2.109375 -4.015625 C 2.210938 -4.316406 2.335938 -4.585938 2.484375 -4.828125 C 2.640625 -5.078125 2.800781 -5.3125 2.96875 -5.53125 C 3.144531 -5.757812 3.304688 -6 3.453125 -6.25 C 3.609375 -6.5 3.734375 -6.773438 3.828125 -7.078125 C 3.929688 -7.390625 3.984375 -7.753906 3.984375 -8.171875 C 3.984375 -8.660156 3.890625 -9.046875 3.703125 -9.328125 C 3.515625 -9.609375 3.195312 -9.75 2.75 -9.75 C 2.3125 -9.75 2 -9.601562 1.8125 -9.3125 C 1.625 -9.03125 1.53125 -8.648438 1.53125 -8.171875 L 1.53125 -7.234375 L 0.40625 -7.234375 L 0.40625 -8.09375 C 0.40625 -8.507812 0.453125 -8.878906 0.546875 -9.203125 C 0.640625 -9.535156 0.78125 -9.820312 0.96875 -10.0625 C 1.164062 -10.300781 1.414062 -10.488281 1.71875 -10.625 C 2.019531 -10.757812 2.375 -10.828125 2.78125 -10.828125 Z M 3.140625 -1.484375 L 3.140625 0 L 2 0 L 2 -1.484375 Z M 3.140625 -1.484375 "/></g></g></g></svg>