<svg xmlns="http://www.w3.org/2000/svg" xmlns:xlink="http://www.w3.org/1999/xlink" width="500" zoomAndPan="magnify" viewBox="0 0 375 374.999991" height="500" preserveAspectRatio="xMidYMid meet" version="1.0"><defs><clipPath id="dcb1babdc6"><path d="M 299 120 L 354.933594 120 L 354.933594 165 L 299 165 Z M 299 120 " clip-rule="nonzero"/></clipPath><clipPath id="33ae9e24ce"><path d="M 20.433594 120 L 76 120 L 76 165 L 20.433594 165 Z M 20.433594 120 " clip-rule="nonzero"/></clipPath><clipPath id="2f1f8f43eb"><path d="M 64 230 L 312 230 L 312 358.589844 L 64 358.589844 Z M 64 230 " clip-rule="nonzero"/></clipPath><clipPath id="4eef750d62"><path d="M 96 16.589844 L 280 16.589844 L 280 219 L 96 219 Z M 96 16.589844 " clip-rule="nonzero"/></clipPath></defs><g clip-path="url(#dcb1babdc6)"><path fill="#ffffff" d="M 313.503906 145.609375 L 313.503906 120.539062 L 299.4375 120.539062 L 299.4375 145.609375 C 299.4375 156.246094 308.179688 164.984375 318.824219 164.984375 L 335.546875 164.984375 C 346.191406 164.984375 354.933594 156.246094 354.933594 145.609375 L 354.933594 120.539062 L 340.871094 120.539062 L 340.871094 145.609375 C 340.871094 148.269531 338.589844 150.929688 335.546875 150.929688 L 318.824219 150.929688 C 315.78125 150.929688 313.503906 148.648438 313.503906 145.609375 Z M 313.503906 145.609375 " fill-opacity="1" fill-rule="nonzero"/></g><path fill="#ffffff" d="M 334.027344 175.242188 L 319.964844 175.242188 L 319.964844 211.332031 L 297.539062 229.949219 L 306.660156 240.964844 L 334.027344 218.171875 Z M 334.027344 175.242188 " fill-opacity="1" fill-rule="nonzero"/><g clip-path="url(#33ae9e24ce)"><path fill="#ffffff" d="M 39.820312 164.984375 L 56.546875 164.984375 C 67.1875 164.984375 75.929688 156.246094 75.929688 145.609375 L 75.929688 120.539062 L 61.867188 120.539062 L 61.867188 145.609375 C 61.867188 148.269531 59.585938 150.929688 56.546875 150.929688 L 39.820312 150.929688 C 37.160156 150.929688 34.5 148.648438 34.5 145.609375 L 34.5 120.539062 L 20.433594 120.539062 L 20.433594 145.609375 C 20.433594 156.246094 29.175781 164.984375 39.820312 164.984375 Z M 39.820312 164.984375 " fill-opacity="1" fill-rule="nonzero"/></g><path fill="#ffffff" d="M 41.339844 175.242188 L 41.339844 218.171875 L 68.710938 240.964844 L 77.832031 229.949219 L 55.40625 211.332031 L 55.40625 175.242188 Z M 41.339844 175.242188 " fill-opacity="1" fill-rule="nonzero"/><g clip-path="url(#2f1f8f43eb)"><path fill="#ffffff" d="M 291.457031 313.90625 C 291.835938 313.144531 291.835938 312.765625 291.835938 312.765625 C 291.835938 312.765625 292.597656 311.246094 292.976562 308.964844 C 292.976562 308.585938 292.976562 308.585938 293.355469 308.207031 L 310.082031 312.003906 C 310.082031 312.003906 310.082031 311.625 310.460938 311.246094 C 310.460938 310.484375 310.839844 309.726562 310.839844 308.585938 C 310.839844 307.445312 311.222656 306.304688 311.222656 305.167969 C 311.222656 304.027344 311.222656 302.507812 311.601562 300.988281 C 311.601562 300.226562 311.601562 299.847656 311.601562 299.089844 C 311.601562 298.707031 311.601562 297.949219 311.601562 297.570312 C 311.601562 296.808594 311.601562 295.667969 311.601562 294.910156 C 311.601562 293.390625 311.601562 292.25 311.601562 292.25 L 294.496094 292.25 C 294.496094 291.871094 294.496094 291.492188 294.496094 291.492188 C 294.496094 289.210938 294.496094 287.3125 294.496094 287.3125 C 294.496094 287.3125 294.496094 286.933594 294.496094 286.171875 C 294.496094 285.414062 294.496094 284.652344 294.117188 283.132812 C 294.117188 282.753906 294.117188 282.375 294.117188 282.375 L 311.222656 279.714844 C 311.222656 279.714844 311.222656 279.332031 311.222656 278.574219 C 311.222656 277.8125 310.839844 277.054688 310.839844 275.914062 C 310.460938 274.015625 309.699219 270.976562 308.5625 268.695312 C 306.660156 263.378906 303.621094 258.820312 303.621094 258.820312 L 288.792969 267.9375 C 287.273438 265.65625 286.132812 263.757812 286.132812 263.757812 C 286.132812 263.757812 285.753906 263.378906 285.375 263 C 284.992188 262.617188 284.234375 261.859375 283.472656 260.71875 C 283.472656 260.339844 283.09375 260.339844 282.714844 259.960938 L 294.875 247.800781 C 294.875 247.800781 291.074219 244.003906 286.515625 240.585938 C 281.953125 237.546875 276.632812 235.265625 276.632812 235.265625 L 269.789062 251.222656 C 269.410156 251.222656 269.410156 250.84375 269.027344 250.84375 C 267.886719 250.460938 267.128906 250.082031 266.367188 249.703125 C 265.609375 249.320312 265.226562 249.320312 265.226562 249.320312 C 265.226562 249.320312 263.707031 248.941406 261.425781 248.183594 C 261.046875 248.183594 260.667969 248.183594 260.667969 248.183594 L 263.707031 231.085938 C 263.707031 231.085938 262.1875 230.707031 260.285156 230.707031 C 259.144531 230.707031 258.003906 230.707031 256.867188 230.328125 C 256.105469 230.328125 255.34375 230.328125 254.964844 230.328125 C 254.203125 230.328125 253.445312 230.328125 253.0625 230.328125 C 248.882812 230.328125 245.082031 230.328125 245.082031 230.328125 L 245.082031 247.421875 C 242.039062 247.421875 240.140625 247.421875 240.140625 247.421875 L 235.199219 247.421875 L 235.199219 230.328125 L 219.234375 230.328125 L 219.234375 247.421875 L 209.351562 247.421875 L 209.351562 230.328125 L 193.386719 230.328125 L 193.386719 247.421875 L 183.503906 247.421875 L 183.503906 230.328125 L 167.539062 230.328125 L 167.539062 247.421875 L 161.078125 248.5625 L 156.136719 248.5625 L 156.136719 231.46875 L 140.171875 231.46875 L 140.171875 248.5625 L 135.230469 248.5625 C 135.230469 248.5625 133.328125 248.5625 130.289062 248.5625 L 130.289062 231.46875 C 130.289062 231.46875 126.105469 231.46875 122.304688 231.46875 C 116.601562 231.46875 111.28125 232.605469 111.28125 232.605469 L 114.703125 249.320312 C 112.042969 249.703125 110.140625 250.460938 110.140625 250.460938 C 110.140625 250.460938 108.621094 250.839844 106.339844 251.980469 C 105.960938 251.980469 105.960938 252.359375 105.578125 252.359375 L 98.359375 236.785156 C 98.359375 236.785156 97.21875 237.546875 95.316406 238.304688 C 93.417969 239.445312 91.136719 240.585938 88.855469 242.484375 C 87.714844 243.242188 86.574219 244.003906 85.433594 245.144531 C 84.292969 245.902344 83.535156 246.664062 82.773438 247.421875 C 81.253906 248.941406 80.113281 249.703125 80.113281 249.703125 L 92.65625 261.480469 C 92.277344 261.859375 92.277344 261.859375 91.894531 262.238281 C 90.375 264.136719 89.234375 265.277344 89.234375 265.277344 C 89.234375 265.277344 88.855469 265.65625 88.476562 266.039062 C 88.09375 266.417969 87.335938 267.558594 86.953125 268.316406 C 86.953125 268.695312 86.574219 268.695312 86.574219 269.078125 L 71.75 260.339844 C 71.75 260.339844 68.710938 265.277344 67.1875 270.597656 C 66.046875 273.253906 65.667969 275.914062 65.289062 278.195312 C 64.90625 280.09375 64.90625 281.613281 64.90625 281.613281 L 82.011719 283.894531 C 81.253906 286.933594 81.253906 289.210938 81.253906 289.210938 C 81.253906 289.210938 81.253906 290.730469 81.253906 293.390625 C 81.253906 293.769531 81.253906 294.148438 81.253906 294.148438 L 64.148438 294.148438 C 64.148438 294.148438 64.148438 295.289062 64.148438 296.808594 C 64.148438 297.570312 64.148438 298.328125 64.148438 299.46875 C 64.148438 299.847656 64.148438 300.609375 64.148438 300.988281 C 64.148438 301.746094 64.148438 302.507812 64.148438 302.886719 C 64.148438 308.585938 65.667969 313.90625 65.667969 313.90625 L 82.394531 309.726562 C 82.394531 310.105469 82.394531 310.484375 82.773438 310.484375 C 83.152344 311.625 83.152344 312.765625 83.535156 313.144531 C 83.914062 313.90625 83.914062 314.285156 83.914062 314.285156 C 83.914062 314.285156 83.914062 314.664062 84.292969 315.425781 C 84.671875 316.183594 85.054688 316.945312 85.433594 318.082031 C 85.433594 318.464844 85.8125 318.464844 85.8125 318.84375 L 70.609375 326.820312 C 70.609375 326.820312 73.269531 331.757812 76.691406 336.316406 C 78.210938 338.597656 80.492188 340.496094 81.632812 342.015625 C 83.152344 343.535156 84.292969 344.296875 84.292969 344.296875 L 95.695312 331.378906 C 96.078125 331.757812 96.078125 331.757812 96.457031 332.140625 C 98.359375 333.660156 99.5 334.417969 99.5 334.417969 C 99.5 334.417969 101.019531 335.558594 103.679688 337.078125 L 95.695312 352.273438 C 95.695312 352.273438 100.636719 354.933594 105.960938 356.453125 C 108.621094 357.210938 111.28125 357.972656 113.5625 357.972656 C 115.464844 358.351562 116.984375 358.351562 116.984375 358.351562 L 118.882812 341.257812 C 119.265625 341.257812 119.644531 341.257812 119.644531 341.257812 C 121.925781 341.257812 123.824219 341.257812 123.824219 341.257812 L 128.765625 341.257812 L 128.765625 358.351562 L 144.730469 358.351562 L 144.730469 341.257812 L 154.613281 341.257812 L 154.613281 358.351562 L 170.578125 358.351562 L 170.578125 341.257812 L 180.460938 341.257812 L 180.460938 358.351562 L 196.425781 358.351562 L 196.425781 341.257812 L 206.308594 341.257812 L 206.308594 358.351562 L 222.273438 358.351562 L 222.273438 341.257812 L 232.15625 341.257812 L 232.15625 358.351562 L 248.121094 358.351562 L 248.121094 341.257812 L 253.0625 341.257812 C 253.0625 341.257812 254.585938 341.257812 256.867188 340.875 C 257.246094 340.875 257.625 340.875 257.625 340.875 L 259.90625 357.972656 C 259.90625 357.972656 265.609375 357.210938 270.929688 355.691406 C 276.25 353.792969 281.191406 351.132812 281.191406 351.132812 L 272.828125 335.9375 C 273.210938 335.9375 273.210938 335.558594 273.589844 335.558594 C 274.730469 334.796875 275.492188 334.417969 275.871094 334.039062 C 276.25 333.660156 276.632812 333.277344 276.632812 333.277344 C 276.632812 333.277344 278.152344 332.140625 280.433594 330.238281 L 292.214844 342.777344 C 292.214844 342.777344 293.355469 342.015625 294.875 340.496094 C 296.398438 338.976562 298.296875 337.078125 299.816406 334.796875 C 303.238281 330.238281 305.519531 325.300781 305.519531 325.300781 L 289.933594 317.703125 C 289.933594 317.324219 290.316406 317.324219 290.316406 316.945312 C 291.074219 315.804688 291.457031 314.664062 291.457031 313.90625 Z M 278.152344 300.226562 C 278.152344 302.128906 277.773438 304.027344 277.390625 305.546875 C 277.011719 307.066406 276.632812 307.824219 276.632812 307.824219 C 276.632812 307.824219 275.492188 311.625 272.832031 314.664062 C 270.550781 318.082031 267.128906 320.363281 267.128906 320.363281 C 267.128906 320.363281 266.75 320.363281 266.75 320.742188 C 266.367188 321.121094 265.988281 321.121094 265.226562 321.503906 C 264.085938 322.261719 262.1875 323.023438 260.285156 323.78125 C 259.527344 324.160156 258.386719 324.160156 257.625 324.542969 C 256.867188 324.542969 255.726562 324.921875 254.964844 324.921875 C 253.445312 324.921875 252.683594 324.921875 252.683594 324.921875 L 123.445312 324.921875 C 123.066406 324.921875 122.304688 324.921875 120.785156 324.921875 C 119.265625 324.921875 117.363281 324.542969 115.464844 323.78125 C 111.660156 322.640625 108.242188 320.363281 108.242188 320.363281 C 108.242188 320.363281 107.480469 319.601562 106.339844 318.84375 C 105.199219 317.703125 103.679688 316.5625 102.539062 315.042969 C 101.777344 314.285156 101.398438 313.523438 101.019531 312.765625 C 100.636719 312.003906 100.257812 311.246094 99.878906 310.484375 C 99.5 309.726562 99.117188 309.34375 99.117188 308.964844 C 99.117188 308.585938 98.738281 308.207031 98.738281 308.207031 C 98.738281 308.207031 98.738281 307.824219 98.359375 307.445312 C 97.976562 307.066406 97.976562 306.304688 97.976562 305.925781 C 97.597656 305.167969 97.597656 304.40625 97.597656 303.648438 C 97.21875 302.886719 97.21875 301.746094 97.21875 300.609375 C 97.21875 299.847656 97.21875 297.949219 97.21875 296.429688 C 97.21875 294.910156 97.21875 293.390625 97.21875 292.25 C 97.21875 291.109375 97.21875 289.972656 97.21875 289.210938 C 97.21875 288.832031 97.21875 288.453125 97.21875 288.453125 C 97.21875 288.453125 97.21875 284.652344 98.738281 280.851562 C 99.878906 277.054688 102.539062 274.015625 102.539062 274.015625 C 102.539062 274.015625 102.917969 273.253906 104.058594 272.117188 C 104.441406 271.355469 105.199219 270.976562 105.960938 270.214844 C 106.71875 269.457031 107.480469 269.078125 108.242188 268.316406 C 109 267.558594 109.761719 267.175781 110.523438 266.796875 C 111.28125 266.417969 112.042969 266.039062 112.800781 265.65625 C 114.324219 265.277344 115.082031 264.898438 115.082031 264.898438 C 115.082031 264.898438 118.882812 263.757812 122.683594 263.757812 C 129.148438 263.757812 135.609375 263.757812 135.609375 263.757812 L 239 263.757812 C 239 263.757812 245.460938 263.757812 251.925781 263.757812 C 253.0625 263.757812 254.203125 263.757812 254.964844 263.757812 C 255.726562 263.757812 256.867188 264.136719 257.625 264.136719 C 259.144531 264.519531 259.90625 264.898438 259.90625 264.898438 C 259.90625 264.898438 260.667969 265.277344 262.1875 265.65625 C 262.945312 266.039062 263.707031 266.417969 264.46875 266.796875 C 265.226562 267.175781 265.988281 267.9375 266.75 268.316406 C 268.269531 269.457031 269.789062 270.597656 270.929688 271.734375 C 271.308594 272.117188 271.691406 272.875 272.070312 272.875 C 272.449219 273.253906 272.449219 273.253906 272.449219 273.253906 C 272.449219 273.253906 275.109375 276.292969 276.25 280.09375 C 277.773438 283.894531 277.773438 287.691406 277.773438 287.691406 C 277.773438 287.691406 277.773438 288.070312 277.773438 288.453125 C 277.773438 288.832031 277.773438 289.972656 277.773438 291.109375 C 277.773438 292.25 277.773438 293.769531 277.773438 295.289062 C 277.773438 296.050781 277.773438 296.808594 277.773438 297.570312 L 277.773438 298.707031 Z M 278.152344 300.226562 " fill-opacity="1" fill-rule="nonzero"/></g><path fill="#ffffff" d="M 134.890625 290.988281 C 135.144531 291.636719 135.335938 292.304688 135.460938 292.992188 C 135.585938 293.679688 135.644531 294.371094 135.632812 295.070312 C 135.621094 295.769531 135.542969 296.460938 135.394531 297.140625 C 135.246094 297.824219 135.035156 298.488281 134.757812 299.128906 C 134.480469 299.769531 134.140625 300.375 133.746094 300.949219 C 133.347656 301.523438 132.898438 302.054688 132.394531 302.539062 C 131.894531 303.027344 131.347656 303.460938 130.761719 303.835938 C 130.171875 304.214844 129.554688 304.535156 128.90625 304.789062 C 128.253906 305.046875 127.585938 305.238281 126.898438 305.363281 C 126.210938 305.488281 125.519531 305.546875 124.820312 305.535156 C 124.121094 305.523438 123.429688 305.445312 122.746094 305.296875 C 122.0625 305.148438 121.402344 304.9375 120.761719 304.660156 C 120.117188 304.382812 119.511719 304.042969 118.9375 303.648438 C 118.363281 303.25 117.832031 302.800781 117.34375 302.296875 C 116.859375 301.796875 116.425781 301.253906 116.046875 300.664062 C 115.667969 300.078125 115.351562 299.460938 115.09375 298.808594 C 114.835938 298.160156 114.644531 297.492188 114.519531 296.804688 C 114.394531 296.117188 114.339844 295.425781 114.347656 294.726562 C 114.359375 294.027344 114.441406 293.339844 114.585938 292.65625 C 114.734375 291.972656 114.949219 291.3125 115.226562 290.671875 C 115.503906 290.03125 115.839844 289.421875 116.238281 288.847656 C 116.636719 288.273438 117.085938 287.742188 117.589844 287.257812 C 118.089844 286.769531 118.632812 286.339844 119.222656 285.960938 C 119.808594 285.582031 120.429688 285.265625 121.078125 285.007812 C 121.726562 284.75 122.394531 284.558594 123.082031 284.433594 C 123.769531 284.308594 124.464844 284.253906 125.164062 284.261719 C 125.863281 284.273438 126.554688 284.355469 127.234375 284.5 C 127.917969 284.648438 128.582031 284.859375 129.222656 285.136719 C 129.863281 285.417969 130.472656 285.753906 131.046875 286.152344 C 131.621094 286.546875 132.152344 286.996094 132.636719 287.5 C 133.125 288 133.554688 288.546875 133.933594 289.132812 C 134.3125 289.71875 134.632812 290.339844 134.890625 290.988281 Z M 134.890625 290.988281 " fill-opacity="1" fill-rule="nonzero"/><path fill="#ffffff" d="M 262.539062 287.59375 C 262.796875 288.242188 262.988281 288.910156 263.113281 289.597656 C 263.238281 290.285156 263.296875 290.980469 263.285156 291.675781 C 263.273438 292.375 263.195312 293.066406 263.046875 293.75 C 262.898438 294.429688 262.6875 295.09375 262.410156 295.734375 C 262.132812 296.375 261.792969 296.984375 261.394531 297.558594 C 261 298.132812 260.546875 298.660156 260.046875 299.148438 C 259.542969 299.632812 259 300.066406 258.414062 300.445312 C 257.824219 300.824219 257.207031 301.140625 256.558594 301.398438 C 255.90625 301.652344 255.238281 301.84375 254.550781 301.96875 C 253.863281 302.09375 253.171875 302.152344 252.472656 302.140625 C 251.773438 302.128906 251.082031 302.050781 250.398438 301.902344 C 249.714844 301.757812 249.054688 301.542969 248.414062 301.265625 C 247.769531 300.988281 247.164062 300.652344 246.589844 300.253906 C 246.011719 299.855469 245.484375 299.40625 244.996094 298.90625 C 244.511719 298.402344 244.078125 297.859375 243.699219 297.273438 C 243.320312 296.683594 243.003906 296.066406 242.746094 295.417969 C 242.488281 294.765625 242.296875 294.097656 242.171875 293.410156 C 242.046875 292.726562 241.992188 292.03125 242 291.332031 C 242.011719 290.636719 242.09375 289.945312 242.238281 289.261719 C 242.386719 288.578125 242.597656 287.917969 242.878906 287.277344 C 243.15625 286.636719 243.492188 286.027344 243.890625 285.453125 C 244.289062 284.878906 244.738281 284.347656 245.238281 283.863281 C 245.742188 283.378906 246.285156 282.945312 246.875 282.566406 C 247.460938 282.1875 248.078125 281.871094 248.730469 281.613281 C 249.378906 281.355469 250.046875 281.164062 250.734375 281.039062 C 251.421875 280.914062 252.117188 280.859375 252.816406 280.871094 C 253.515625 280.882812 254.203125 280.960938 254.886719 281.109375 C 255.570312 281.253906 256.234375 281.46875 256.875 281.746094 C 257.515625 282.023438 258.125 282.359375 258.699219 282.757812 C 259.273438 283.15625 259.804688 283.605469 260.289062 284.105469 C 260.777344 284.609375 261.207031 285.152344 261.585938 285.738281 C 261.964844 286.328125 262.285156 286.945312 262.539062 287.59375 Z M 262.539062 287.59375 " fill-opacity="1" fill-rule="nonzero"/><path fill="#ffffff" d="M 198.6875 289.503906 C 198.945312 290.152344 199.132812 290.820312 199.261719 291.507812 C 199.386719 292.195312 199.441406 292.886719 199.429688 293.585938 C 199.417969 294.285156 199.339844 294.976562 199.191406 295.65625 C 199.046875 296.339844 198.832031 297.003906 198.554688 297.644531 C 198.277344 298.285156 197.9375 298.890625 197.542969 299.464844 C 197.144531 300.039062 196.695312 300.570312 196.191406 301.054688 C 195.691406 301.542969 195.144531 301.972656 194.558594 302.351562 C 193.972656 302.730469 193.351562 303.050781 192.703125 303.304688 C 192.054688 303.5625 191.382812 303.753906 190.695312 303.878906 C 190.007812 304.003906 189.316406 304.0625 188.617188 304.050781 C 187.917969 304.039062 187.226562 303.960938 186.542969 303.8125 C 185.859375 303.664062 185.199219 303.453125 184.558594 303.175781 C 183.917969 302.898438 183.308594 302.558594 182.734375 302.164062 C 182.160156 301.765625 181.628906 301.316406 181.140625 300.8125 C 180.65625 300.3125 180.222656 299.765625 179.84375 299.179688 C 179.464844 298.59375 179.148438 297.976562 178.890625 297.324219 C 178.632812 296.675781 178.445312 296.007812 178.316406 295.320312 C 178.191406 294.632812 178.136719 293.941406 178.148438 293.242188 C 178.160156 292.542969 178.238281 291.855469 178.386719 291.171875 C 178.53125 290.488281 178.746094 289.828125 179.023438 289.183594 C 179.300781 288.542969 179.636719 287.9375 180.035156 287.363281 C 180.433594 286.789062 180.882812 286.257812 181.386719 285.773438 C 181.886719 285.285156 182.433594 284.855469 183.019531 284.476562 C 183.605469 284.097656 184.226562 283.78125 184.875 283.523438 C 185.523438 283.265625 186.195312 283.074219 186.882812 282.949219 C 187.570312 282.824219 188.261719 282.765625 188.960938 282.777344 C 189.660156 282.789062 190.351562 282.867188 191.035156 283.015625 C 191.714844 283.164062 192.378906 283.375 193.019531 283.652344 C 193.660156 283.929688 194.269531 284.269531 194.84375 284.667969 C 195.417969 285.0625 195.949219 285.511719 196.433594 286.015625 C 196.921875 286.515625 197.355469 287.0625 197.734375 287.648438 C 198.113281 288.234375 198.429688 288.851562 198.6875 289.503906 Z M 198.6875 289.503906 " fill-opacity="1" fill-rule="nonzero"/><g clip-path="url(#4eef750d62)"><path fill="#ffffff" d="M 120.023438 79.128906 L 120.023438 108 C 119.644531 108 118.882812 108 118.503906 108 L 111.660156 108 C 102.917969 108 96.078125 114.839844 96.078125 123.578125 L 96.078125 156.246094 C 96.078125 164.984375 102.917969 171.824219 111.660156 171.824219 L 118.125 171.824219 C 118.503906 171.824219 119.265625 171.824219 119.644531 171.824219 L 119.644531 207.914062 L 180.460938 207.914062 L 180.460938 218.929688 L 194.527344 218.929688 L 194.527344 207.914062 L 255.34375 207.914062 L 255.34375 171.824219 C 255.726562 171.824219 256.484375 171.824219 256.867188 171.824219 L 263.707031 171.824219 C 272.449219 171.824219 279.292969 164.984375 279.292969 156.246094 L 279.292969 123.578125 C 279.292969 114.839844 272.449219 108 263.707031 108 L 257.246094 108 C 256.867188 108 256.105469 108 255.726562 108 L 255.726562 79.128906 L 194.90625 79.128906 L 194.90625 64.3125 C 204.789062 61.273438 212.011719 52.15625 212.011719 41.140625 C 212.011719 27.84375 200.988281 16.824219 187.683594 16.824219 C 174.378906 16.824219 163.355469 27.84375 163.355469 41.140625 C 163.355469 52.15625 170.578125 61.273438 180.460938 64.3125 L 180.460938 79.128906 Z M 119.644531 155.867188 C 119.644531 156.628906 118.882812 157.007812 118.503906 157.007812 L 111.660156 157.007812 C 110.902344 157.007812 110.523438 156.246094 110.523438 155.867188 L 110.523438 123.195312 C 110.523438 122.4375 111.28125 122.058594 111.660156 122.058594 L 118.125 122.058594 C 118.882812 122.058594 119.265625 122.816406 119.265625 123.195312 L 119.265625 155.867188 Z M 255.726562 123.578125 C 255.726562 122.816406 256.484375 122.4375 256.867188 122.4375 L 263.707031 122.4375 C 264.46875 122.4375 264.847656 123.195312 264.847656 123.578125 L 264.847656 156.246094 C 264.847656 157.007812 264.085938 157.386719 263.707031 157.386719 L 257.246094 157.386719 C 256.484375 157.386719 256.105469 156.628906 256.105469 156.246094 L 256.105469 123.578125 Z M 177.800781 41.140625 C 177.800781 35.441406 182.363281 31.261719 187.683594 31.261719 C 193.007812 31.261719 197.566406 35.820312 197.566406 41.140625 C 197.566406 46.457031 193.386719 51.015625 187.683594 51.015625 C 181.984375 51.015625 177.800781 46.457031 177.800781 41.140625 Z M 241.28125 93.183594 L 241.28125 193.097656 L 134.089844 193.097656 L 134.089844 93.183594 Z M 241.28125 93.183594 " fill-opacity="1" fill-rule="nonzero"/></g><path fill="#ffffff" d="M 164.496094 154.347656 C 174.378906 154.347656 182.363281 146.371094 182.363281 136.492188 C 182.363281 126.617188 174.378906 118.636719 164.496094 118.636719 C 154.613281 118.636719 146.632812 126.617188 146.632812 136.492188 C 146.253906 145.992188 154.613281 154.347656 164.496094 154.347656 Z M 164.496094 128.894531 C 168.679688 128.894531 171.71875 132.3125 171.71875 136.113281 C 171.71875 140.292969 168.296875 143.332031 164.496094 143.332031 C 160.316406 143.332031 157.277344 139.914062 157.277344 136.113281 C 156.894531 132.3125 160.316406 128.894531 164.496094 128.894531 Z M 164.496094 128.894531 " fill-opacity="1" fill-rule="nonzero"/><path fill="#ffffff" d="M 210.871094 154.347656 C 220.753906 154.347656 228.738281 146.371094 228.738281 136.492188 C 228.738281 126.617188 220.753906 118.636719 210.871094 118.636719 C 200.988281 118.636719 193.007812 126.617188 193.007812 136.492188 C 193.007812 145.992188 200.988281 154.347656 210.871094 154.347656 Z M 210.871094 128.894531 C 215.054688 128.894531 218.09375 132.3125 218.09375 136.113281 C 218.09375 140.292969 214.671875 143.332031 210.871094 143.332031 C 206.691406 143.332031 203.648438 139.914062 203.648438 136.113281 C 203.648438 132.3125 207.070312 128.894531 210.871094 128.894531 Z M 210.871094 128.894531 " fill-opacity="1" fill-rule="nonzero"/></svg>