<svg xmlns="http://www.w3.org/2000/svg" xmlns:xlink="http://www.w3.org/1999/xlink" zoomAndPan="magnify" viewBox="0 0 810 1439.999935" preserveAspectRatio="xMidYMid meet" version="1.0"><defs><g/><clipPath id="d02f915d18"><path d="M 53.1875 368.1875 L 756.6875 368.1875 L 756.6875 1071.6875 L 53.1875 1071.6875 Z M 53.1875 368.1875 " clip-rule="nonzero"/></clipPath><clipPath id="a7e9ca2ae4"><path d="M 53.1875 367.894531 L 756.25 367.894531 L 756.25 1070.953125 L 53.1875 1070.953125 Z M 53.1875 367.894531 " clip-rule="nonzero"/></clipPath></defs><rect x="-81" width="972" fill="#ffffff" y="-143.999994" height="1727.999922" fill-opacity="1"/><rect x="-81" width="972" fill="#ffffff" y="-143.999994" height="1727.999922" fill-opacity="1"/><rect x="-81" width="972" fill="#1e3653" y="-143.999994" height="1727.999922" fill-opacity="1"/><g clip-path="url(#d02f915d18)"><path fill="#1e3653" d="M 404.9375 368.1875 C 210.671875 368.1875 53.1875 525.671875 53.1875 719.9375 C 53.1875 914.203125 210.671875 1071.6875 404.9375 1071.6875 C 599.203125 1071.6875 756.6875 914.203125 756.6875 719.9375 C 756.6875 525.671875 599.203125 368.1875 404.9375 368.1875 " fill-opacity="1" fill-rule="nonzero"/></g><g clip-path="url(#a7e9ca2ae4)"><path fill="#ffffff" d="M 404.71875 1070.953125 C 310.863281 1070.953125 222.492188 1034.425781 156.175781 967.96875 C 89.71875 901.652344 53.1875 813.277344 53.1875 719.425781 C 53.1875 625.570312 89.71875 537.195312 156.175781 470.878906 C 222.492188 404.421875 310.863281 367.894531 404.71875 367.894531 C 498.574219 367.894531 586.945312 404.421875 653.261719 470.878906 C 719.71875 537.335938 756.25 625.570312 756.25 719.425781 C 756.25 813.277344 719.71875 901.652344 653.261719 967.96875 C 586.945312 1034.425781 498.574219 1070.953125 404.71875 1070.953125 Z M 404.71875 388.96875 C 316.484375 388.96875 233.449219 423.390625 171.066406 485.773438 C 108.6875 548.15625 74.261719 631.191406 74.261719 719.425781 C 74.261719 807.660156 108.6875 890.695312 171.066406 953.074219 C 233.449219 1015.457031 316.484375 1049.878906 404.71875 1049.878906 C 492.953125 1049.878906 575.988281 1015.457031 638.371094 953.074219 C 700.75 890.695312 735.175781 807.65625 735.175781 719.425781 C 735.175781 631.191406 700.75 548.15625 638.371094 485.773438 C 575.988281 423.390625 492.953125 388.96875 404.71875 388.96875 Z M 404.71875 388.96875 " fill-opacity="1" fill-rule="nonzero"/></g><g fill="#ffffff" fill-opacity="1"><g transform="translate(214.063243, 805.955526)"><g><path d="M 128.871094 -172.691406 C 126.28125 -172.691406 124.554688 -171.179688 124.339844 -168.589844 L 115.488281 -67.566406 L 114.410156 -67.566406 L 93.253906 -168.804688 C 92.605469 -171.398438 91.09375 -172.691406 88.503906 -172.691406 L 75.554688 -172.691406 C 72.960938 -172.691406 71.453125 -171.398438 70.804688 -168.804688 L 49.433594 -67.566406 L 48.355469 -67.566406 L 39.933594 -168.589844 C 39.71875 -171.179688 37.992188 -172.691406 35.402344 -172.691406 L 14.894531 -172.691406 C 12.089844 -172.691406 10.578125 -170.964844 10.792969 -168.160156 L 28.496094 -4.101562 C 28.710938 -1.296875 30.222656 0 33.027344 0 L 54.613281 0 C 57.203125 0 58.714844 -1.296875 59.363281 -3.667969 L 82.027344 -101.457031 L 104.480469 -3.886719 C 105.125 -1.296875 106.636719 0 109.226562 0 L 130.382812 0 C 133.1875 0 134.699219 -1.296875 134.914062 -4.101562 L 153.480469 -168.160156 C 153.695312 -170.964844 152.183594 -172.691406 149.378906 -172.691406 Z M 128.871094 -172.691406 "/></g></g></g><g fill="#ffffff" fill-opacity="1"><g transform="translate(378.336216, 805.955526)"><g><path d="M 14.246094 -172.691406 C 11.871094 -172.691406 10.792969 -171.398438 10.792969 -169.238281 L 10.792969 -3.453125 C 10.792969 -1.296875 11.871094 0 14.246094 0 L 36.695312 0 C 38.855469 0 40.152344 -1.296875 40.152344 -3.453125 L 40.152344 -169.238281 C 40.152344 -171.398438 38.855469 -172.691406 36.695312 -172.691406 Z M 14.246094 -172.691406 "/></g></g></g><g fill="#ffffff" fill-opacity="1"><g transform="translate(429.280262, 805.955526)"><g><path d="M 103.183594 0 C 106.636719 0 107.933594 -2.160156 106.421875 -4.964844 L 67.351562 -92.175781 L 104.046875 -167.511719 C 105.558594 -170.535156 104.261719 -172.691406 101.023438 -172.691406 L 78.359375 -172.691406 C 75.984375 -172.691406 74.472656 -171.613281 73.394531 -169.453125 L 40.152344 -101.457031 L 40.152344 -168.375 C 40.152344 -171.179688 38.640625 -172.691406 35.832031 -172.691406 L 15.109375 -172.691406 C 12.304688 -172.691406 10.792969 -171.179688 10.792969 -168.375 L 10.792969 -4.316406 C 10.792969 -1.511719 12.304688 0 15.109375 0 L 35.832031 0 C 38.640625 0 40.152344 -1.511719 40.152344 -4.316406 L 40.152344 -52.023438 L 48.136719 -67.351562 L 75.335938 -3.238281 C 76.199219 -1.078125 77.710938 0 80.300781 0 Z M 103.183594 0 "/></g></g></g><g fill="#ffffff" fill-opacity="1"><g transform="translate(544.983682, 805.955526)"><g><path d="M 14.246094 -172.691406 C 11.871094 -172.691406 10.792969 -171.398438 10.792969 -169.238281 L 10.792969 -3.453125 C 10.792969 -1.296875 11.871094 0 14.246094 0 L 36.695312 0 C 38.855469 0 40.152344 -1.296875 40.152344 -3.453125 L 40.152344 -169.238281 C 40.152344 -171.398438 38.855469 -172.691406 36.695312 -172.691406 Z M 14.246094 -172.691406 "/></g></g></g></svg>